<svg width="24" height="24" viewBox="0 0 24 24" fill="none" xmlns="http://www.w3.org/2000/svg">
<path fill-rule="evenodd" clip-rule="evenodd" d="M12 2.83334C12.3172 2.83334 12.6069 3.0134 12.7473 3.29782L15.1286 8.12207L20.4539 8.90044C20.7677 8.94631 21.0282 9.16631 21.126 9.46798C21.2239 9.76966 21.142 10.1007 20.9148 10.322L17.0621 14.0745L17.9713 19.3758C18.025 19.6885 17.8964 20.0044 17.6398 20.1909C17.3831 20.3773 17.0429 20.4019 16.7621 20.2542L12 17.7499L7.23788 20.2542C6.95712 20.4019 6.61687 20.3773 6.36023 20.1909C6.10358 20.0044 5.97504 19.6885 6.02866 19.3758L6.9379 14.0745L3.08523 10.322C2.85804 10.1007 2.77615 9.76966 2.87397 9.46798C2.97178 9.16631 3.23235 8.94631 3.54615 8.90044L8.87145 8.12207L11.2527 3.29782C11.3931 3.0134 11.6828 2.83334 12 2.83334ZM12 5.54939L10.1723 9.2522C10.051 9.4979 9.81666 9.66829 9.54553 9.70792L5.45701 10.3055L8.41478 13.1864C8.61134 13.3778 8.70106 13.6538 8.65468 13.9242L7.95682 17.9931L11.6121 16.0708C11.8549 15.9431 12.1451 15.9431 12.3879 16.0708L16.0432 17.9931L15.3453 13.9242C15.2989 13.6538 15.3887 13.3778 15.5852 13.1864L18.543 10.3055L14.4545 9.70792C14.1834 9.66829 13.949 9.4979 13.8277 9.2522L12 5.54939Z" fill="#151515"/>
</svg>
