<svg width="24" height="24" viewBox="0 0 24 24" fill="none" xmlns="http://www.w3.org/2000/svg">
<g clip-path="url(#clip0_185_1990)">
<path d="M18 20.175C17.925 20.175 17.85 20.175 17.775 20.175C15.375 19.875 12.975 19.05 10.95 17.775C9.075 16.575 7.425 14.925 6.225 13.05C4.875 11.025 4.05 8.62505 3.825 6.22505C3.825 5.62505 3.975 5.02505 4.35 4.57505C4.725 4.12505 5.25 3.82505 5.85 3.75005C5.925 3.75005 6 3.75005 6.075 3.75005H8.325C9.45 3.75005 10.425 4.57505 10.575 5.70005C10.65 6.37505 10.8 7.05005 11.025 7.65005C11.325 8.47505 11.1 9.37505 10.5 10.05L9.975 10.575C10.875 11.925 12 13.125 13.425 14.025L13.95 13.5C14.55 12.9 15.525 12.675 16.35 12.975C16.95 13.2 17.625 13.35 18.3 13.425C19.425 13.575 20.25 14.55 20.25 15.675V17.925C20.25 18.525 20.025 19.125 19.575 19.5C19.125 19.875 18.6 20.175 18 20.175ZM8.325 5.25005H6.075C5.85 5.25005 5.625 5.40005 5.475 5.55005C5.4 5.70005 5.325 5.85005 5.325 6.07505C5.55 8.25005 6.3 10.35 7.5 12.225C8.625 13.95 10.05 15.45 11.775 16.5C13.65 17.7 15.75 18.45 17.925 18.675C18.225 18.675 18.375 18.6 18.525 18.45C18.675 18.3 18.75 18.15 18.75 17.925V15.675C18.75 15.3 18.45 15 18.075 14.925C17.325 14.85 16.575 14.625 15.825 14.325C15.525 14.25 15.225 14.25 15 14.475L14.025 15.45C13.8 15.675 13.425 15.75 13.125 15.6C11.1 14.475 9.45 12.825 8.325 10.8C8.25 10.5 8.325 10.125 8.55 9.90005L9.525 8.92505C9.675 8.77505 9.75 8.40005 9.675 8.17505C9.375 7.42505 9.225 6.67505 9.075 5.92505C9.075 5.55005 8.7 5.25005 8.325 5.25005ZM17.25 10.5C16.875 10.5 16.575 10.275 16.5 9.90005C16.275 8.70005 15.3 7.80005 14.1 7.50005C13.725 7.42505 13.425 7.05005 13.5 6.60005C13.575 6.22505 13.95 5.92505 14.4 6.00005C16.2 6.37505 17.625 7.72505 17.925 9.52505C18 9.90005 17.775 10.35 17.325 10.425C17.325 10.425 17.325 10.5 17.25 10.5ZM20.25 10.425C19.875 10.425 19.575 10.125 19.5 9.75005C19.2 6.97505 17.025 4.80005 14.175 4.42505C13.8 4.35005 13.5 3.97505 13.5 3.60005C13.5 3.22505 13.95 2.92505 14.325 2.92505C17.85 3.30005 20.55 6.00005 20.925 9.52505C21 9.90005 20.7 10.275 20.25 10.35C20.325 10.425 20.25 10.425 20.25 10.425Z" fill="#1EC6A7"/>
</g>
<defs>
<clipPath id="clip0_185_1990">
<rect width="18" height="18" fill="white" transform="translate(3 3)"/>
</clipPath>
</defs>
</svg>
