<svg width="513" height="42" viewBox="0 0 513 42" fill="none" xmlns="http://www.w3.org/2000/svg">
<path d="M6.13803 13.122C4.89003 13.122 3.82203 12.858 2.93403 12.33C2.04603 11.802 1.36203 11.052 0.882031 10.08C0.414031 9.108 0.180031 7.95 0.180031 6.606C0.180031 5.262 0.414031 4.11 0.882031 3.15C1.36203 2.178 2.04603 1.428 2.93403 0.899999C3.82203 0.371998 4.89003 0.107998 6.13803 0.107998C7.01403 0.107998 7.82403 0.245998 8.56803 0.521998C9.31203 0.797998 9.93603 1.2 10.44 1.728L9.86403 2.934C9.31203 2.418 8.73603 2.046 8.13603 1.818C7.54803 1.578 6.89403 1.458 6.17403 1.458C4.74603 1.458 3.65403 1.908 2.89803 2.808C2.14203 3.708 1.76403 4.974 1.76403 6.606C1.76403 8.238 2.14203 9.51 2.89803 10.422C3.65403 11.322 4.74603 11.772 6.17403 11.772C6.89403 11.772 7.54803 11.658 8.13603 11.43C8.73603 11.19 9.31203 10.812 9.86403 10.296L10.44 11.502C9.93603 12.018 9.31203 12.42 8.56803 12.708C7.82403 12.984 7.01403 13.122 6.13803 13.122ZM16.1116 13.122C15.2596 13.122 14.5216 12.936 13.8976 12.564C13.2736 12.192 12.7876 11.67 12.4396 10.998C12.1036 10.314 11.9356 9.51 11.9356 8.586C11.9356 7.662 12.1036 6.864 12.4396 6.192C12.7876 5.508 13.2736 4.98 13.8976 4.608C14.5216 4.236 15.2596 4.05 16.1116 4.05C16.9636 4.05 17.7016 4.236 18.3256 4.608C18.9496 4.98 19.4296 5.508 19.7656 6.192C20.1136 6.864 20.2876 7.662 20.2876 8.586C20.2876 9.51 20.1136 10.314 19.7656 10.998C19.4296 11.67 18.9496 12.192 18.3256 12.564C17.7016 12.936 16.9636 13.122 16.1116 13.122ZM16.1116 11.952C16.9396 11.952 17.5936 11.664 18.0736 11.088C18.5656 10.5 18.8116 9.66 18.8116 8.568C18.8116 7.488 18.5656 6.66 18.0736 6.084C17.5936 5.508 16.9396 5.22 16.1116 5.22C15.2956 5.22 14.6416 5.508 14.1496 6.084C13.6576 6.66 13.4116 7.488 13.4116 8.568C13.4116 9.66 13.6576 10.5 14.1496 11.088C14.6416 11.664 15.2956 11.952 16.1116 11.952ZM22.6529 12.96V4.212H24.1109V7.866H25.7489L28.6109 4.212H30.2129L26.9369 8.46L26.5229 7.992C26.8589 8.028 27.1529 8.112 27.4049 8.244C27.6569 8.376 27.8969 8.58 28.1249 8.856C28.3529 9.12 28.5989 9.48 28.8629 9.936L30.6629 12.96H29.0969L27.5129 10.314C27.3089 9.978 27.1169 9.72 26.9369 9.54C26.7569 9.348 26.5529 9.216 26.3249 9.144C26.0969 9.072 25.8149 9.036 25.4789 9.036H24.1109V12.96H22.6529ZM32.1455 16.2V4.212H33.5675V6.282H33.3875C33.5795 5.598 33.9575 5.058 34.5215 4.662C35.0975 4.254 35.7815 4.05 36.5735 4.05C37.3535 4.05 38.0315 4.236 38.6075 4.608C39.1955 4.968 39.6455 5.49 39.9575 6.174C40.2815 6.846 40.4435 7.65 40.4435 8.586C40.4435 9.51 40.2815 10.314 39.9575 10.998C39.6455 11.67 39.2015 12.192 38.6255 12.564C38.0495 12.936 37.3655 13.122 36.5735 13.122C35.7815 13.122 35.1035 12.924 34.5395 12.528C33.9755 12.12 33.5915 11.58 33.3875 10.908H33.6035V16.2H32.1455ZM36.2675 11.952C37.0955 11.952 37.7495 11.664 38.2295 11.088C38.7215 10.5 38.9675 9.666 38.9675 8.586C38.9675 7.494 38.7215 6.66 38.2295 6.084C37.7495 5.508 37.0955 5.22 36.2675 5.22C35.4515 5.22 34.7975 5.508 34.3055 6.084C33.8135 6.66 33.5675 7.494 33.5675 8.586C33.5675 9.666 33.8135 10.5 34.3055 11.088C34.7975 11.664 35.4515 11.952 36.2675 11.952ZM45.5694 13.122C44.9694 13.122 44.4294 13.008 43.9494 12.78C43.4814 12.54 43.1094 12.216 42.8334 11.808C42.5574 11.4 42.4194 10.944 42.4194 10.44C42.4194 9.792 42.5814 9.282 42.9054 8.91C43.2414 8.538 43.7874 8.274 44.5434 8.118C45.3114 7.962 46.3554 7.884 47.6754 7.884H48.4854V8.838H47.6934C46.9614 8.838 46.3494 8.862 45.8574 8.91C45.3654 8.958 44.9754 9.042 44.6874 9.162C44.3994 9.282 44.1954 9.438 44.0754 9.63C43.9554 9.822 43.8954 10.062 43.8954 10.35C43.8954 10.842 44.0634 11.244 44.3994 11.556C44.7474 11.868 45.2154 12.024 45.8034 12.024C46.2834 12.024 46.7034 11.91 47.0634 11.682C47.4354 11.454 47.7234 11.142 47.9274 10.746C48.1434 10.35 48.2514 9.894 48.2514 9.378V7.326C48.2514 6.582 48.1014 6.048 47.8014 5.724C47.5014 5.388 47.0094 5.22 46.3254 5.22C45.7974 5.22 45.2874 5.298 44.7954 5.454C44.3034 5.598 43.7994 5.838 43.2834 6.174L42.7794 5.112C43.0914 4.896 43.4454 4.71 43.8414 4.554C44.2374 4.386 44.6514 4.26 45.0834 4.176C45.5154 4.092 45.9294 4.05 46.3254 4.05C47.0814 4.05 47.7054 4.176 48.1974 4.428C48.6894 4.668 49.0554 5.04 49.2954 5.544C49.5354 6.036 49.6554 6.672 49.6554 7.452V12.96H48.2874V10.926H48.4494C48.3534 11.382 48.1674 11.772 47.8914 12.096C47.6274 12.42 47.2974 12.672 46.9014 12.852C46.5054 13.032 46.0614 13.122 45.5694 13.122ZM54.3185 12.96V5.382H51.1505V4.212H58.9625V5.382H55.7765V12.96H54.3185ZM60.4986 12.96V4.212H61.8306V11.574H61.3806L66.8886 4.212H68.1306V12.96H66.7986V5.58H67.2486L61.7406 12.96H60.4986ZM72.8283 12.96V5.382H69.6603V4.212H77.4723V5.382H74.2863V12.96H72.8283ZM82.9332 13.122C82.0092 13.122 81.2112 12.942 80.5392 12.582C79.8792 12.21 79.3632 11.688 78.9912 11.016C78.6312 10.344 78.4512 9.54 78.4512 8.604C78.4512 7.692 78.6312 6.9 78.9912 6.228C79.3512 5.544 79.8432 5.01 80.4672 4.626C81.1032 4.242 81.8352 4.05 82.6632 4.05C83.4552 4.05 84.1332 4.224 84.6972 4.572C85.2612 4.92 85.6932 5.412 85.9932 6.048C86.3052 6.684 86.4612 7.446 86.4612 8.334V8.892H79.5672V7.938H85.4892L85.2012 8.172C85.2012 7.212 84.9852 6.468 84.5532 5.94C84.1332 5.4 83.5152 5.13 82.6992 5.13C82.0872 5.13 81.5652 5.274 81.1332 5.562C80.7132 5.838 80.3952 6.228 80.1792 6.732C79.9632 7.224 79.8552 7.8 79.8552 8.46V8.568C79.8552 9.3 79.9692 9.918 80.1972 10.422C80.4372 10.926 80.7912 11.31 81.2592 11.574C81.7272 11.826 82.2852 11.952 82.9332 11.952C83.4492 11.952 83.9472 11.874 84.4272 11.718C84.9192 11.55 85.3812 11.28 85.8132 10.908L86.3172 11.934C85.9212 12.294 85.4172 12.582 84.8052 12.798C84.1932 13.014 83.5692 13.122 82.9332 13.122ZM96.2501 13.122C95.4941 13.122 94.7801 13.026 94.1081 12.834C93.4481 12.63 92.9141 12.348 92.5061 11.988L92.9741 10.962C93.3941 11.298 93.8861 11.556 94.4501 11.736C95.0141 11.904 95.6021 11.988 96.2141 11.988C97.0781 11.988 97.6961 11.862 98.0681 11.61C98.4521 11.358 98.6441 10.986 98.6441 10.494C98.6441 10.038 98.4881 9.69 98.1761 9.45C97.8641 9.198 97.4141 9.072 96.8261 9.072H94.7561V7.974H96.6461C97.1621 7.974 97.5701 7.854 97.8701 7.614C98.1821 7.374 98.3381 7.038 98.3381 6.606C98.3381 6.162 98.1701 5.814 97.8341 5.562C97.5101 5.31 96.9701 5.184 96.2141 5.184C95.6141 5.184 95.0621 5.262 94.5581 5.418C94.0541 5.562 93.5741 5.802 93.1181 6.138L92.6501 5.112C93.1421 4.752 93.7001 4.488 94.3241 4.32C94.9601 4.14 95.6501 4.05 96.3941 4.05C97.4981 4.05 98.3261 4.266 98.8781 4.698C99.4421 5.13 99.7241 5.736 99.7241 6.516C99.7241 7.068 99.5321 7.536 99.1481 7.92C98.7641 8.304 98.2541 8.532 97.6181 8.604V8.37C98.1101 8.382 98.5361 8.484 98.8961 8.676C99.2561 8.856 99.5321 9.108 99.7241 9.432C99.9281 9.744 100.03 10.116 100.03 10.548C100.03 11.328 99.7121 11.952 99.0761 12.42C98.4401 12.888 97.4981 13.122 96.2501 13.122ZM105.071 13.122C104.471 13.122 103.931 13.008 103.451 12.78C102.983 12.54 102.611 12.216 102.335 11.808C102.059 11.4 101.921 10.944 101.921 10.44C101.921 9.792 102.083 9.282 102.407 8.91C102.743 8.538 103.289 8.274 104.045 8.118C104.813 7.962 105.857 7.884 107.177 7.884H107.987V8.838H107.195C106.463 8.838 105.851 8.862 105.359 8.91C104.867 8.958 104.477 9.042 104.189 9.162C103.901 9.282 103.697 9.438 103.577 9.63C103.457 9.822 103.397 10.062 103.397 10.35C103.397 10.842 103.565 11.244 103.901 11.556C104.249 11.868 104.717 12.024 105.305 12.024C105.785 12.024 106.205 11.91 106.565 11.682C106.937 11.454 107.225 11.142 107.429 10.746C107.645 10.35 107.753 9.894 107.753 9.378V7.326C107.753 6.582 107.603 6.048 107.303 5.724C107.003 5.388 106.511 5.22 105.827 5.22C105.299 5.22 104.789 5.298 104.297 5.454C103.805 5.598 103.301 5.838 102.785 6.174L102.281 5.112C102.593 4.896 102.947 4.71 103.343 4.554C103.739 4.386 104.153 4.26 104.585 4.176C105.017 4.092 105.431 4.05 105.827 4.05C106.583 4.05 107.207 4.176 107.699 4.428C108.191 4.668 108.557 5.04 108.797 5.544C109.037 6.036 109.157 6.672 109.157 7.452V12.96H107.789V10.926H107.951C107.855 11.382 107.669 11.772 107.393 12.096C107.129 12.42 106.799 12.672 106.403 12.852C106.007 13.032 105.563 13.122 105.071 13.122ZM113.821 12.96V5.382H110.653V4.212H118.465V5.382H115.279V12.96H113.821ZM120.019 16.2V4.212H121.441V6.282H121.261C121.453 5.598 121.831 5.058 122.395 4.662C122.971 4.254 123.655 4.05 124.447 4.05C125.227 4.05 125.905 4.236 126.481 4.608C127.069 4.968 127.519 5.49 127.831 6.174C128.155 6.846 128.317 7.65 128.317 8.586C128.317 9.51 128.155 10.314 127.831 10.998C127.519 11.67 127.075 12.192 126.499 12.564C125.923 12.936 125.239 13.122 124.447 13.122C123.655 13.122 122.977 12.924 122.413 12.528C121.849 12.12 121.465 11.58 121.261 10.908H121.477V16.2H120.019ZM124.141 11.952C124.969 11.952 125.623 11.664 126.103 11.088C126.595 10.5 126.841 9.666 126.841 8.586C126.841 7.494 126.595 6.66 126.103 6.084C125.623 5.508 124.969 5.22 124.141 5.22C123.325 5.22 122.671 5.508 122.179 6.084C121.687 6.66 121.441 7.494 121.441 8.586C121.441 9.666 121.687 10.5 122.179 11.088C122.671 11.664 123.325 11.952 124.141 11.952ZM133.442 13.122C132.842 13.122 132.302 13.008 131.822 12.78C131.354 12.54 130.982 12.216 130.706 11.808C130.43 11.4 130.292 10.944 130.292 10.44C130.292 9.792 130.454 9.282 130.778 8.91C131.114 8.538 131.66 8.274 132.416 8.118C133.184 7.962 134.228 7.884 135.548 7.884H136.358V8.838H135.566C134.834 8.838 134.222 8.862 133.73 8.91C133.238 8.958 132.848 9.042 132.56 9.162C132.272 9.282 132.068 9.438 131.948 9.63C131.828 9.822 131.768 10.062 131.768 10.35C131.768 10.842 131.936 11.244 132.272 11.556C132.62 11.868 133.088 12.024 133.676 12.024C134.156 12.024 134.576 11.91 134.936 11.682C135.308 11.454 135.596 11.142 135.8 10.746C136.016 10.35 136.124 9.894 136.124 9.378V7.326C136.124 6.582 135.974 6.048 135.674 5.724C135.374 5.388 134.882 5.22 134.198 5.22C133.67 5.22 133.16 5.298 132.668 5.454C132.176 5.598 131.672 5.838 131.156 6.174L130.652 5.112C130.964 4.896 131.318 4.71 131.714 4.554C132.11 4.386 132.524 4.26 132.956 4.176C133.388 4.092 133.802 4.05 134.198 4.05C134.954 4.05 135.578 4.176 136.07 4.428C136.562 4.668 136.928 5.04 137.168 5.544C137.408 6.036 137.528 6.672 137.528 7.452V12.96H136.16V10.926H136.322C136.226 11.382 136.04 11.772 135.764 12.096C135.5 12.42 135.17 12.672 134.774 12.852C134.378 13.032 133.934 13.122 133.442 13.122ZM142.192 12.96V5.382H139.024V4.212H146.836V5.382H143.65V12.96H142.192ZM148.372 12.96V4.212H149.83V7.326H152.476C153.592 7.326 154.438 7.572 155.014 8.064C155.59 8.544 155.878 9.228 155.878 10.116C155.878 10.704 155.74 11.214 155.464 11.646C155.2 12.066 154.816 12.39 154.312 12.618C153.82 12.846 153.208 12.96 152.476 12.96H148.372ZM149.83 11.916H152.332C153.016 11.916 153.544 11.772 153.916 11.484C154.288 11.196 154.474 10.746 154.474 10.134C154.474 9.522 154.288 9.078 153.916 8.802C153.544 8.514 153.016 8.37 152.332 8.37H149.83V11.916ZM157.174 12.96V4.212H158.632V12.96H157.174ZM166.143 12.96V4.212H167.601V7.848H172.371V4.212H173.829V12.96H172.371V9.036H167.601V12.96H166.143ZM179.48 13.122C178.88 13.122 178.34 13.008 177.86 12.78C177.392 12.54 177.02 12.216 176.744 11.808C176.468 11.4 176.33 10.944 176.33 10.44C176.33 9.792 176.492 9.282 176.816 8.91C177.152 8.538 177.698 8.274 178.454 8.118C179.222 7.962 180.266 7.884 181.586 7.884H182.396V8.838H181.604C180.872 8.838 180.26 8.862 179.768 8.91C179.276 8.958 178.886 9.042 178.598 9.162C178.31 9.282 178.106 9.438 177.986 9.63C177.866 9.822 177.806 10.062 177.806 10.35C177.806 10.842 177.974 11.244 178.31 11.556C178.658 11.868 179.126 12.024 179.714 12.024C180.194 12.024 180.614 11.91 180.974 11.682C181.346 11.454 181.634 11.142 181.838 10.746C182.054 10.35 182.162 9.894 182.162 9.378V7.326C182.162 6.582 182.012 6.048 181.712 5.724C181.412 5.388 180.92 5.22 180.236 5.22C179.708 5.22 179.198 5.298 178.706 5.454C178.214 5.598 177.71 5.838 177.194 6.174L176.69 5.112C177.002 4.896 177.356 4.71 177.752 4.554C178.148 4.386 178.562 4.26 178.994 4.176C179.426 4.092 179.84 4.05 180.236 4.05C180.992 4.05 181.616 4.176 182.108 4.428C182.6 4.668 182.966 5.04 183.206 5.544C183.446 6.036 183.566 6.672 183.566 7.452V12.96H182.198V10.926H182.36C182.264 11.382 182.078 11.772 181.802 12.096C181.538 12.42 181.208 12.672 180.812 12.852C180.416 13.032 179.972 13.122 179.48 13.122ZM194.688 13.122C193.836 13.122 193.098 12.936 192.474 12.564C191.85 12.192 191.364 11.67 191.016 10.998C190.68 10.314 190.512 9.51 190.512 8.586C190.512 7.662 190.68 6.864 191.016 6.192C191.364 5.508 191.85 4.98 192.474 4.608C193.098 4.236 193.836 4.05 194.688 4.05C195.54 4.05 196.278 4.236 196.902 4.608C197.526 4.98 198.006 5.508 198.342 6.192C198.69 6.864 198.864 7.662 198.864 8.586C198.864 9.51 198.69 10.314 198.342 10.998C198.006 11.67 197.526 12.192 196.902 12.564C196.278 12.936 195.54 13.122 194.688 13.122ZM194.688 11.952C195.516 11.952 196.17 11.664 196.65 11.088C197.142 10.5 197.388 9.66 197.388 8.568C197.388 7.488 197.142 6.66 196.65 6.084C196.17 5.508 195.516 5.22 194.688 5.22C193.872 5.22 193.218 5.508 192.726 6.084C192.234 6.66 191.988 7.488 191.988 8.568C191.988 9.66 192.234 10.5 192.726 11.088C193.218 11.664 193.872 11.952 194.688 11.952ZM204.919 13.122C204.055 13.122 203.305 12.936 202.669 12.564C202.045 12.18 201.559 11.616 201.211 10.872C200.875 10.128 200.707 9.216 200.707 8.136V6.786C200.707 6.09 200.761 5.466 200.869 4.914C200.977 4.35 201.145 3.852 201.373 3.42C201.601 2.988 201.883 2.61 202.219 2.286C202.555 1.962 202.945 1.686 203.389 1.458C203.845 1.23 204.355 1.038 204.919 0.881999L208.033 -1.43051e-06L208.519 1.206L205.027 2.142C204.055 2.406 203.323 2.88 202.831 3.564C202.351 4.236 202.111 5.064 202.111 6.048V6.75H201.859C202.003 6.222 202.231 5.766 202.543 5.382C202.855 4.998 203.239 4.704 203.695 4.5C204.163 4.284 204.679 4.176 205.243 4.176C205.819 4.176 206.335 4.278 206.791 4.482C207.259 4.686 207.661 4.986 207.997 5.382C208.333 5.766 208.591 6.228 208.771 6.768C208.963 7.308 209.059 7.92 209.059 8.604C209.059 9.516 208.885 10.314 208.537 10.998C208.201 11.67 207.721 12.192 207.097 12.564C206.485 12.936 205.759 13.122 204.919 13.122ZM204.865 11.952C205.717 11.952 206.383 11.67 206.863 11.106C207.343 10.53 207.583 9.708 207.583 8.64C207.583 7.596 207.343 6.786 206.863 6.21C206.383 5.634 205.723 5.346 204.883 5.346C204.043 5.346 203.383 5.634 202.903 6.21C202.423 6.774 202.183 7.542 202.183 8.514C202.183 9.642 202.417 10.5 202.885 11.088C203.365 11.664 204.025 11.952 204.865 11.952ZM215.384 13.122C214.46 13.122 213.662 12.942 212.99 12.582C212.33 12.21 211.814 11.688 211.442 11.016C211.082 10.344 210.902 9.54 210.902 8.604C210.902 7.692 211.082 6.9 211.442 6.228C211.802 5.544 212.294 5.01 212.918 4.626C213.554 4.242 214.286 4.05 215.114 4.05C215.906 4.05 216.584 4.224 217.148 4.572C217.712 4.92 218.144 5.412 218.444 6.048C218.756 6.684 218.912 7.446 218.912 8.334V8.892H212.018V7.938H217.94L217.652 8.172C217.652 7.212 217.436 6.468 217.004 5.94C216.584 5.4 215.966 5.13 215.15 5.13C214.538 5.13 214.016 5.274 213.584 5.562C213.164 5.838 212.846 6.228 212.63 6.732C212.414 7.224 212.306 7.8 212.306 8.46V8.568C212.306 9.3 212.42 9.918 212.648 10.422C212.888 10.926 213.242 11.31 213.71 11.574C214.178 11.826 214.736 11.952 215.384 11.952C215.9 11.952 216.398 11.874 216.878 11.718C217.37 11.55 217.832 11.28 218.264 10.908L218.768 11.934C218.372 12.294 217.868 12.582 217.256 12.798C216.644 13.014 216.02 13.122 215.384 13.122ZM224.906 13.122C224.03 13.122 223.274 12.93 222.638 12.546C222.002 12.162 221.51 11.628 221.162 10.944C220.826 10.248 220.658 9.444 220.658 8.532C220.658 7.608 220.826 6.81 221.162 6.138C221.51 5.466 222.002 4.95 222.638 4.59C223.274 4.23 224.03 4.05 224.906 4.05C225.446 4.05 225.98 4.146 226.508 4.338C227.036 4.53 227.474 4.8 227.822 5.148L227.318 6.21C226.97 5.874 226.586 5.628 226.166 5.472C225.758 5.316 225.368 5.238 224.996 5.238C224.084 5.238 223.382 5.526 222.89 6.102C222.398 6.666 222.152 7.482 222.152 8.55C222.152 9.594 222.398 10.422 222.89 11.034C223.382 11.634 224.084 11.934 224.996 11.934C225.368 11.934 225.758 11.856 226.166 11.7C226.586 11.544 226.97 11.292 227.318 10.944L227.822 12.006C227.474 12.354 227.03 12.63 226.49 12.834C225.962 13.026 225.434 13.122 224.906 13.122ZM229.688 12.96V4.212H237.32V12.96H235.862V5.382H231.146V12.96H229.688ZM244.16 13.122C243.236 13.122 242.438 12.942 241.766 12.582C241.106 12.21 240.59 11.688 240.218 11.016C239.858 10.344 239.678 9.54 239.678 8.604C239.678 7.692 239.858 6.9 240.218 6.228C240.578 5.544 241.07 5.01 241.694 4.626C242.33 4.242 243.062 4.05 243.89 4.05C244.682 4.05 245.36 4.224 245.924 4.572C246.488 4.92 246.92 5.412 247.22 6.048C247.532 6.684 247.688 7.446 247.688 8.334V8.892H240.794V7.938H246.716L246.428 8.172C246.428 7.212 246.212 6.468 245.78 5.94C245.36 5.4 244.742 5.13 243.926 5.13C243.314 5.13 242.792 5.274 242.36 5.562C241.94 5.838 241.622 6.228 241.406 6.732C241.19 7.224 241.082 7.8 241.082 8.46V8.568C241.082 9.3 241.196 9.918 241.424 10.422C241.664 10.926 242.018 11.31 242.486 11.574C242.954 11.826 243.512 11.952 244.16 11.952C244.676 11.952 245.174 11.874 245.654 11.718C246.146 11.55 246.608 11.28 247.04 10.908L247.544 11.934C247.148 12.294 246.644 12.582 246.032 12.798C245.42 13.014 244.796 13.122 244.16 13.122ZM255.572 12.96V9.414C255.236 9.618 254.87 9.774 254.474 9.882C254.09 9.978 253.682 10.026 253.25 10.026C252.422 10.026 251.732 9.894 251.18 9.63C250.64 9.366 250.238 8.97 249.974 8.442C249.71 7.902 249.578 7.23 249.578 6.426V4.212H251.036V6.318C251.036 6.894 251.12 7.368 251.288 7.74C251.456 8.1 251.714 8.37 252.062 8.55C252.41 8.718 252.866 8.802 253.43 8.802C253.862 8.802 254.246 8.754 254.582 8.658C254.918 8.562 255.242 8.406 255.554 8.19V4.212H257.012V12.96H255.572ZM263.847 13.122C262.923 13.122 262.125 12.942 261.453 12.582C260.793 12.21 260.277 11.688 259.905 11.016C259.545 10.344 259.365 9.54 259.365 8.604C259.365 7.692 259.545 6.9 259.905 6.228C260.265 5.544 260.757 5.01 261.381 4.626C262.017 4.242 262.749 4.05 263.577 4.05C264.369 4.05 265.047 4.224 265.611 4.572C266.175 4.92 266.607 5.412 266.907 6.048C267.219 6.684 267.375 7.446 267.375 8.334V8.892H260.481V7.938H266.403L266.115 8.172C266.115 7.212 265.899 6.468 265.467 5.94C265.047 5.4 264.429 5.13 263.613 5.13C263.001 5.13 262.479 5.274 262.047 5.562C261.627 5.838 261.309 6.228 261.093 6.732C260.877 7.224 260.769 7.8 260.769 8.46V8.568C260.769 9.3 260.883 9.918 261.111 10.422C261.351 10.926 261.705 11.31 262.173 11.574C262.641 11.826 263.199 11.952 263.847 11.952C264.363 11.952 264.861 11.874 265.341 11.718C265.833 11.55 266.295 11.28 266.727 10.908L267.231 11.934C266.835 12.294 266.331 12.582 265.719 12.798C265.107 13.014 264.483 13.122 263.847 13.122ZM269.643 12.96V4.212H271.101V7.848H275.871V4.212H277.329V12.96H275.871V9.036H271.101V12.96H269.643ZM280.208 12.96V4.212H281.54V11.574H281.09L286.598 4.212H287.84V12.96H286.508V5.58H286.958L281.45 12.96H280.208ZM294.679 13.122C293.755 13.122 292.957 12.942 292.285 12.582C291.625 12.21 291.109 11.688 290.737 11.016C290.377 10.344 290.197 9.54 290.197 8.604C290.197 7.692 290.377 6.9 290.737 6.228C291.097 5.544 291.589 5.01 292.213 4.626C292.849 4.242 293.581 4.05 294.409 4.05C295.201 4.05 295.879 4.224 296.443 4.572C297.007 4.92 297.439 5.412 297.739 6.048C298.051 6.684 298.207 7.446 298.207 8.334V8.892H291.313V7.938H297.235L296.947 8.172C296.947 7.212 296.731 6.468 296.299 5.94C295.879 5.4 295.261 5.13 294.445 5.13C293.833 5.13 293.311 5.274 292.879 5.562C292.459 5.838 292.141 6.228 291.925 6.732C291.709 7.224 291.601 7.8 291.601 8.46V8.568C291.601 9.3 291.715 9.918 291.943 10.422C292.183 10.926 292.537 11.31 293.005 11.574C293.473 11.826 294.031 11.952 294.679 11.952C295.195 11.952 295.693 11.874 296.173 11.718C296.665 11.55 297.127 11.28 297.559 10.908L298.063 11.934C297.667 12.294 297.163 12.582 296.551 12.798C295.939 13.014 295.315 13.122 294.679 13.122ZM305.098 12.96V4.212H306.43V11.574H305.98L311.488 4.212H312.73V12.96H311.398V5.58H311.848L306.34 12.96H305.098ZM315.61 12.96V4.212H317.068V7.848H321.838V4.212H323.296V12.96H321.838V9.036H317.068V12.96H315.61ZM331.16 16.2V11.034H331.322C331.154 11.694 330.854 12.21 330.422 12.582C329.99 12.942 329.456 13.122 328.82 13.122C328.184 13.122 327.626 12.936 327.146 12.564C326.678 12.192 326.312 11.664 326.048 10.98C325.784 10.296 325.652 9.498 325.652 8.586C325.652 7.65 325.784 6.846 326.048 6.174C326.312 5.49 326.678 4.968 327.146 4.608C327.626 4.236 328.184 4.05 328.82 4.05C329.468 4.05 330.002 4.236 330.422 4.608C330.854 4.968 331.154 5.478 331.322 6.138H331.16V0.269998H332.618V6.138H332.438C332.618 5.478 332.918 4.968 333.338 4.608C333.77 4.236 334.31 4.05 334.958 4.05C335.594 4.05 336.146 4.236 336.614 4.608C337.094 4.968 337.466 5.49 337.73 6.174C337.994 6.846 338.126 7.65 338.126 8.586C338.126 9.498 337.994 10.296 337.73 10.98C337.466 11.664 337.1 12.192 336.632 12.564C336.164 12.936 335.606 13.122 334.958 13.122C334.322 13.122 333.788 12.942 333.356 12.582C332.924 12.21 332.618 11.694 332.438 11.034H332.618V16.2H331.16ZM329.144 11.97C329.576 11.97 329.942 11.844 330.242 11.592C330.542 11.328 330.77 10.944 330.926 10.44C331.094 9.936 331.178 9.318 331.178 8.586C331.178 7.854 331.094 7.236 330.926 6.732C330.77 6.228 330.536 5.85 330.224 5.598C329.924 5.334 329.564 5.202 329.144 5.202C328.52 5.202 328.022 5.49 327.65 6.066C327.29 6.642 327.11 7.482 327.11 8.586C327.11 9.702 327.29 10.548 327.65 11.124C328.022 11.688 328.52 11.97 329.144 11.97ZM334.616 11.97C335.252 11.97 335.75 11.688 336.11 11.124C336.482 10.548 336.668 9.702 336.668 8.586C336.668 7.482 336.482 6.642 336.11 6.066C335.738 5.49 335.24 5.202 334.616 5.202C334.196 5.202 333.836 5.334 333.536 5.598C333.236 5.85 333.002 6.228 332.834 6.732C332.678 7.236 332.6 7.854 332.6 8.586C332.6 9.318 332.678 9.936 332.834 10.44C333.002 10.944 333.236 11.328 333.536 11.592C333.836 11.844 334.196 11.97 334.616 11.97ZM344.137 13.122C343.285 13.122 342.547 12.936 341.923 12.564C341.299 12.192 340.813 11.67 340.465 10.998C340.129 10.314 339.961 9.51 339.961 8.586C339.961 7.662 340.129 6.864 340.465 6.192C340.813 5.508 341.299 4.98 341.923 4.608C342.547 4.236 343.285 4.05 344.137 4.05C344.989 4.05 345.727 4.236 346.351 4.608C346.975 4.98 347.455 5.508 347.791 6.192C348.139 6.864 348.313 7.662 348.313 8.586C348.313 9.51 348.139 10.314 347.791 10.998C347.455 11.67 346.975 12.192 346.351 12.564C345.727 12.936 344.989 13.122 344.137 13.122ZM344.137 11.952C344.965 11.952 345.619 11.664 346.099 11.088C346.591 10.5 346.837 9.66 346.837 8.568C346.837 7.488 346.591 6.66 346.099 6.084C345.619 5.508 344.965 5.22 344.137 5.22C343.321 5.22 342.667 5.508 342.175 6.084C341.683 6.66 341.437 7.488 341.437 8.568C341.437 9.66 341.683 10.5 342.175 11.088C342.667 11.664 343.321 11.952 344.137 11.952ZM350.696 16.2V4.212H352.118V6.282H351.938C352.13 5.598 352.508 5.058 353.072 4.662C353.648 4.254 354.332 4.05 355.124 4.05C355.904 4.05 356.582 4.236 357.158 4.608C357.746 4.968 358.196 5.49 358.508 6.174C358.832 6.846 358.994 7.65 358.994 8.586C358.994 9.51 358.832 10.314 358.508 10.998C358.196 11.67 357.752 12.192 357.176 12.564C356.6 12.936 355.916 13.122 355.124 13.122C354.332 13.122 353.654 12.924 353.09 12.528C352.526 12.12 352.142 11.58 351.938 10.908H352.154V16.2H350.696ZM354.818 11.952C355.646 11.952 356.3 11.664 356.78 11.088C357.272 10.5 357.518 9.666 357.518 8.586C357.518 7.494 357.272 6.66 356.78 6.084C356.3 5.508 355.646 5.22 354.818 5.22C354.002 5.22 353.348 5.508 352.856 6.084C352.364 6.66 352.118 7.494 352.118 8.586C352.118 9.666 352.364 10.5 352.856 11.088C353.348 11.664 354.002 11.952 354.818 11.952ZM361.348 12.96V4.212H362.554L365.848 10.062L369.142 4.212H370.33V12.96H369.034V5.886H369.448L366.208 11.556H365.47L362.23 5.886H362.644V12.96H361.348ZM375.985 13.122C375.385 13.122 374.845 13.008 374.365 12.78C373.897 12.54 373.525 12.216 373.249 11.808C372.973 11.4 372.835 10.944 372.835 10.44C372.835 9.792 372.997 9.282 373.321 8.91C373.657 8.538 374.203 8.274 374.959 8.118C375.727 7.962 376.771 7.884 378.091 7.884H378.901V8.838H378.109C377.377 8.838 376.765 8.862 376.273 8.91C375.781 8.958 375.391 9.042 375.103 9.162C374.815 9.282 374.611 9.438 374.491 9.63C374.371 9.822 374.311 10.062 374.311 10.35C374.311 10.842 374.479 11.244 374.815 11.556C375.163 11.868 375.631 12.024 376.219 12.024C376.699 12.024 377.119 11.91 377.479 11.682C377.851 11.454 378.139 11.142 378.343 10.746C378.559 10.35 378.667 9.894 378.667 9.378V7.326C378.667 6.582 378.517 6.048 378.217 5.724C377.917 5.388 377.425 5.22 376.741 5.22C376.213 5.22 375.703 5.298 375.211 5.454C374.719 5.598 374.215 5.838 373.699 6.174L373.195 5.112C373.507 4.896 373.861 4.71 374.257 4.554C374.653 4.386 375.067 4.26 375.499 4.176C375.931 4.092 376.345 4.05 376.741 4.05C377.497 4.05 378.121 4.176 378.613 4.428C379.105 4.668 379.471 5.04 379.711 5.544C379.951 6.036 380.071 6.672 380.071 7.452V12.96H378.703V10.926H378.865C378.769 11.382 378.583 11.772 378.307 12.096C378.043 12.42 377.713 12.672 377.317 12.852C376.921 13.032 376.477 13.122 375.985 13.122ZM390.477 15.3V12.96H382.917V4.212H384.375V11.79H388.893V4.212H390.351V11.79H391.737V15.3H390.477ZM393.674 12.96V4.212H395.006V11.574H394.556L400.064 4.212H401.306V12.96H399.974V5.58H400.424L394.916 12.96H393.674ZM407.84 13.122C406.988 13.122 406.25 12.936 405.626 12.564C405.002 12.192 404.516 11.67 404.168 10.998C403.832 10.314 403.664 9.51 403.664 8.586C403.664 7.662 403.832 6.864 404.168 6.192C404.516 5.508 405.002 4.98 405.626 4.608C406.25 4.236 406.988 4.05 407.84 4.05C408.692 4.05 409.43 4.236 410.054 4.608C410.678 4.98 411.158 5.508 411.494 6.192C411.842 6.864 412.016 7.662 412.016 8.586C412.016 9.51 411.842 10.314 411.494 10.998C411.158 11.67 410.678 12.192 410.054 12.564C409.43 12.936 408.692 13.122 407.84 13.122ZM407.84 11.952C408.668 11.952 409.322 11.664 409.802 11.088C410.294 10.5 410.54 9.66 410.54 8.568C410.54 7.488 410.294 6.66 409.802 6.084C409.322 5.508 408.668 5.22 407.84 5.22C407.024 5.22 406.37 5.508 405.878 6.084C405.386 6.66 405.14 7.488 405.14 8.568C405.14 9.66 405.386 10.5 405.878 11.088C406.37 11.664 407.024 11.952 407.84 11.952ZM414.381 12.96V4.212H415.839V7.848H420.609V4.212H422.067V12.96H420.609V9.036H415.839V12.96H414.381ZM424.946 12.96V4.212H426.404V7.848H431.174V4.212H432.632V12.96H431.174V9.036H426.404V12.96H424.946ZM439.164 13.122C438.312 13.122 437.574 12.936 436.95 12.564C436.326 12.192 435.84 11.67 435.492 10.998C435.156 10.314 434.988 9.51 434.988 8.586C434.988 7.662 435.156 6.864 435.492 6.192C435.84 5.508 436.326 4.98 436.95 4.608C437.574 4.236 438.312 4.05 439.164 4.05C440.016 4.05 440.754 4.236 441.378 4.608C442.002 4.98 442.482 5.508 442.818 6.192C443.166 6.864 443.34 7.662 443.34 8.586C443.34 9.51 443.166 10.314 442.818 10.998C442.482 11.67 442.002 12.192 441.378 12.564C440.754 12.936 440.016 13.122 439.164 13.122ZM439.164 11.952C439.992 11.952 440.646 11.664 441.126 11.088C441.618 10.5 441.864 9.66 441.864 8.568C441.864 7.488 441.618 6.66 441.126 6.084C440.646 5.508 439.992 5.22 439.164 5.22C438.348 5.22 437.694 5.508 437.202 6.084C436.71 6.66 436.464 7.488 436.464 8.568C436.464 9.66 436.71 10.5 437.202 11.088C437.694 11.664 438.348 11.952 439.164 11.952ZM445.706 12.96V4.212H447.038V11.574H446.588L452.096 4.212H453.338V12.96H452.006V5.58H452.456L446.948 12.96H445.706ZM449.522 3.078C449.042 3.078 448.598 2.994 448.19 2.826C447.782 2.646 447.428 2.382 447.128 2.034C446.828 1.686 446.6 1.248 446.444 0.719999L447.29 0.395999C447.506 0.995999 447.794 1.44 448.154 1.728C448.526 2.016 448.982 2.16 449.522 2.16C450.074 2.16 450.524 2.028 450.872 1.764C451.232 1.5 451.556 1.05 451.844 0.413999L452.672 0.719999C452.456 1.296 452.186 1.758 451.862 2.106C451.55 2.442 451.196 2.688 450.8 2.844C450.404 3 449.978 3.078 449.522 3.078ZM4.21203 38.122C3.34803 38.122 2.59803 37.936 1.96203 37.564C1.33803 37.18 0.852031 36.616 0.504031 35.872C0.168031 35.128 3.12999e-05 34.216 3.12999e-05 33.136V31.786C3.12999e-05 31.09 0.0540313 30.466 0.162031 29.914C0.270031 29.35 0.438031 28.852 0.666031 28.42C0.894031 27.988 1.17603 27.61 1.51203 27.286C1.84803 26.962 2.23803 26.686 2.68203 26.458C3.13803 26.23 3.64803 26.038 4.21203 25.882L7.32603 25L7.81203 26.206L4.32003 27.142C3.34803 27.406 2.61603 27.88 2.12403 28.564C1.64403 29.236 1.40403 30.064 1.40403 31.048V31.75H1.15203C1.29603 31.222 1.52403 30.766 1.83603 30.382C2.14803 29.998 2.53203 29.704 2.98803 29.5C3.45603 29.284 3.97203 29.176 4.53603 29.176C5.11203 29.176 5.62803 29.278 6.08403 29.482C6.55203 29.686 6.95403 29.986 7.29003 30.382C7.62603 30.766 7.88403 31.228 8.06403 31.768C8.25603 32.308 8.35203 32.92 8.35203 33.604C8.35203 34.516 8.17803 35.314 7.83003 35.998C7.49403 36.67 7.01403 37.192 6.39003 37.564C5.77803 37.936 5.05203 38.122 4.21203 38.122ZM4.15803 36.952C5.01003 36.952 5.67603 36.67 6.15603 36.106C6.63603 35.53 6.87603 34.708 6.87603 33.64C6.87603 32.596 6.63603 31.786 6.15603 31.21C5.67603 30.634 5.01603 30.346 4.17603 30.346C3.33603 30.346 2.67603 30.634 2.19603 31.21C1.71603 31.774 1.47603 32.542 1.47603 33.514C1.47603 34.642 1.71003 35.5 2.17803 36.088C2.65803 36.664 3.31803 36.952 4.15803 36.952ZM14.6773 38.122C13.7533 38.122 12.9553 37.942 12.2833 37.582C11.6233 37.21 11.1073 36.688 10.7353 36.016C10.3753 35.344 10.1953 34.54 10.1953 33.604C10.1953 32.692 10.3753 31.9 10.7353 31.228C11.0953 30.544 11.5873 30.01 12.2113 29.626C12.8473 29.242 13.5793 29.05 14.4073 29.05C15.1993 29.05 15.8773 29.224 16.4413 29.572C17.0053 29.92 17.4373 30.412 17.7373 31.048C18.0493 31.684 18.2053 32.446 18.2053 33.334V33.892H11.3113V32.938H17.2333L16.9453 33.172C16.9453 32.212 16.7293 31.468 16.2973 30.94C15.8773 30.4 15.2593 30.13 14.4433 30.13C13.8313 30.13 13.3093 30.274 12.8773 30.562C12.4573 30.838 12.1393 31.228 11.9233 31.732C11.7073 32.224 11.5993 32.8 11.5993 33.46V33.568C11.5993 34.3 11.7133 34.918 11.9413 35.422C12.1813 35.926 12.5353 36.31 13.0033 36.574C13.4713 36.826 14.0293 36.952 14.6773 36.952C15.1933 36.952 15.6913 36.874 16.1713 36.718C16.6633 36.55 17.1253 36.28 17.5573 35.908L18.0613 36.934C17.6653 37.294 17.1613 37.582 16.5493 37.798C15.9373 38.014 15.3133 38.122 14.6773 38.122ZM23.3712 38.122C22.6152 38.122 21.9012 38.026 21.2292 37.834C20.5692 37.63 20.0352 37.348 19.6272 36.988L20.0952 35.962C20.5152 36.298 21.0072 36.556 21.5712 36.736C22.1352 36.904 22.7232 36.988 23.3352 36.988C24.1992 36.988 24.8172 36.862 25.1892 36.61C25.5732 36.358 25.7652 35.986 25.7652 35.494C25.7652 35.038 25.6092 34.69 25.2972 34.45C24.9852 34.198 24.5352 34.072 23.9472 34.072H21.8772V32.974H23.7672C24.2832 32.974 24.6912 32.854 24.9912 32.614C25.3032 32.374 25.4592 32.038 25.4592 31.606C25.4592 31.162 25.2912 30.814 24.9552 30.562C24.6312 30.31 24.0912 30.184 23.3352 30.184C22.7352 30.184 22.1832 30.262 21.6792 30.418C21.1752 30.562 20.6952 30.802 20.2392 31.138L19.7712 30.112C20.2632 29.752 20.8212 29.488 21.4452 29.32C22.0812 29.14 22.7712 29.05 23.5152 29.05C24.6192 29.05 25.4472 29.266 25.9992 29.698C26.5632 30.13 26.8452 30.736 26.8452 31.516C26.8452 32.068 26.6532 32.536 26.2692 32.92C25.8852 33.304 25.3752 33.532 24.7392 33.604V33.37C25.2312 33.382 25.6572 33.484 26.0172 33.676C26.3772 33.856 26.6532 34.108 26.8452 34.432C27.0492 34.744 27.1512 35.116 27.1512 35.548C27.1512 36.328 26.8332 36.952 26.1972 37.42C25.5612 37.888 24.6192 38.122 23.3712 38.122ZM33.0745 38.122C32.2225 38.122 31.4845 37.936 30.8605 37.564C30.2365 37.192 29.7505 36.67 29.4025 35.998C29.0665 35.314 28.8985 34.51 28.8985 33.586C28.8985 32.662 29.0665 31.864 29.4025 31.192C29.7505 30.508 30.2365 29.98 30.8605 29.608C31.4845 29.236 32.2225 29.05 33.0745 29.05C33.9265 29.05 34.6645 29.236 35.2885 29.608C35.9125 29.98 36.3925 30.508 36.7285 31.192C37.0765 31.864 37.2505 32.662 37.2505 33.586C37.2505 34.51 37.0765 35.314 36.7285 35.998C36.3925 36.67 35.9125 37.192 35.2885 37.564C34.6645 37.936 33.9265 38.122 33.0745 38.122ZM33.0745 36.952C33.9025 36.952 34.5565 36.664 35.0365 36.088C35.5285 35.5 35.7745 34.66 35.7745 33.568C35.7745 32.488 35.5285 31.66 35.0365 31.084C34.5565 30.508 33.9025 30.22 33.0745 30.22C32.2585 30.22 31.6045 30.508 31.1125 31.084C30.6205 31.66 30.3745 32.488 30.3745 33.568C30.3745 34.66 30.6205 35.5 31.1125 36.088C31.6045 36.664 32.2585 36.952 33.0745 36.952ZM39.6158 37.96V29.212H47.2478V37.96H45.7898V30.382H41.0738V37.96H39.6158ZM52.8995 38.122C52.2995 38.122 51.7595 38.008 51.2795 37.78C50.8115 37.54 50.4395 37.216 50.1635 36.808C49.8875 36.4 49.7495 35.944 49.7495 35.44C49.7495 34.792 49.9115 34.282 50.2355 33.91C50.5715 33.538 51.1175 33.274 51.8735 33.118C52.6415 32.962 53.6855 32.884 55.0055 32.884H55.8155V33.838H55.0235C54.2915 33.838 53.6795 33.862 53.1875 33.91C52.6955 33.958 52.3055 34.042 52.0175 34.162C51.7295 34.282 51.5255 34.438 51.4055 34.63C51.2855 34.822 51.2255 35.062 51.2255 35.35C51.2255 35.842 51.3935 36.244 51.7295 36.556C52.0775 36.868 52.5455 37.024 53.1335 37.024C53.6135 37.024 54.0335 36.91 54.3935 36.682C54.7655 36.454 55.0535 36.142 55.2575 35.746C55.4735 35.35 55.5815 34.894 55.5815 34.378V32.326C55.5815 31.582 55.4315 31.048 55.1315 30.724C54.8315 30.388 54.3395 30.22 53.6555 30.22C53.1275 30.22 52.6175 30.298 52.1255 30.454C51.6335 30.598 51.1295 30.838 50.6135 31.174L50.1095 30.112C50.4215 29.896 50.7755 29.71 51.1715 29.554C51.5675 29.386 51.9815 29.26 52.4135 29.176C52.8455 29.092 53.2595 29.05 53.6555 29.05C54.4115 29.05 55.0355 29.176 55.5275 29.428C56.0195 29.668 56.3855 30.04 56.6255 30.544C56.8655 31.036 56.9855 31.672 56.9855 32.452V37.96H55.6175V35.926H55.7795C55.6835 36.382 55.4975 36.772 55.2215 37.096C54.9575 37.42 54.6275 37.672 54.2315 37.852C53.8355 38.032 53.3915 38.122 52.8995 38.122ZM63.5566 38.122C62.6806 38.122 61.9246 37.93 61.2886 37.546C60.6526 37.162 60.1606 36.628 59.8126 35.944C59.4766 35.248 59.3086 34.444 59.3086 33.532C59.3086 32.608 59.4766 31.81 59.8126 31.138C60.1606 30.466 60.6526 29.95 61.2886 29.59C61.9246 29.23 62.6806 29.05 63.5566 29.05C64.0966 29.05 64.6306 29.146 65.1586 29.338C65.6866 29.53 66.1246 29.8 66.4726 30.148L65.9686 31.21C65.6206 30.874 65.2366 30.628 64.8166 30.472C64.4086 30.316 64.0186 30.238 63.6466 30.238C62.7346 30.238 62.0326 30.526 61.5406 31.102C61.0486 31.666 60.8026 32.482 60.8026 33.55C60.8026 34.594 61.0486 35.422 61.5406 36.034C62.0326 36.634 62.7346 36.934 63.6466 36.934C64.0186 36.934 64.4086 36.856 64.8166 36.7C65.2366 36.544 65.6206 36.292 65.9686 35.944L66.4726 37.006C66.1246 37.354 65.6806 37.63 65.1406 37.834C64.6126 38.026 64.0846 38.122 63.5566 38.122ZM68.3384 37.96V29.212H69.7964V32.848H74.5664V29.212H76.0244V37.96H74.5664V34.036H69.7964V37.96H68.3384ZM82.5569 38.122C81.7049 38.122 80.9669 37.936 80.3429 37.564C79.7189 37.192 79.2329 36.67 78.8849 35.998C78.5489 35.314 78.3809 34.51 78.3809 33.586C78.3809 32.662 78.5489 31.864 78.8849 31.192C79.2329 30.508 79.7189 29.98 80.3429 29.608C80.9669 29.236 81.7049 29.05 82.5569 29.05C83.4089 29.05 84.1469 29.236 84.7709 29.608C85.3949 29.98 85.8749 30.508 86.2109 31.192C86.5589 31.864 86.7329 32.662 86.7329 33.586C86.7329 34.51 86.5589 35.314 86.2109 35.998C85.8749 36.67 85.3949 37.192 84.7709 37.564C84.1469 37.936 83.4089 38.122 82.5569 38.122ZM82.5569 36.952C83.3849 36.952 84.0389 36.664 84.5189 36.088C85.0109 35.5 85.2569 34.66 85.2569 33.568C85.2569 32.488 85.0109 31.66 84.5189 31.084C84.0389 30.508 83.3849 30.22 82.5569 30.22C81.7409 30.22 81.0869 30.508 80.5949 31.084C80.1029 31.66 79.8569 32.488 79.8569 33.568C79.8569 34.66 80.1029 35.5 80.5949 36.088C81.0869 36.664 81.7409 36.952 82.5569 36.952ZM92.8242 38.122C91.9482 38.122 91.1922 37.93 90.5562 37.546C89.9202 37.162 89.4282 36.628 89.0802 35.944C88.7442 35.248 88.5762 34.444 88.5762 33.532C88.5762 32.608 88.7442 31.81 89.0802 31.138C89.4282 30.466 89.9202 29.95 90.5562 29.59C91.1922 29.23 91.9482 29.05 92.8242 29.05C93.3642 29.05 93.8982 29.146 94.4262 29.338C94.9542 29.53 95.3922 29.8 95.7402 30.148L95.2362 31.21C94.8882 30.874 94.5042 30.628 94.0842 30.472C93.6762 30.316 93.2862 30.238 92.9142 30.238C92.0022 30.238 91.3002 30.526 90.8082 31.102C90.3162 31.666 90.0702 32.482 90.0702 33.55C90.0702 34.594 90.3162 35.422 90.8082 36.034C91.3002 36.634 92.0022 36.934 92.9142 36.934C93.2862 36.934 93.6762 36.856 94.0842 36.7C94.5042 36.544 94.8882 36.292 95.2362 35.944L95.7402 37.006C95.3922 37.354 94.9482 37.63 94.4082 37.834C93.8802 38.026 93.3522 38.122 92.8242 38.122ZM99.424 37.96V30.382H96.256V29.212H104.068V30.382H100.882V37.96H99.424ZM105.604 37.96V29.212H106.936V36.574H106.486L111.994 29.212H113.236V37.96H111.904V30.58H112.354L106.846 37.96H105.604ZM120.739 37.96V29.212H122.071V36.574H121.621L127.129 29.212H128.371V37.96H127.039V30.58H127.489L121.981 37.96H120.739ZM139.528 38.122C138.676 38.122 137.938 37.936 137.314 37.564C136.69 37.192 136.204 36.67 135.856 35.998C135.52 35.314 135.352 34.51 135.352 33.586C135.352 32.662 135.52 31.864 135.856 31.192C136.204 30.508 136.69 29.98 137.314 29.608C137.938 29.236 138.676 29.05 139.528 29.05C140.38 29.05 141.118 29.236 141.742 29.608C142.366 29.98 142.846 30.508 143.182 31.192C143.53 31.864 143.704 32.662 143.704 33.586C143.704 34.51 143.53 35.314 143.182 35.998C142.846 36.67 142.366 37.192 141.742 37.564C141.118 37.936 140.38 38.122 139.528 38.122ZM139.528 36.952C140.356 36.952 141.01 36.664 141.49 36.088C141.982 35.5 142.228 34.66 142.228 33.568C142.228 32.488 141.982 31.66 141.49 31.084C141.01 30.508 140.356 30.22 139.528 30.22C138.712 30.22 138.058 30.508 137.566 31.084C137.074 31.66 136.828 32.488 136.828 33.568C136.828 34.66 137.074 35.5 137.566 36.088C138.058 36.664 138.712 36.952 139.528 36.952ZM146.069 37.96V29.212H147.527V32.866H149.165L152.027 29.212H153.629L150.353 33.46L149.939 32.992C150.275 33.028 150.569 33.112 150.821 33.244C151.073 33.376 151.313 33.58 151.541 33.856C151.769 34.12 152.015 34.48 152.279 34.936L154.079 37.96H152.513L150.929 35.314C150.725 34.978 150.533 34.72 150.353 34.54C150.173 34.348 149.969 34.216 149.741 34.144C149.513 34.072 149.231 34.036 148.895 34.036H147.527V37.96H146.069ZM156.57 41.2L158.208 37.51V38.14L154.374 29.212H155.958L159.09 36.88H158.604L161.772 29.212H163.302L158.1 41.2H156.57ZM164.983 37.96V29.212H172.615V37.96H171.157V30.382H166.441V37.96H164.983ZM175.495 37.96V29.212H176.827V36.574H176.377L181.885 29.212H183.127V37.96H181.795V30.58H182.245L176.737 37.96H175.495ZM187.824 37.96V30.382H184.656V29.212H192.468V30.382H189.282V37.96H187.824ZM197.929 38.122C197.005 38.122 196.207 37.942 195.535 37.582C194.875 37.21 194.359 36.688 193.987 36.016C193.627 35.344 193.447 34.54 193.447 33.604C193.447 32.692 193.627 31.9 193.987 31.228C194.347 30.544 194.839 30.01 195.463 29.626C196.099 29.242 196.831 29.05 197.659 29.05C198.451 29.05 199.129 29.224 199.693 29.572C200.257 29.92 200.689 30.412 200.989 31.048C201.301 31.684 201.457 32.446 201.457 33.334V33.892H194.563V32.938H200.485L200.197 33.172C200.197 32.212 199.981 31.468 199.549 30.94C199.129 30.4 198.511 30.13 197.695 30.13C197.083 30.13 196.561 30.274 196.129 30.562C195.709 30.838 195.391 31.228 195.175 31.732C194.959 32.224 194.851 32.8 194.851 33.46V33.568C194.851 34.3 194.965 34.918 195.193 35.422C195.433 35.926 195.787 36.31 196.255 36.574C196.723 36.826 197.281 36.952 197.929 36.952C198.445 36.952 198.943 36.874 199.423 36.718C199.915 36.55 200.377 36.28 200.809 35.908L201.313 36.934C200.917 37.294 200.413 37.582 199.801 37.798C199.189 38.014 198.565 38.122 197.929 38.122ZM208.348 37.96V29.212H212.614C213.31 29.212 213.88 29.302 214.324 29.482C214.768 29.65 215.098 29.908 215.314 30.256C215.53 30.592 215.638 31.012 215.638 31.516C215.638 32.068 215.44 32.536 215.044 32.92C214.66 33.304 214.156 33.532 213.532 33.604V33.37C214.024 33.382 214.45 33.484 214.81 33.676C215.17 33.856 215.446 34.108 215.638 34.432C215.83 34.756 215.926 35.128 215.926 35.548C215.926 36.292 215.65 36.88 215.098 37.312C214.546 37.744 213.766 37.96 212.758 37.96H208.348ZM209.734 36.97H212.704C213.292 36.97 213.742 36.844 214.054 36.592C214.378 36.328 214.54 35.956 214.54 35.476C214.54 34.996 214.378 34.63 214.054 34.378C213.742 34.126 213.292 34 212.704 34H209.734V36.97ZM209.734 33.01H212.542C213.082 33.01 213.502 32.884 213.802 32.632C214.114 32.38 214.27 32.032 214.27 31.588C214.27 31.144 214.114 30.802 213.802 30.562C213.502 30.322 213.082 30.202 212.542 30.202H209.734V33.01ZM217.706 38.158L217.166 37.006C217.574 36.838 217.91 36.616 218.174 36.34C218.45 36.064 218.666 35.716 218.822 35.296C218.99 34.864 219.11 34.336 219.182 33.712C219.254 33.088 219.29 32.332 219.29 31.444V29.212H225.644V37.96H224.186V30.382H220.658V31.498C220.658 32.518 220.604 33.406 220.496 34.162C220.388 34.918 220.214 35.56 219.974 36.088C219.746 36.604 219.44 37.03 219.056 37.366C218.684 37.702 218.234 37.966 217.706 38.158ZM232.182 38.122C231.33 38.122 230.592 37.936 229.968 37.564C229.344 37.192 228.858 36.67 228.51 35.998C228.174 35.314 228.006 34.51 228.006 33.586C228.006 32.662 228.174 31.864 228.51 31.192C228.858 30.508 229.344 29.98 229.968 29.608C230.592 29.236 231.33 29.05 232.182 29.05C233.034 29.05 233.772 29.236 234.396 29.608C235.02 29.98 235.5 30.508 235.836 31.192C236.184 31.864 236.358 32.662 236.358 33.586C236.358 34.51 236.184 35.314 235.836 35.998C235.5 36.67 235.02 37.192 234.396 37.564C233.772 37.936 233.034 38.122 232.182 38.122ZM232.182 36.952C233.01 36.952 233.664 36.664 234.144 36.088C234.636 35.5 234.882 34.66 234.882 33.568C234.882 32.488 234.636 31.66 234.144 31.084C233.664 30.508 233.01 30.22 232.182 30.22C231.366 30.22 230.712 30.508 230.22 31.084C229.728 31.66 229.482 32.488 229.482 33.568C229.482 34.66 229.728 35.5 230.22 36.088C230.712 36.664 231.366 36.952 232.182 36.952ZM237.301 37.96L239.101 34.936C239.365 34.48 239.611 34.12 239.839 33.856C240.079 33.58 240.319 33.376 240.559 33.244C240.811 33.112 241.105 33.028 241.441 32.992L241.063 33.46L237.751 29.212H239.353L242.233 32.866H243.619V29.212H245.077V32.866H246.481L249.343 29.212H250.945L247.633 33.46L247.255 32.992C247.591 33.028 247.879 33.112 248.119 33.244C248.371 33.376 248.611 33.58 248.839 33.856C249.079 34.12 249.331 34.48 249.595 34.936L251.395 37.96H249.829L248.245 35.314C248.041 34.978 247.849 34.72 247.669 34.54C247.489 34.348 247.285 34.216 247.057 34.144C246.829 34.072 246.547 34.036 246.211 34.036H245.077V37.96H243.619V34.036H242.485C242.161 34.036 241.885 34.072 241.657 34.144C241.429 34.216 241.219 34.348 241.027 34.54C240.847 34.72 240.655 34.978 240.451 35.314L238.867 37.96H237.301ZM256.816 38.122C255.892 38.122 255.094 37.942 254.422 37.582C253.762 37.21 253.246 36.688 252.874 36.016C252.514 35.344 252.334 34.54 252.334 33.604C252.334 32.692 252.514 31.9 252.874 31.228C253.234 30.544 253.726 30.01 254.35 29.626C254.986 29.242 255.718 29.05 256.546 29.05C257.338 29.05 258.016 29.224 258.58 29.572C259.144 29.92 259.576 30.412 259.876 31.048C260.188 31.684 260.344 32.446 260.344 33.334V33.892H253.45V32.938H259.372L259.084 33.172C259.084 32.212 258.868 31.468 258.436 30.94C258.016 30.4 257.398 30.13 256.582 30.13C255.97 30.13 255.448 30.274 255.016 30.562C254.596 30.838 254.278 31.228 254.062 31.732C253.846 32.224 253.738 32.8 253.738 33.46V33.568C253.738 34.3 253.852 34.918 254.08 35.422C254.32 35.926 254.674 36.31 255.142 36.574C255.61 36.826 256.168 36.952 256.816 36.952C257.332 36.952 257.83 36.874 258.31 36.718C258.802 36.55 259.264 36.28 259.696 35.908L260.2 36.934C259.804 37.294 259.3 37.582 258.688 37.798C258.076 38.014 257.452 38.122 256.816 38.122ZM262.612 37.96V29.212H264.07V32.848H268.84V29.212H270.298V37.96H268.84V34.036H264.07V37.96H262.612ZM273.176 37.96V29.212H274.508V36.574H274.058L279.566 29.212H280.808V37.96H279.476V30.58H279.926L274.418 37.96H273.176ZM282.968 37.96L284.318 35.62C284.546 35.224 284.834 34.9 285.182 34.648C285.53 34.396 285.878 34.27 286.226 34.27H286.46V34.432C285.812 34.432 285.254 34.33 284.786 34.126C284.33 33.922 283.976 33.628 283.724 33.244C283.484 32.848 283.364 32.38 283.364 31.84C283.364 31.036 283.628 30.4 284.156 29.932C284.696 29.452 285.5 29.212 286.568 29.212H290.51V37.96H289.124V34.63H287.846C287.366 34.63 286.958 34.75 286.622 34.99C286.298 35.23 286.034 35.524 285.83 35.872L284.642 37.96H282.968ZM286.838 33.568H289.124V30.238H286.838C286.13 30.238 285.608 30.388 285.272 30.688C284.936 30.976 284.768 31.378 284.768 31.894C284.768 32.422 284.936 32.836 285.272 33.136C285.608 33.424 286.13 33.568 286.838 33.568ZM299.04 41.2L300.678 37.51V38.14L296.844 29.212H298.428L301.56 36.88H301.074L304.242 29.212H305.772L300.57 41.2H299.04ZM306.032 37.96L307.832 34.936C308.096 34.48 308.342 34.12 308.57 33.856C308.81 33.58 309.05 33.376 309.29 33.244C309.542 33.112 309.836 33.028 310.172 32.992L309.794 33.46L306.482 29.212H308.084L310.964 32.866H312.35V29.212H313.808V32.866H315.212L318.074 29.212H319.676L316.364 33.46L315.986 32.992C316.322 33.028 316.61 33.112 316.85 33.244C317.102 33.376 317.342 33.58 317.57 33.856C317.81 34.12 318.062 34.48 318.326 34.936L320.126 37.96H318.56L316.976 35.314C316.772 34.978 316.58 34.72 316.4 34.54C316.22 34.348 316.016 34.216 315.788 34.144C315.56 34.072 315.278 34.036 314.942 34.036H313.808V37.96H312.35V34.036H311.216C310.892 34.036 310.616 34.072 310.388 34.144C310.16 34.216 309.95 34.348 309.758 34.54C309.578 34.72 309.386 34.978 309.182 35.314L307.598 37.96H306.032ZM325.546 38.122C324.622 38.122 323.824 37.942 323.152 37.582C322.492 37.21 321.976 36.688 321.604 36.016C321.244 35.344 321.064 34.54 321.064 33.604C321.064 32.692 321.244 31.9 321.604 31.228C321.964 30.544 322.456 30.01 323.08 29.626C323.716 29.242 324.448 29.05 325.276 29.05C326.068 29.05 326.746 29.224 327.31 29.572C327.874 29.92 328.306 30.412 328.606 31.048C328.918 31.684 329.074 32.446 329.074 33.334V33.892H322.18V32.938H328.102L327.814 33.172C327.814 32.212 327.598 31.468 327.166 30.94C326.746 30.4 326.128 30.13 325.312 30.13C324.7 30.13 324.178 30.274 323.746 30.562C323.326 30.838 323.008 31.228 322.792 31.732C322.576 32.224 322.468 32.8 322.468 33.46V33.568C322.468 34.3 322.582 34.918 322.81 35.422C323.05 35.926 323.404 36.31 323.872 36.574C324.34 36.826 324.898 36.952 325.546 36.952C326.062 36.952 326.56 36.874 327.04 36.718C327.532 36.55 327.994 36.28 328.426 35.908L328.93 36.934C328.534 37.294 328.03 37.582 327.418 37.798C326.806 38.014 326.182 38.122 325.546 38.122ZM341.581 37.96V34.414C341.245 34.618 340.879 34.774 340.483 34.882C340.099 34.978 339.691 35.026 339.259 35.026C338.431 35.026 337.741 34.894 337.189 34.63C336.649 34.366 336.247 33.97 335.983 33.442C335.719 32.902 335.587 32.23 335.587 31.426V29.212H337.045V31.318C337.045 31.894 337.129 32.368 337.297 32.74C337.465 33.1 337.723 33.37 338.071 33.55C338.419 33.718 338.875 33.802 339.439 33.802C339.871 33.802 340.255 33.754 340.591 33.658C340.927 33.562 341.251 33.406 341.563 33.19V29.212H343.021V37.96H341.581ZM349.857 38.122C348.933 38.122 348.135 37.942 347.463 37.582C346.803 37.21 346.287 36.688 345.915 36.016C345.555 35.344 345.375 34.54 345.375 33.604C345.375 32.692 345.555 31.9 345.915 31.228C346.275 30.544 346.767 30.01 347.391 29.626C348.027 29.242 348.759 29.05 349.587 29.05C350.379 29.05 351.057 29.224 351.621 29.572C352.185 29.92 352.617 30.412 352.917 31.048C353.229 31.684 353.385 32.446 353.385 33.334V33.892H346.491V32.938H352.413L352.125 33.172C352.125 32.212 351.909 31.468 351.477 30.94C351.057 30.4 350.439 30.13 349.623 30.13C349.011 30.13 348.489 30.274 348.057 30.562C347.637 30.838 347.319 31.228 347.103 31.732C346.887 32.224 346.779 32.8 346.779 33.46V33.568C346.779 34.3 346.893 34.918 347.121 35.422C347.361 35.926 347.715 36.31 348.183 36.574C348.651 36.826 349.209 36.952 349.857 36.952C350.373 36.952 350.871 36.874 351.351 36.718C351.843 36.55 352.305 36.28 352.737 35.908L353.241 36.934C352.845 37.294 352.341 37.582 351.729 37.798C351.117 38.014 350.493 38.122 349.857 38.122ZM355.671 41.2V29.212H357.093V31.282H356.913C357.105 30.598 357.483 30.058 358.047 29.662C358.623 29.254 359.307 29.05 360.099 29.05C360.879 29.05 361.557 29.236 362.133 29.608C362.721 29.968 363.171 30.49 363.483 31.174C363.807 31.846 363.969 32.65 363.969 33.586C363.969 34.51 363.807 35.314 363.483 35.998C363.171 36.67 362.727 37.192 362.151 37.564C361.575 37.936 360.891 38.122 360.099 38.122C359.307 38.122 358.629 37.924 358.065 37.528C357.501 37.12 357.117 36.58 356.913 35.908H357.129V41.2H355.671ZM359.793 36.952C360.621 36.952 361.275 36.664 361.755 36.088C362.247 35.5 362.493 34.666 362.493 33.586C362.493 32.494 362.247 31.66 361.755 31.084C361.275 30.508 360.621 30.22 359.793 30.22C358.977 30.22 358.323 30.508 357.831 31.084C357.339 31.66 357.093 32.494 357.093 33.586C357.093 34.666 357.339 35.5 357.831 36.088C358.323 36.664 358.977 36.952 359.793 36.952ZM370.283 38.122C369.359 38.122 368.561 37.942 367.889 37.582C367.229 37.21 366.713 36.688 366.341 36.016C365.981 35.344 365.801 34.54 365.801 33.604C365.801 32.692 365.981 31.9 366.341 31.228C366.701 30.544 367.193 30.01 367.817 29.626C368.453 29.242 369.185 29.05 370.013 29.05C370.805 29.05 371.483 29.224 372.047 29.572C372.611 29.92 373.043 30.412 373.343 31.048C373.655 31.684 373.811 32.446 373.811 33.334V33.892H366.917V32.938H372.839L372.551 33.172C372.551 32.212 372.335 31.468 371.903 30.94C371.483 30.4 370.865 30.13 370.049 30.13C369.437 30.13 368.915 30.274 368.483 30.562C368.063 30.838 367.745 31.228 367.529 31.732C367.313 32.224 367.205 32.8 367.205 33.46V33.568C367.205 34.3 367.319 34.918 367.547 35.422C367.787 35.926 368.141 36.31 368.609 36.574C369.077 36.826 369.635 36.952 370.283 36.952C370.799 36.952 371.297 36.874 371.777 36.718C372.269 36.55 372.731 36.28 373.163 35.908L373.667 36.934C373.271 37.294 372.767 37.582 372.155 37.798C371.543 38.014 370.919 38.122 370.283 38.122ZM378.977 38.122C378.221 38.122 377.507 38.026 376.835 37.834C376.175 37.63 375.641 37.348 375.233 36.988L375.701 35.962C376.121 36.298 376.613 36.556 377.177 36.736C377.741 36.904 378.329 36.988 378.941 36.988C379.805 36.988 380.423 36.862 380.795 36.61C381.179 36.358 381.371 35.986 381.371 35.494C381.371 35.038 381.215 34.69 380.903 34.45C380.591 34.198 380.141 34.072 379.553 34.072H377.483V32.974H379.373C379.889 32.974 380.297 32.854 380.597 32.614C380.909 32.374 381.065 32.038 381.065 31.606C381.065 31.162 380.897 30.814 380.561 30.562C380.237 30.31 379.697 30.184 378.941 30.184C378.341 30.184 377.789 30.262 377.285 30.418C376.781 30.562 376.301 30.802 375.845 31.138L375.377 30.112C375.869 29.752 376.427 29.488 377.051 29.32C377.687 29.14 378.377 29.05 379.121 29.05C380.225 29.05 381.053 29.266 381.605 29.698C382.169 30.13 382.451 30.736 382.451 31.516C382.451 32.068 382.259 32.536 381.875 32.92C381.491 33.304 380.981 33.532 380.345 33.604V33.37C380.837 33.382 381.263 33.484 381.623 33.676C381.983 33.856 382.259 34.108 382.451 34.432C382.655 34.744 382.757 35.116 382.757 35.548C382.757 36.328 382.439 36.952 381.803 37.42C381.167 37.888 380.225 38.122 378.977 38.122ZM389.649 37.96V29.212H391.053V36.79H394.707V29.212H396.093V36.79H399.747V29.212H401.151V37.96H389.649ZM407.988 38.122C407.064 38.122 406.266 37.942 405.594 37.582C404.934 37.21 404.418 36.688 404.046 36.016C403.686 35.344 403.506 34.54 403.506 33.604C403.506 32.692 403.686 31.9 404.046 31.228C404.406 30.544 404.898 30.01 405.522 29.626C406.158 29.242 406.89 29.05 407.718 29.05C408.51 29.05 409.188 29.224 409.752 29.572C410.316 29.92 410.748 30.412 411.048 31.048C411.36 31.684 411.516 32.446 411.516 33.334V33.892H404.622V32.938H410.544L410.256 33.172C410.256 32.212 410.04 31.468 409.608 30.94C409.188 30.4 408.57 30.13 407.754 30.13C407.142 30.13 406.62 30.274 406.188 30.562C405.768 30.838 405.45 31.228 405.234 31.732C405.018 32.224 404.91 32.8 404.91 33.46V33.568C404.91 34.3 405.024 34.918 405.252 35.422C405.492 35.926 405.846 36.31 406.314 36.574C406.782 36.826 407.34 36.952 407.988 36.952C408.504 36.952 409.002 36.874 409.482 36.718C409.974 36.55 410.436 36.28 410.868 35.908L411.372 36.934C410.976 37.294 410.472 37.582 409.86 37.798C409.248 38.014 408.624 38.122 407.988 38.122ZM417.51 38.122C416.634 38.122 415.878 37.93 415.242 37.546C414.606 37.162 414.114 36.628 413.766 35.944C413.43 35.248 413.262 34.444 413.262 33.532C413.262 32.608 413.43 31.81 413.766 31.138C414.114 30.466 414.606 29.95 415.242 29.59C415.878 29.23 416.634 29.05 417.51 29.05C418.05 29.05 418.584 29.146 419.112 29.338C419.64 29.53 420.078 29.8 420.426 30.148L419.922 31.21C419.574 30.874 419.19 30.628 418.77 30.472C418.362 30.316 417.972 30.238 417.6 30.238C416.688 30.238 415.986 30.526 415.494 31.102C415.002 31.666 414.756 32.482 414.756 33.55C414.756 34.594 415.002 35.422 415.494 36.034C415.986 36.634 416.688 36.934 417.6 36.934C417.972 36.934 418.362 36.856 418.77 36.7C419.19 36.544 419.574 36.292 419.922 35.944L420.426 37.006C420.078 37.354 419.634 37.63 419.094 37.834C418.566 38.026 418.038 38.122 417.51 38.122ZM424.11 37.96V30.382H420.942V29.212H428.754V30.382H425.568V37.96H424.11ZM430.29 37.96V29.212H431.748V32.326H434.394C435.51 32.326 436.356 32.572 436.932 33.064C437.508 33.544 437.796 34.228 437.796 35.116C437.796 35.704 437.658 36.214 437.382 36.646C437.118 37.066 436.734 37.39 436.23 37.618C435.738 37.846 435.126 37.96 434.394 37.96H430.29ZM431.748 36.916H434.25C434.934 36.916 435.462 36.772 435.834 36.484C436.206 36.184 436.392 35.734 436.392 35.134C436.392 34.522 436.206 34.078 435.834 33.802C435.462 33.514 434.934 33.37 434.25 33.37H431.748V36.916ZM444.581 37.96V29.212H445.787L449.081 35.062L452.375 29.212H453.563V37.96H452.267V30.886H452.681L449.441 36.556H448.703L445.463 30.886H445.877V37.96H444.581ZM460.406 38.122C459.482 38.122 458.684 37.942 458.012 37.582C457.352 37.21 456.836 36.688 456.464 36.016C456.104 35.344 455.924 34.54 455.924 33.604C455.924 32.692 456.104 31.9 456.464 31.228C456.824 30.544 457.316 30.01 457.94 29.626C458.576 29.242 459.308 29.05 460.136 29.05C460.928 29.05 461.606 29.224 462.17 29.572C462.734 29.92 463.166 30.412 463.466 31.048C463.778 31.684 463.934 32.446 463.934 33.334V33.892H457.04V32.938H462.962L462.674 33.172C462.674 32.212 462.458 31.468 462.026 30.94C461.606 30.4 460.988 30.13 460.172 30.13C459.56 30.13 459.038 30.274 458.606 30.562C458.186 30.838 457.868 31.228 457.652 31.732C457.436 32.224 457.328 32.8 457.328 33.46V33.568C457.328 34.3 457.442 34.918 457.67 35.422C457.91 35.926 458.264 36.31 458.732 36.574C459.2 36.826 459.758 36.952 460.406 36.952C460.922 36.952 461.42 36.874 461.9 36.718C462.392 36.55 462.854 36.28 463.286 35.908L463.79 36.934C463.394 37.294 462.89 37.582 462.278 37.798C461.666 38.014 461.042 38.122 460.406 38.122ZM469.928 38.122C469.052 38.122 468.296 37.93 467.66 37.546C467.024 37.162 466.532 36.628 466.184 35.944C465.848 35.248 465.68 34.444 465.68 33.532C465.68 32.608 465.848 31.81 466.184 31.138C466.532 30.466 467.024 29.95 467.66 29.59C468.296 29.23 469.052 29.05 469.928 29.05C470.468 29.05 471.002 29.146 471.53 29.338C472.058 29.53 472.496 29.8 472.844 30.148L472.34 31.21C471.992 30.874 471.608 30.628 471.188 30.472C470.78 30.316 470.39 30.238 470.018 30.238C469.106 30.238 468.404 30.526 467.912 31.102C467.42 31.666 467.174 32.482 467.174 33.55C467.174 34.594 467.42 35.422 467.912 36.034C468.404 36.634 469.106 36.934 470.018 36.934C470.39 36.934 470.78 36.856 471.188 36.7C471.608 36.544 471.992 36.292 472.34 35.944L472.844 37.006C472.496 37.354 472.052 37.63 471.512 37.834C470.984 38.026 470.456 38.122 469.928 38.122ZM473.99 37.96L475.34 35.62C475.568 35.224 475.856 34.9 476.204 34.648C476.552 34.396 476.9 34.27 477.248 34.27H477.482V34.432C476.834 34.432 476.276 34.33 475.808 34.126C475.352 33.922 474.998 33.628 474.746 33.244C474.506 32.848 474.386 32.38 474.386 31.84C474.386 31.036 474.65 30.4 475.178 29.932C475.718 29.452 476.522 29.212 477.59 29.212H481.532V37.96H480.146V34.63H478.868C478.388 34.63 477.98 34.75 477.644 34.99C477.32 35.23 477.056 35.524 476.852 35.872L475.664 37.96H473.99ZM477.86 33.568H480.146V30.238H477.86C477.152 30.238 476.63 30.388 476.294 30.688C475.958 30.976 475.79 31.378 475.79 31.894C475.79 32.422 475.958 32.836 476.294 33.136C476.63 33.424 477.152 33.568 477.86 33.568ZM491.973 40.3V37.96H484.413V29.212H485.871V36.79H490.389V29.212H491.847V36.79H493.233V40.3H491.973ZM499.13 38.122C498.206 38.122 497.408 37.942 496.736 37.582C496.076 37.21 495.56 36.688 495.188 36.016C494.828 35.344 494.648 34.54 494.648 33.604C494.648 32.692 494.828 31.9 495.188 31.228C495.548 30.544 496.04 30.01 496.664 29.626C497.3 29.242 498.032 29.05 498.86 29.05C499.652 29.05 500.33 29.224 500.894 29.572C501.458 29.92 501.89 30.412 502.19 31.048C502.502 31.684 502.658 32.446 502.658 33.334V33.892H495.764V32.938H501.686L501.398 33.172C501.398 32.212 501.182 31.468 500.75 30.94C500.33 30.4 499.712 30.13 498.896 30.13C498.284 30.13 497.762 30.274 497.33 30.562C496.91 30.838 496.592 31.228 496.376 31.732C496.16 32.224 496.052 32.8 496.052 33.46V33.568C496.052 34.3 496.166 34.918 496.394 35.422C496.634 35.926 496.988 36.31 497.456 36.574C497.924 36.826 498.482 36.952 499.13 36.952C499.646 36.952 500.144 36.874 500.624 36.718C501.116 36.55 501.578 36.28 502.01 35.908L502.514 36.934C502.118 37.294 501.614 37.582 501.002 37.798C500.39 38.014 499.766 38.122 499.13 38.122ZM504.926 37.96V29.212H509.192C509.888 29.212 510.458 29.302 510.902 29.482C511.346 29.65 511.676 29.908 511.892 30.256C512.108 30.592 512.216 31.012 512.216 31.516C512.216 32.068 512.018 32.536 511.622 32.92C511.238 33.304 510.734 33.532 510.11 33.604V33.37C510.602 33.382 511.028 33.484 511.388 33.676C511.748 33.856 512.024 34.108 512.216 34.432C512.408 34.756 512.504 35.128 512.504 35.548C512.504 36.292 512.228 36.88 511.676 37.312C511.124 37.744 510.344 37.96 509.336 37.96H504.926ZM506.312 36.97H509.282C509.87 36.97 510.32 36.844 510.632 36.592C510.956 36.328 511.118 35.956 511.118 35.476C511.118 34.996 510.956 34.63 510.632 34.378C510.32 34.126 509.87 34 509.282 34H506.312V36.97ZM506.312 33.01H509.12C509.66 33.01 510.08 32.884 510.38 32.632C510.692 32.38 510.848 32.032 510.848 31.588C510.848 31.144 510.692 30.802 510.38 30.562C510.08 30.322 509.66 30.202 509.12 30.202H506.312V33.01Z" fill="#151515"/>
</svg>
