<svg width="521" height="184" viewBox="0 0 521 184" fill="none" xmlns="http://www.w3.org/2000/svg">
<path d="M1.22729 9.53674e-06H18.9205L31.0909 29.6591H31.7046L43.875 9.53674e-06H61.5682V52.3636H47.6591V22.0909H47.25L35.5909 51.9546H27.2046L15.5455 21.8864H15.1364V52.3636H1.22729V9.53674e-06ZM85.5281 53.0796C81.335 53.0796 77.7213 52.2784 74.6872 50.6761C71.6702 49.0568 69.3435 46.7386 67.7071 43.7216C66.0878 40.6875 65.2781 37.0568 65.2781 32.8296C65.2781 28.7727 66.0963 25.2273 67.7327 22.1932C69.3691 19.1591 71.6787 16.7983 74.6617 15.1108C77.6446 13.4233 81.1645 12.5796 85.2213 12.5796C88.1872 12.5796 90.8719 13.0398 93.2753 13.9602C95.6787 14.8807 97.7327 16.2188 99.4372 17.9744C101.142 19.7131 102.454 21.8267 103.375 24.3154C104.295 26.804 104.755 29.608 104.755 32.7273V36H69.6759V28.2273H91.7668C91.7497 27.1023 91.46 26.1136 90.8975 25.2614C90.352 24.3921 89.6105 23.7188 88.673 23.2415C87.7526 22.7472 86.7043 22.5 85.5281 22.5C84.3861 22.5 83.3378 22.7472 82.3833 23.2415C81.4287 23.7188 80.6617 24.3835 80.0821 25.2358C79.5196 26.0881 79.2213 27.0852 79.1872 28.2273V36.6136C79.1872 37.875 79.4514 39 79.9798 39.9886C80.5083 40.9773 81.2668 41.7529 82.2554 42.3154C83.2441 42.8779 84.4372 43.1591 85.835 43.1591C86.8066 43.1591 87.6929 43.0227 88.4941 42.75C89.3122 42.4773 90.0111 42.0852 90.5906 41.5739C91.1702 41.0455 91.5963 40.4148 91.8691 39.6818H104.755C104.312 42.4091 103.264 44.7784 101.611 46.7898C99.9571 48.7841 97.7668 50.3352 95.0395 51.4432C92.3293 52.5341 89.1588 53.0796 85.5281 53.0796ZM105.634 52.3636L117.906 31.6023L105.634 13.0909H121.588L129.872 27.5114H130.486V13.0909H144.6V27.5114H145.213L153.497 13.0909H169.452L157.179 31.6023L169.452 52.3636H153.088L145.111 38.0455H144.6V52.3636H130.486V38.0455H129.975L121.997 52.3636H105.634ZM189.749 53.0796C185.488 53.0796 181.84 52.2358 178.806 50.5483C175.772 48.8438 173.445 46.4744 171.826 43.4404C170.207 40.3892 169.397 36.8523 169.397 32.8296C169.397 28.8068 170.207 25.2784 171.826 22.2443C173.445 19.1932 175.772 16.8239 178.806 15.1364C181.84 13.4318 185.488 12.5796 189.749 12.5796C193.601 12.5796 196.934 13.2784 199.746 14.6761C202.576 16.0568 204.766 18.0171 206.317 20.5568C207.868 23.0796 208.653 26.0455 208.67 29.4546H195.579C195.391 27.3921 194.795 25.8239 193.789 24.75C192.8 23.6591 191.522 23.1136 189.954 23.1136C188.726 23.1136 187.653 23.4716 186.732 24.1875C185.812 24.8864 185.096 25.9517 184.584 27.3835C184.073 28.7983 183.817 30.5796 183.817 32.7273C183.817 34.875 184.073 36.6648 184.584 38.0966C185.096 39.5114 185.812 40.5767 186.732 41.2926C187.653 41.9915 188.726 42.3409 189.954 42.3409C190.993 42.3409 191.914 42.1023 192.715 41.625C193.516 41.1307 194.164 40.4148 194.658 39.4773C195.17 38.5227 195.476 37.3636 195.579 36H208.67C208.618 39.4602 207.826 42.4773 206.292 45.0511C204.758 47.608 202.584 49.5852 199.772 50.983C196.976 52.3807 193.636 53.0796 189.749 53.0796ZM231.511 53.0796C227.318 53.0796 223.704 52.2784 220.67 50.6761C217.653 49.0568 215.326 46.7386 213.69 43.7216C212.071 40.6875 211.261 37.0568 211.261 32.8296C211.261 28.7727 212.079 25.2273 213.716 22.1932C215.352 19.1591 217.662 16.7983 220.644 15.1108C223.627 13.4233 227.147 12.5796 231.204 12.5796C234.17 12.5796 236.855 13.0398 239.258 13.9602C241.662 14.8807 243.716 16.2188 245.42 17.9744C247.125 19.7131 248.437 21.8267 249.358 24.3154C250.278 26.804 250.738 29.608 250.738 32.7273V36H215.659V28.2273H237.75C237.733 27.1023 237.443 26.1136 236.88 25.2614C236.335 24.3921 235.593 23.7188 234.656 23.2415C233.735 22.7472 232.687 22.5 231.511 22.5C230.369 22.5 229.321 22.7472 228.366 23.2415C227.412 23.7188 226.644 24.3835 226.065 25.2358C225.502 26.0881 225.204 27.0852 225.17 28.2273V36.6136C225.17 37.875 225.434 39 225.963 39.9886C226.491 40.9773 227.25 41.7529 228.238 42.3154C229.227 42.8779 230.42 43.1591 231.818 43.1591C232.789 43.1591 233.676 43.0227 234.477 42.75C235.295 42.4773 235.994 42.0852 236.573 41.5739C237.153 41.0455 237.579 40.4148 237.852 39.6818H250.738C250.295 42.4091 249.247 44.7784 247.593 46.7898C245.94 48.7841 243.75 50.3352 241.022 51.4432C238.312 52.5341 235.142 53.0796 231.511 53.0796ZM252.051 23.625V13.0909H290.097V23.625H277.619V52.3636H264.324V23.625H252.051ZM311.372 53.0796C307.179 53.0796 303.565 52.2784 300.531 50.6761C297.514 49.0568 295.187 46.7386 293.551 43.7216C291.932 40.6875 291.122 37.0568 291.122 32.8296C291.122 28.7727 291.94 25.2273 293.576 22.1932C295.213 19.1591 297.522 16.7983 300.505 15.1108C303.488 13.4233 307.008 12.5796 311.065 12.5796C314.031 12.5796 316.716 13.0398 319.119 13.9602C321.522 14.8807 323.576 16.2188 325.281 17.9744C326.986 19.7131 328.298 21.8267 329.219 24.3154C330.139 26.804 330.599 29.608 330.599 32.7273V36H295.52V28.2273H317.611C317.594 27.1023 317.304 26.1136 316.741 25.2614C316.196 24.3921 315.454 23.7188 314.517 23.2415C313.596 22.7472 312.548 22.5 311.372 22.5C310.23 22.5 309.182 22.7472 308.227 23.2415C307.272 23.7188 306.505 24.3835 305.926 25.2358C305.363 26.0881 305.065 27.0852 305.031 28.2273V36.6136C305.031 37.875 305.295 39 305.824 39.9886C306.352 40.9773 307.111 41.7529 308.099 42.3154C309.088 42.8779 310.281 43.1591 311.679 43.1591C312.65 43.1591 313.537 43.0227 314.338 42.75C315.156 42.4773 315.855 42.0852 316.434 41.5739C317.014 41.0455 317.44 40.4148 317.713 39.6818H330.599C330.156 42.4091 329.108 44.7784 327.454 46.7898C325.801 48.7841 323.611 50.3352 320.883 51.4432C318.173 52.5341 315.003 53.0796 311.372 53.0796ZM334.558 52.3636V13.0909H351.74C357.007 13.0909 361.149 13.9858 364.166 15.7756C367.2 17.5654 368.717 20.25 368.717 23.8296C368.717 25.7727 367.865 27.4943 366.161 28.9943C364.473 30.4943 362.019 31.5 358.797 32.0114C361.763 32.1477 364.166 32.6932 366.007 33.6477C367.865 34.5852 369.22 35.7614 370.073 37.1761C370.942 38.5739 371.377 40.0227 371.377 41.5227C371.377 43.9091 370.729 45.9119 369.433 47.5313C368.138 49.1335 366.229 50.3438 363.706 51.1619C361.183 51.9631 358.081 52.3636 354.399 52.3636H334.558ZM347.649 42.4432H354.399C355.541 42.4432 356.436 42.1705 357.084 41.625C357.749 41.0796 358.081 40.3296 358.081 39.375C358.081 38.3864 357.749 37.6108 357.084 37.0483C356.436 36.4858 355.541 36.2046 354.399 36.2046H347.649V42.4432ZM347.649 29.0455H352.149C352.882 29.0455 353.504 28.9347 354.016 28.7131C354.527 28.4744 354.919 28.1421 355.192 27.7159C355.482 27.2898 355.627 26.7784 355.627 26.1818C355.627 25.2784 355.277 24.5796 354.578 24.0852C353.896 23.5739 352.95 23.3182 351.74 23.3182H347.649V29.0455ZM382.891 23.7273H394.959C400.567 23.7273 404.982 25.0227 408.204 27.6136C411.425 30.1875 413.045 33.733 413.062 38.25C413.045 41.1648 412.303 43.679 410.837 45.7926C409.388 47.9063 407.309 49.5341 404.599 50.6761C401.905 51.8011 398.692 52.3636 394.959 52.3636H375.016V13.0909H388.312V41.8296H394.959C396.408 41.8296 397.601 41.4886 398.539 40.8068C399.476 40.108 399.954 39.2216 399.971 38.1477C399.954 37.0057 399.476 36.0767 398.539 35.3608C397.601 34.6279 396.408 34.2614 394.959 34.2614H382.891V23.7273ZM415.925 52.3636V13.0909H430.039V52.3636H415.925ZM454.191 53.0796C449.997 53.0796 446.384 52.2784 443.35 50.6761C440.333 49.0568 438.006 46.7386 436.37 43.7216C434.75 40.6875 433.941 37.0568 433.941 32.8296C433.941 28.7727 434.759 25.2273 436.395 22.1932C438.032 19.1591 440.341 16.7983 443.324 15.1108C446.307 13.4233 449.827 12.5796 453.884 12.5796C456.85 12.5796 459.534 13.0398 461.938 13.9602C464.341 14.8807 466.395 16.2188 468.1 17.9744C469.804 19.7131 471.117 21.8267 472.037 24.3154C472.958 26.804 473.418 29.608 473.418 32.7273V36H438.338V28.2273H460.429C460.412 27.1023 460.122 26.1136 459.56 25.2614C459.014 24.3921 458.273 23.7188 457.336 23.2415C456.415 22.7472 455.367 22.5 454.191 22.5C453.049 22.5 452 22.7472 451.046 23.2415C450.091 23.7188 449.324 24.3835 448.745 25.2358C448.182 26.0881 447.884 27.0852 447.85 28.2273V36.6136C447.85 37.875 448.114 39 448.642 39.9886C449.171 40.9773 449.929 41.7529 450.918 42.3154C451.907 42.8779 453.1 43.1591 454.497 43.1591C455.469 43.1591 456.355 43.0227 457.157 42.75C457.975 42.4773 458.674 42.0852 459.253 41.5739C459.833 41.0455 460.259 40.4148 460.532 39.6818H473.418C472.975 42.4091 471.926 44.7784 470.273 46.7898C468.62 48.7841 466.429 50.3352 463.702 51.4432C460.992 52.5341 457.821 53.0796 454.191 53.0796ZM16.9773 88.2159C15.8182 88.2159 14.8978 88.3864 14.2159 88.7273C13.5512 89.0682 13.0739 89.571 12.7841 90.2358C12.5114 90.8835 12.375 91.7102 12.375 92.7159H2.22921e-05C2.22921e-05 90.3125 0.409113 88.1648 1.22729 86.2727C2.04548 84.3636 3.21309 82.7529 4.73014 81.4404C6.24718 80.1108 8.03695 79.1051 10.0995 78.4233C12.179 77.7244 14.4716 77.375 16.9773 77.375C21.1705 77.375 24.6818 78.2443 27.5114 79.983C30.358 81.7046 32.4972 84.0739 33.929 87.0909C35.3779 90.108 36.1023 93.5511 36.1023 97.4205V98.0341C36.1023 101.938 35.3864 105.398 33.9546 108.415C32.5398 111.432 30.4091 113.801 27.5625 115.523C24.733 117.227 21.2046 118.08 16.9773 118.08C13.6023 118.08 10.6364 117.466 8.07957 116.239C5.53979 114.994 3.554 113.162 2.12218 110.741C0.707409 108.304 2.22921e-05 105.295 2.22921e-05 101.716H12.375C12.375 102.739 12.5114 103.659 12.7841 104.477C13.0739 105.295 13.5512 105.943 14.2159 106.42C14.8978 106.881 15.8182 107.119 16.9773 107.136C18.8182 107.119 20.1478 106.642 20.9659 105.705C21.7841 104.767 22.2955 103.599 22.5 102.202C22.7046 100.787 22.8068 99.3977 22.8068 98.0341V97.4205C22.8068 95.8011 22.6875 94.2926 22.4489 92.8949C22.2273 91.4972 21.6989 90.3722 20.8637 89.5199C20.0455 88.6506 18.75 88.2159 16.9773 88.2159ZM26.3864 94.3523V101.307H14.7273V94.3523H26.3864ZM40.0615 117.364V78.0909H54.1752V92.1023H56.6297L65.0161 78.0909H81.1752L68.5956 97.9318L81.2774 117.364H64.9138L57.3456 105.193H54.1752V117.364H40.0615ZM82.7693 132.091V78.0909H96.7807V84.9432H97.0875C97.5989 83.6136 98.3489 82.3949 99.3375 81.2869C100.326 80.1619 101.553 79.2671 103.019 78.6023C104.485 77.9205 106.19 77.5796 108.133 77.5796C110.724 77.5796 113.187 78.2699 115.522 79.6506C117.874 81.0313 119.784 83.2046 121.249 86.1705C122.732 89.1364 123.474 92.9886 123.474 97.7273C123.474 102.261 122.767 106.02 121.352 109.003C119.954 111.986 118.079 114.21 115.727 115.676C113.392 117.142 110.826 117.875 108.031 117.875C106.19 117.875 104.545 117.577 103.096 116.98C101.664 116.366 100.437 115.54 99.4142 114.5C98.4085 113.443 97.633 112.25 97.0875 110.92H96.883V132.091H82.7693ZM96.5762 97.7273C96.5762 99.6364 96.8233 101.29 97.3176 102.688C97.829 104.068 98.5449 105.142 99.4654 105.909C100.403 106.659 101.519 107.034 102.815 107.034C104.11 107.034 105.21 106.668 106.113 105.935C107.034 105.185 107.732 104.119 108.21 102.739C108.704 101.341 108.951 99.6705 108.951 97.7273C108.951 95.7841 108.704 94.1222 108.21 92.7415C107.732 91.3438 107.034 90.2784 106.113 89.5455C105.21 88.7955 104.11 88.4205 102.815 88.4205C101.519 88.4205 100.403 88.7955 99.4654 89.5455C98.5449 90.2784 97.829 91.3438 97.3176 92.7415C96.8233 94.1222 96.5762 95.7841 96.5762 97.7273ZM138.53 117.977C136.024 117.977 133.808 117.568 131.882 116.75C129.973 115.915 128.473 114.653 127.382 112.966C126.291 111.278 125.746 109.131 125.746 106.523C125.746 104.375 126.112 102.543 126.845 101.026C127.578 99.4915 128.601 98.2386 129.913 97.2671C131.226 96.2955 132.751 95.554 134.49 95.0426C136.246 94.5313 138.138 94.1989 140.166 94.0455C142.365 93.875 144.129 93.6705 145.459 93.4318C146.805 93.1761 147.777 92.8267 148.373 92.3835C148.97 91.9233 149.268 91.3182 149.268 90.5682V90.4659C149.268 89.4432 148.876 88.6591 148.092 88.1136C147.308 87.5682 146.302 87.2955 145.075 87.2955C143.729 87.2955 142.629 87.5938 141.777 88.1904C140.942 88.7699 140.439 89.6648 140.268 90.875H127.28C127.45 88.4886 128.209 86.2898 129.555 84.2784C130.919 82.25 132.905 80.6307 135.513 79.4205C138.121 78.1932 141.376 77.5796 145.28 77.5796C148.092 77.5796 150.615 77.9119 152.848 78.5767C155.081 79.2244 156.981 80.1364 158.55 81.3125C160.118 82.4716 161.311 83.8352 162.129 85.4034C162.964 86.9546 163.382 88.6421 163.382 90.4659V117.364H150.189V111.841H149.882C149.098 113.307 148.143 114.491 147.018 115.395C145.91 116.298 144.641 116.955 143.209 117.364C141.794 117.773 140.234 117.977 138.53 117.977ZM143.132 109.08C144.206 109.08 145.212 108.858 146.149 108.415C147.104 107.972 147.879 107.332 148.476 106.497C149.072 105.662 149.371 104.648 149.371 103.455V100.182C148.996 100.335 148.595 100.48 148.169 100.616C147.76 100.753 147.317 100.881 146.839 101C146.379 101.119 145.885 101.23 145.356 101.332C144.845 101.435 144.308 101.528 143.746 101.614C142.655 101.784 141.76 102.065 141.061 102.457C140.379 102.832 139.868 103.301 139.527 103.864C139.203 104.409 139.041 105.023 139.041 105.705C139.041 106.795 139.425 107.631 140.192 108.21C140.959 108.79 141.939 109.08 143.132 109.08ZM196.348 92.3068V102.841H176.61V92.3068H196.348ZM181.621 78.0909V117.364H168.326V78.0909H181.621ZM204.632 78.0909V117.364H191.439V78.0909H204.632ZM217.432 88.7273H229.5C235.108 88.7273 239.523 90.0227 242.744 92.6136C245.966 95.1875 247.585 98.733 247.602 103.25C247.585 106.165 246.844 108.679 245.378 110.793C243.929 112.906 241.849 114.534 239.139 115.676C236.446 116.801 233.233 117.364 229.5 117.364H209.557V78.0909H222.852V106.83H229.5C230.949 106.83 232.142 106.489 233.08 105.807C234.017 105.108 234.494 104.222 234.511 103.148C234.494 102.006 234.017 101.077 233.08 100.361C232.142 99.6279 230.949 99.2614 229.5 99.2614H217.432V88.7273ZM250.466 117.364V78.0909H264.58V117.364H250.466ZM1.43184 182.364V143.091H38.0455V182.364H24.75V153.625H14.5227V182.364H1.43184ZM62.357 183.08C58.0956 183.08 54.4479 182.236 51.4138 180.548C48.3797 178.844 46.053 176.474 44.4337 173.44C42.8144 170.389 42.0047 166.852 42.0047 162.83C42.0047 158.807 42.8144 155.278 44.4337 152.244C46.053 149.193 48.3797 146.824 51.4138 145.136C54.4479 143.432 58.0956 142.58 62.357 142.58C66.6183 142.58 70.2661 143.432 73.3002 145.136C76.3343 146.824 78.661 149.193 80.2803 152.244C81.8996 155.278 82.7093 158.807 82.7093 162.83C82.7093 166.852 81.8996 170.389 80.2803 173.44C78.661 176.474 76.3343 178.844 73.3002 180.548C70.2661 182.236 66.6183 183.08 62.357 183.08ZM62.4593 172.648C63.6524 172.648 64.6837 172.247 65.553 171.446C66.4223 170.645 67.0956 169.503 67.5729 168.02C68.0502 166.537 68.2888 164.773 68.2888 162.727C68.2888 160.665 68.0502 158.901 67.5729 157.435C67.0956 155.952 66.4223 154.81 65.553 154.009C64.6837 153.207 63.6524 152.807 62.4593 152.807C61.1979 152.807 60.1155 153.207 59.2121 154.009C58.3087 154.81 57.6183 155.952 57.1411 157.435C56.6638 158.901 56.4252 160.665 56.4252 162.727C56.4252 164.773 56.6638 166.537 57.1411 168.02C57.6183 169.503 58.3087 170.645 59.2121 171.446C60.1155 172.247 61.1979 172.648 62.4593 172.648ZM86.6365 182.364V143.091H100.75V157.102H103.205L111.591 143.091H127.75L115.171 162.932L127.852 182.364H111.489L103.921 170.193H100.75V182.364H86.6365ZM146.648 183.08C142.386 183.08 138.739 182.236 135.704 180.548C132.67 178.844 130.344 176.474 128.724 173.44C127.105 170.389 126.295 166.852 126.295 162.83C126.295 158.807 127.105 155.278 128.724 152.244C130.344 149.193 132.67 146.824 135.704 145.136C138.739 143.432 142.386 142.58 146.648 142.58C150.909 142.58 154.557 143.432 157.591 145.136C160.625 146.824 162.952 149.193 164.571 152.244C166.19 155.278 167 158.807 167 162.83C167 166.852 166.19 170.389 164.571 173.44C162.952 176.474 160.625 178.844 157.591 180.548C154.557 182.236 150.909 183.08 146.648 183.08ZM146.75 172.648C147.943 172.648 148.974 172.247 149.844 171.446C150.713 170.645 151.386 169.503 151.864 168.02C152.341 166.537 152.579 164.773 152.579 162.727C152.579 160.665 152.341 158.901 151.864 157.435C151.386 155.952 150.713 154.81 149.844 154.009C148.974 153.207 147.943 152.807 146.75 152.807C145.489 152.807 144.406 153.207 143.503 154.009C142.599 154.81 141.909 155.952 141.432 157.435C140.954 158.901 140.716 160.665 140.716 162.727C140.716 164.773 140.954 166.537 141.432 168.02C141.909 169.503 142.599 170.645 143.503 171.446C144.406 172.247 145.489 172.648 146.75 172.648ZM169.393 182.364L169.291 171.727H170.518C171.285 171.727 171.958 171.506 172.538 171.063C173.135 170.619 173.637 169.938 174.046 169.017C174.473 168.097 174.805 166.929 175.044 165.514C175.299 164.099 175.461 162.42 175.529 160.477L176.143 143.091H208.461V182.364H195.166V153.625H188.62L188.007 164.261C187.836 167.602 187.359 170.432 186.575 172.75C185.808 175.068 184.785 176.935 183.507 178.349C182.228 179.747 180.745 180.77 179.058 181.418C177.37 182.048 175.512 182.364 173.484 182.364H169.393ZM232.242 183.08C228.049 183.08 224.435 182.278 221.401 180.676C218.384 179.057 216.058 176.739 214.421 173.722C212.802 170.688 211.992 167.057 211.992 162.83C211.992 158.773 212.81 155.227 214.447 152.193C216.083 149.159 218.393 146.798 221.376 145.111C224.359 143.423 227.879 142.58 231.935 142.58C234.901 142.58 237.586 143.04 239.989 143.96C242.393 144.881 244.447 146.219 246.151 147.974C247.856 149.713 249.168 151.827 250.089 154.315C251.009 156.804 251.469 159.608 251.469 162.727V166H216.39V158.227H238.481C238.464 157.102 238.174 156.114 237.612 155.261C237.066 154.392 236.325 153.719 235.387 153.241C234.467 152.747 233.418 152.5 232.242 152.5C231.1 152.5 230.052 152.747 229.097 153.241C228.143 153.719 227.376 154.384 226.796 155.236C226.234 156.088 225.935 157.085 225.901 158.227V166.614C225.901 167.875 226.166 169 226.694 169.989C227.222 170.977 227.981 171.753 228.969 172.315C229.958 172.878 231.151 173.159 232.549 173.159C233.521 173.159 234.407 173.023 235.208 172.75C236.026 172.477 236.725 172.085 237.305 171.574C237.884 171.045 238.31 170.415 238.583 169.682H251.469C251.026 172.409 249.978 174.778 248.325 176.79C246.671 178.784 244.481 180.335 241.754 181.443C239.043 182.534 235.873 183.08 232.242 183.08ZM283.451 157.307V167.841H263.713V157.307H283.451ZM268.724 143.091V182.364H255.429V143.091H268.724ZM291.736 143.091V182.364H278.542V143.091H291.736ZM309.955 164.364L320.899 143.091H334.194V182.364H320.899V160.989L309.955 182.364H296.66V143.091H309.955V164.364ZM362.181 182.364V153.625H356.863C355.09 153.625 353.786 154.034 352.951 154.852C352.116 155.67 351.715 156.489 351.749 157.307C351.715 158.176 352.141 158.994 353.028 159.761C353.914 160.511 355.295 160.886 357.17 160.886H367.192V169.375H357.17C353.334 169.375 350.011 168.838 347.198 167.764C344.386 166.69 342.221 165.207 340.704 163.315C339.187 161.423 338.437 159.25 338.454 156.795C338.437 154.136 339.17 151.776 340.653 149.713C342.153 147.651 344.283 146.031 347.045 144.855C349.823 143.679 353.096 143.091 356.863 143.091H375.272V182.364H362.181ZM338.045 182.364L348.783 161.295H361.772L351.033 182.364H338.045Z" fill="#151515"/>
<path d="M310.48 92.3068V102.841H290.741V92.3068H310.48ZM295.752 78.0909V117.364H282.457V78.0909H295.752ZM318.764 78.0909V117.364H305.57V78.0909H318.764ZM342.609 118.08C338.347 118.08 334.699 117.236 331.665 115.548C328.631 113.844 326.305 111.474 324.685 108.44C323.066 105.389 322.256 101.852 322.256 97.8296C322.256 93.8068 323.066 90.2784 324.685 87.2443C326.305 84.1932 328.631 81.8239 331.665 80.1364C334.699 78.4318 338.347 77.5796 342.609 77.5796C346.87 77.5796 350.518 78.4318 353.552 80.1364C356.586 81.8239 358.913 84.1932 360.532 87.2443C362.151 90.2784 362.961 93.8068 362.961 97.8296C362.961 101.852 362.151 105.389 360.532 108.44C358.913 111.474 356.586 113.844 353.552 115.548C350.518 117.236 346.87 118.08 342.609 118.08ZM342.711 107.648C343.904 107.648 344.935 107.247 345.805 106.446C346.674 105.645 347.347 104.503 347.824 103.02C348.302 101.537 348.54 99.7727 348.54 97.7273C348.54 95.6648 348.302 93.9006 347.824 92.4347C347.347 90.9517 346.674 89.8097 345.805 89.0085C344.935 88.2074 343.904 87.8068 342.711 87.8068C341.449 87.8068 340.367 88.2074 339.464 89.0085C338.56 89.8097 337.87 90.9517 337.393 92.4347C336.915 93.9006 336.677 95.6648 336.677 97.7273C336.677 99.7727 336.915 101.537 337.393 103.02C337.87 104.503 338.56 105.645 339.464 106.446C340.367 107.247 341.449 107.648 342.711 107.648ZM366.888 117.364V78.0909H384.07C389.337 78.0909 393.479 78.9858 396.496 80.7756C399.53 82.5654 401.047 85.25 401.047 88.8296C401.047 90.7727 400.195 92.4943 398.49 93.9943C396.803 95.4943 394.348 96.5 391.127 97.0114C394.093 97.1477 396.496 97.6932 398.337 98.6477C400.195 99.5852 401.55 100.761 402.402 102.176C403.272 103.574 403.706 105.023 403.706 106.523C403.706 108.909 403.059 110.912 401.763 112.531C400.468 114.134 398.559 115.344 396.036 116.162C393.513 116.963 390.411 117.364 386.729 117.364H366.888ZM379.979 107.443H386.729C387.871 107.443 388.766 107.17 389.414 106.625C390.078 106.08 390.411 105.33 390.411 104.375C390.411 103.386 390.078 102.611 389.414 102.048C388.766 101.486 387.871 101.205 386.729 101.205H379.979V107.443ZM379.979 94.0455H384.479C385.212 94.0455 385.834 93.9347 386.345 93.7131C386.857 93.4744 387.249 93.1421 387.522 92.7159C387.811 92.2898 387.956 91.7784 387.956 91.1818C387.956 90.2784 387.607 89.5796 386.908 89.0852C386.226 88.5739 385.28 88.3182 384.07 88.3182H379.979V94.0455ZM426.266 118.08C422.005 118.08 418.357 117.236 415.323 115.548C412.289 113.844 409.962 111.474 408.343 108.44C406.724 105.389 405.914 101.852 405.914 97.8296C405.914 93.8068 406.724 90.2784 408.343 87.2443C409.962 84.1932 412.289 81.8239 415.323 80.1364C418.357 78.4318 422.005 77.5796 426.266 77.5796C430.528 77.5796 434.175 78.4318 437.21 80.1364C440.244 81.8239 442.57 84.1932 444.19 87.2443C445.809 90.2784 446.619 93.8068 446.619 97.8296C446.619 101.852 445.809 105.389 444.19 108.44C442.57 111.474 440.244 113.844 437.21 115.548C434.175 117.236 430.528 118.08 426.266 118.08ZM426.369 107.648C427.562 107.648 428.593 107.247 429.462 106.446C430.332 105.645 431.005 104.503 431.482 103.02C431.96 101.537 432.198 99.7727 432.198 97.7273C432.198 95.6648 431.96 93.9006 431.482 92.4347C431.005 90.9517 430.332 89.8097 429.462 89.0085C428.593 88.2074 427.562 87.8068 426.369 87.8068C425.107 87.8068 424.025 88.2074 423.121 89.0085C422.218 89.8097 421.528 90.9517 421.05 92.4347C420.573 93.9006 420.335 95.6648 420.335 97.7273C420.335 99.7727 420.573 101.537 421.05 103.02C421.528 104.503 422.218 105.645 423.121 106.446C424.025 107.247 425.107 107.648 426.369 107.648ZM479.182 78.0909V88.625H464.148V117.364H450.546V78.0909H479.182ZM500.502 118.08C496.241 118.08 492.593 117.236 489.559 115.548C486.525 113.844 484.198 111.474 482.579 108.44C480.96 105.389 480.15 101.852 480.15 97.8296C480.15 93.8068 480.96 90.2784 482.579 87.2443C484.198 84.1932 486.525 81.8239 489.559 80.1364C492.593 78.4318 496.241 77.5796 500.502 77.5796C504.764 77.5796 508.411 78.4318 511.445 80.1364C514.48 81.8239 516.806 84.1932 518.426 87.2443C520.045 90.2784 520.855 93.8068 520.855 97.8296C520.855 101.852 520.045 105.389 518.426 108.44C516.806 111.474 514.48 113.844 511.445 115.548C508.411 117.236 504.764 118.08 500.502 118.08ZM500.605 107.648C501.798 107.648 502.829 107.247 503.698 106.446C504.568 105.645 505.241 104.503 505.718 103.02C506.195 101.537 506.434 99.7727 506.434 97.7273C506.434 95.6648 506.195 93.9006 505.718 92.4347C505.241 90.9517 504.568 89.8097 503.698 89.0085C502.829 88.2074 501.798 87.8068 500.605 87.8068C499.343 87.8068 498.261 88.2074 497.357 89.0085C496.454 89.8097 495.764 90.9517 495.286 92.4347C494.809 93.9006 494.57 95.6648 494.57 97.7273C494.57 99.7727 494.809 101.537 495.286 103.02C495.764 104.503 496.454 105.645 497.357 106.446C498.261 107.247 499.343 107.648 500.605 107.648Z" fill="#1EC6A7"/>
</svg>
