<svg width="532" height="350" viewBox="0 0 532 350" fill="none" xmlns="http://www.w3.org/2000/svg">
<path d="M3.375 6.63636H21.0682L33.2386 36.2955H33.8523L46.0227 6.63636H63.7159V59H49.8068V28.7273H49.3977L37.7386 58.5909H29.3523L17.6932 28.5227H17.2841V59H3.375V6.63636ZM87.6759 59.7159C83.4827 59.7159 79.869 58.9148 76.8349 57.3125C73.8179 55.6932 71.4912 53.375 69.8548 50.358C68.2355 47.3239 67.4258 43.6932 67.4258 39.4659C67.4258 35.4091 68.244 31.8636 69.8804 28.8295C71.5168 25.7955 73.8264 23.4347 76.8094 21.7472C79.7923 20.0597 83.3122 19.2159 87.369 19.2159C90.3349 19.2159 93.0196 19.6761 95.423 20.5966C97.8264 21.517 99.8804 22.8551 101.585 24.6108C103.289 26.3494 104.602 28.4631 105.522 30.9517C106.443 33.4403 106.903 36.2443 106.903 39.3636V42.6364H71.8236V34.8636H93.9145C93.8974 33.7386 93.6077 32.75 93.0452 31.8977C92.4997 31.0284 91.7582 30.3551 90.8207 29.8778C89.9003 29.3835 88.852 29.1364 87.6759 29.1364C86.5338 29.1364 85.4855 29.3835 84.531 29.8778C83.5764 30.3551 82.8094 31.0199 82.2298 31.8722C81.6673 32.7244 81.369 33.7216 81.3349 34.8636V43.25C81.3349 44.5114 81.5991 45.6364 82.1276 46.625C82.656 47.6136 83.4145 48.3892 84.4031 48.9517C85.3918 49.5142 86.5849 49.7955 87.9827 49.7955C88.9543 49.7955 89.8406 49.6591 90.6418 49.3864C91.4599 49.1136 92.1588 48.7216 92.7384 48.2102C93.3179 47.6818 93.744 47.0511 94.0168 46.3182H106.903C106.46 49.0455 105.412 51.4148 103.758 53.4261C102.105 55.4205 99.9145 56.9716 97.1872 58.0795C94.477 59.1705 91.3065 59.7159 87.6759 59.7159ZM107.781 59L120.054 38.2386L107.781 19.7273H123.736L132.02 34.1477H132.634V19.7273H146.747V34.1477H147.361L155.645 19.7273H171.6L159.327 38.2386L171.6 59H155.236L147.259 44.6818H146.747V59H132.634V44.6818H132.122L124.145 59H107.781ZM191.897 59.7159C187.636 59.7159 183.988 58.8722 180.954 57.1847C177.92 55.4801 175.593 53.1108 173.974 50.0767C172.354 47.0256 171.545 43.4886 171.545 39.4659C171.545 35.4432 172.354 31.9148 173.974 28.8807C175.593 25.8295 177.92 23.4602 180.954 21.7727C183.988 20.0682 187.636 19.2159 191.897 19.2159C195.749 19.2159 199.082 19.9148 201.894 21.3125C204.724 22.6932 206.914 24.6534 208.465 27.1932C210.016 29.7159 210.8 32.6818 210.817 36.0909H197.726C197.539 34.0284 196.942 32.4602 195.937 31.3864C194.948 30.2955 193.67 29.75 192.101 29.75C190.874 29.75 189.8 30.108 188.88 30.8239C187.959 31.5227 187.243 32.5881 186.732 34.0199C186.221 35.4347 185.965 37.2159 185.965 39.3636C185.965 41.5114 186.221 43.3011 186.732 44.733C187.243 46.1477 187.959 47.2131 188.88 47.929C189.8 48.6278 190.874 48.9773 192.101 48.9773C193.141 48.9773 194.062 48.7386 194.863 48.2614C195.664 47.767 196.312 47.0511 196.806 46.1136C197.317 45.1591 197.624 44 197.726 42.6364H210.817C210.766 46.0966 209.974 49.1136 208.439 51.6875C206.905 54.2443 204.732 56.2216 201.92 57.6193C199.124 59.017 195.783 59.7159 191.897 59.7159ZM233.659 59.7159C229.465 59.7159 225.852 58.9148 222.818 57.3125C219.801 55.6932 217.474 53.375 215.838 50.358C214.218 47.3239 213.409 43.6932 213.409 39.4659C213.409 35.4091 214.227 31.8636 215.863 28.8295C217.5 25.7955 219.809 23.4347 222.792 21.7472C225.775 20.0597 229.295 19.2159 233.352 19.2159C236.318 19.2159 239.002 19.6761 241.406 20.5966C243.809 21.517 245.863 22.8551 247.568 24.6108C249.272 26.3494 250.585 28.4631 251.505 30.9517C252.426 33.4403 252.886 36.2443 252.886 39.3636V42.6364H217.806V34.8636H239.897C239.88 33.7386 239.59 32.75 239.028 31.8977C238.483 31.0284 237.741 30.3551 236.804 29.8778C235.883 29.3835 234.835 29.1364 233.659 29.1364C232.517 29.1364 231.468 29.3835 230.514 29.8778C229.559 30.3551 228.792 31.0199 228.213 31.8722C227.65 32.7244 227.352 33.7216 227.318 34.8636V43.25C227.318 44.5114 227.582 45.6364 228.11 46.625C228.639 47.6136 229.397 48.3892 230.386 48.9517C231.375 49.5142 232.568 49.7955 233.965 49.7955C234.937 49.7955 235.823 49.6591 236.625 49.3864C237.443 49.1136 238.142 48.7216 238.721 48.2102C239.301 47.6818 239.727 47.0511 240 46.3182H252.886C252.443 49.0455 251.394 51.4148 249.741 53.4261C248.088 55.4205 245.897 56.9716 243.17 58.0795C240.46 59.1705 237.289 59.7159 233.659 59.7159ZM254.199 30.2614V19.7273H292.244V30.2614H279.767V59H266.472V30.2614H254.199ZM313.52 59.7159C309.326 59.7159 305.713 58.9148 302.679 57.3125C299.662 55.6932 297.335 53.375 295.699 50.358C294.079 47.3239 293.27 43.6932 293.27 39.4659C293.27 35.4091 294.088 31.8636 295.724 28.8295C297.361 25.7955 299.67 23.4347 302.653 21.7472C305.636 20.0597 309.156 19.2159 313.213 19.2159C316.179 19.2159 318.863 19.6761 321.267 20.5966C323.67 21.517 325.724 22.8551 327.429 24.6108C329.133 26.3494 330.446 28.4631 331.366 30.9517C332.287 33.4403 332.747 36.2443 332.747 39.3636V42.6364H297.667V34.8636H319.758C319.741 33.7386 319.451 32.75 318.889 31.8977C318.343 31.0284 317.602 30.3551 316.665 29.8778C315.744 29.3835 314.696 29.1364 313.52 29.1364C312.378 29.1364 311.329 29.3835 310.375 29.8778C309.42 30.3551 308.653 31.0199 308.074 31.8722C307.511 32.7244 307.213 33.7216 307.179 34.8636V43.25C307.179 44.5114 307.443 45.6364 307.971 46.625C308.5 47.6136 309.258 48.3892 310.247 48.9517C311.236 49.5142 312.429 49.7955 313.826 49.7955C314.798 49.7955 315.684 49.6591 316.486 49.3864C317.304 49.1136 318.003 48.7216 318.582 48.2102C319.162 47.6818 319.588 47.0511 319.861 46.3182H332.747C332.304 49.0455 331.255 51.4148 329.602 53.4261C327.949 55.4205 325.758 56.9716 323.031 58.0795C320.321 59.1705 317.15 59.7159 313.52 59.7159ZM336.706 59V19.7273H353.888C359.155 19.7273 363.297 20.6222 366.314 22.4119C369.348 24.2017 370.865 26.8864 370.865 30.4659C370.865 32.4091 370.013 34.1307 368.308 35.6307C366.621 37.1307 364.166 38.1364 360.945 38.6477C363.911 38.7841 366.314 39.3295 368.155 40.2841C370.013 41.2216 371.368 42.3977 372.22 43.8125C373.09 45.2102 373.524 46.6591 373.524 48.1591C373.524 50.5455 372.877 52.5483 371.581 54.1676C370.286 55.7699 368.377 56.9801 365.854 57.7983C363.331 58.5994 360.229 59 356.547 59H336.706ZM349.797 49.0795H356.547C357.689 49.0795 358.584 48.8068 359.232 48.2614C359.896 47.7159 360.229 46.9659 360.229 46.0114C360.229 45.0227 359.896 44.2472 359.232 43.6847C358.584 43.1222 357.689 42.8409 356.547 42.8409H349.797V49.0795ZM349.797 35.6818H354.297C355.03 35.6818 355.652 35.571 356.163 35.3494C356.675 35.1108 357.067 34.7784 357.34 34.3523C357.629 33.9261 357.774 33.4148 357.774 32.8182C357.774 31.9148 357.425 31.2159 356.726 30.7216C356.044 30.2102 355.098 29.9545 353.888 29.9545H349.797V35.6818ZM385.039 30.3636H397.107C402.715 30.3636 407.13 31.6591 410.351 34.25C413.573 36.8239 415.192 40.3693 415.209 44.8864C415.192 47.8011 414.451 50.3153 412.985 52.429C411.536 54.5426 409.457 56.1705 406.746 57.3125C404.053 58.4375 400.84 59 397.107 59H377.164V19.7273H390.459V48.4659H397.107C398.556 48.4659 399.749 48.125 400.687 47.4432C401.624 46.7443 402.101 45.858 402.118 44.7841C402.101 43.642 401.624 42.7131 400.687 41.9972C399.749 41.2642 398.556 40.8977 397.107 40.8977H385.039V30.3636ZM418.073 59V19.7273H432.187V59H418.073ZM456.338 59.7159C452.145 59.7159 448.532 58.9148 445.497 57.3125C442.48 55.6932 440.154 53.375 438.517 50.358C436.898 47.3239 436.088 43.6932 436.088 39.4659C436.088 35.4091 436.907 31.8636 438.543 28.8295C440.179 25.7955 442.489 23.4347 445.472 21.7472C448.455 20.0597 451.975 19.2159 456.032 19.2159C458.997 19.2159 461.682 19.6761 464.086 20.5966C466.489 21.517 468.543 22.8551 470.247 24.6108C471.952 26.3494 473.264 28.4631 474.185 30.9517C475.105 33.4403 475.566 36.2443 475.566 39.3636V42.6364H440.486V34.8636H462.577C462.56 33.7386 462.27 32.75 461.708 31.8977C461.162 31.0284 460.421 30.3551 459.483 29.8778C458.563 29.3835 457.514 29.1364 456.338 29.1364C455.196 29.1364 454.148 29.3835 453.193 29.8778C452.239 30.3551 451.472 31.0199 450.892 31.8722C450.33 32.7244 450.032 33.7216 449.997 34.8636V43.25C449.997 44.5114 450.262 45.6364 450.79 46.625C451.318 47.6136 452.077 48.3892 453.066 48.9517C454.054 49.5142 455.247 49.7955 456.645 49.7955C457.617 49.7955 458.503 49.6591 459.304 49.3864C460.122 49.1136 460.821 48.7216 461.401 48.2102C461.98 47.6818 462.407 47.0511 462.679 46.3182H475.566C475.122 49.0455 474.074 51.4148 472.421 53.4261C470.767 55.4205 468.577 56.9716 465.85 58.0795C463.139 59.1705 459.969 59.7159 456.338 59.7159ZM19.125 94.8523C17.9659 94.8523 17.0455 95.0227 16.3636 95.3636C15.6989 95.7045 15.2216 96.2074 14.9318 96.8722C14.6591 97.5199 14.5227 98.3466 14.5227 99.3523H2.14773C2.14773 96.9489 2.55682 94.8011 3.375 92.9091C4.19318 91 5.3608 89.3892 6.87784 88.0767C8.39489 86.7472 10.1847 85.7415 12.2472 85.0597C14.3267 84.3608 16.6193 84.0114 19.125 84.0114C23.3182 84.0114 26.8295 84.8807 29.6591 86.6193C32.5057 88.3409 34.6449 90.7102 36.0767 93.7273C37.5256 96.7443 38.25 100.187 38.25 104.057V104.67C38.25 108.574 37.5341 112.034 36.1023 115.051C34.6875 118.068 32.5568 120.437 29.7102 122.159C26.8807 123.864 23.3523 124.716 19.125 124.716C15.75 124.716 12.7841 124.102 10.2273 122.875C7.6875 121.631 5.7017 119.798 4.26989 117.378C2.85511 114.94 2.14773 111.932 2.14773 108.352H14.5227C14.5227 109.375 14.6591 110.295 14.9318 111.114C15.2216 111.932 15.6989 112.58 16.3636 113.057C17.0455 113.517 17.9659 113.756 19.125 113.773C20.9659 113.756 22.2955 113.278 23.1136 112.341C23.9318 111.403 24.4432 110.236 24.6477 108.838C24.8523 107.423 24.9545 106.034 24.9545 104.67V104.057C24.9545 102.437 24.8352 100.929 24.5966 99.5312C24.375 98.1335 23.8466 97.0085 23.0114 96.1562C22.1932 95.2869 20.8977 94.8523 19.125 94.8523ZM28.5341 100.989V107.943H16.875V100.989H28.5341ZM42.2092 124V84.7273H56.3229V98.7386H58.7774L67.1638 84.7273H83.3229L70.7433 104.568L83.4251 124H67.0615L59.4933 111.83H56.3229V124H42.2092ZM84.917 138.727V84.7273H98.9284V91.5795H99.2352C99.7466 90.25 100.497 89.0312 101.485 87.9233C102.474 86.7983 103.701 85.9034 105.167 85.2386C106.633 84.5568 108.338 84.2159 110.281 84.2159C112.872 84.2159 115.335 84.9062 117.67 86.2869C120.022 87.6676 121.931 89.8409 123.397 92.8068C124.88 95.7727 125.622 99.625 125.622 104.364C125.622 108.898 124.914 112.656 123.499 115.639C122.102 118.622 120.227 120.847 117.874 122.312C115.539 123.778 112.974 124.511 110.178 124.511C108.338 124.511 106.693 124.213 105.244 123.616C103.812 123.003 102.585 122.176 101.562 121.136C100.556 120.08 99.7807 118.886 99.2352 117.557H99.0307V138.727H84.917ZM98.7239 104.364C98.7239 106.273 98.971 107.926 99.4653 109.324C99.9767 110.705 100.693 111.778 101.613 112.545C102.551 113.295 103.667 113.67 104.963 113.67C106.258 113.67 107.357 113.304 108.261 112.571C109.181 111.821 109.88 110.756 110.357 109.375C110.852 107.977 111.099 106.307 111.099 104.364C111.099 102.42 110.852 100.759 110.357 99.3778C109.88 97.9801 109.181 96.9148 108.261 96.1818C107.357 95.4318 106.258 95.0568 104.963 95.0568C103.667 95.0568 102.551 95.4318 101.613 96.1818C100.693 96.9148 99.9767 97.9801 99.4653 99.3778C98.971 100.759 98.7239 102.42 98.7239 104.364ZM140.677 124.614C138.172 124.614 135.956 124.205 134.03 123.386C132.121 122.551 130.621 121.29 129.53 119.602C128.439 117.915 127.893 115.767 127.893 113.159C127.893 111.011 128.26 109.179 128.993 107.662C129.726 106.128 130.748 104.875 132.061 103.903C133.373 102.932 134.899 102.19 136.638 101.679C138.393 101.168 140.285 100.835 142.314 100.682C144.513 100.511 146.277 100.307 147.606 100.068C148.953 99.8125 149.925 99.4631 150.521 99.0199C151.118 98.5597 151.416 97.9545 151.416 97.2045V97.1023C151.416 96.0795 151.024 95.2955 150.24 94.75C149.456 94.2045 148.45 93.9318 147.223 93.9318C145.876 93.9318 144.777 94.2301 143.925 94.8267C143.089 95.4062 142.587 96.3011 142.416 97.5114H129.427C129.598 95.125 130.356 92.9261 131.703 90.9148C133.067 88.8864 135.052 87.267 137.66 86.0568C140.268 84.8295 143.524 84.2159 147.427 84.2159C150.24 84.2159 152.763 84.5483 154.996 85.2131C157.229 85.8608 159.129 86.7727 160.697 87.9489C162.265 89.108 163.459 90.4716 164.277 92.0398C165.112 93.5909 165.53 95.2784 165.53 97.1023V124H152.337V118.477H152.03C151.246 119.943 150.291 121.128 149.166 122.031C148.058 122.935 146.788 123.591 145.356 124C143.942 124.409 142.382 124.614 140.677 124.614ZM145.28 115.716C146.354 115.716 147.359 115.494 148.297 115.051C149.251 114.608 150.027 113.969 150.623 113.134C151.22 112.298 151.518 111.284 151.518 110.091V106.818C151.143 106.972 150.743 107.116 150.317 107.253C149.908 107.389 149.464 107.517 148.987 107.636C148.527 107.756 148.033 107.866 147.504 107.969C146.993 108.071 146.456 108.165 145.893 108.25C144.802 108.42 143.908 108.702 143.209 109.094C142.527 109.469 142.015 109.938 141.675 110.5C141.351 111.045 141.189 111.659 141.189 112.341C141.189 113.432 141.572 114.267 142.339 114.847C143.106 115.426 144.087 115.716 145.28 115.716ZM198.496 98.9432V109.477H178.757V98.9432H198.496ZM183.769 84.7273V124H170.473V84.7273H183.769ZM206.78 84.7273V124H193.587V84.7273H206.78ZM219.58 95.3636H231.648C237.256 95.3636 241.67 96.6591 244.892 99.25C248.114 101.824 249.733 105.369 249.75 109.886C249.733 112.801 248.991 115.315 247.526 117.429C246.077 119.543 243.997 121.17 241.287 122.312C238.594 123.438 235.381 124 231.648 124H211.705V84.7273H225V113.466H231.648C233.097 113.466 234.29 113.125 235.227 112.443C236.165 111.744 236.642 110.858 236.659 109.784C236.642 108.642 236.165 107.713 235.227 106.997C234.29 106.264 233.097 105.898 231.648 105.898H219.58V95.3636ZM252.614 124V84.7273H266.727V124H252.614ZM3.57955 189V149.727H40.1932V189H26.8977V160.261H16.6705V189H3.57955ZM64.5047 189.716C60.2433 189.716 56.5956 188.872 53.5615 187.185C50.5274 185.48 48.2007 183.111 46.5814 180.077C44.9621 177.026 44.1524 173.489 44.1524 169.466C44.1524 165.443 44.9621 161.915 46.5814 158.881C48.2007 155.83 50.5274 153.46 53.5615 151.773C56.5956 150.068 60.2433 149.216 64.5047 149.216C68.7661 149.216 72.4138 150.068 75.4479 151.773C78.482 153.46 80.8087 155.83 82.428 158.881C84.0473 161.915 84.857 165.443 84.857 169.466C84.857 173.489 84.0473 177.026 82.428 180.077C80.8087 183.111 78.482 185.48 75.4479 187.185C72.4138 188.872 68.7661 189.716 64.5047 189.716ZM64.607 179.284C65.8001 179.284 66.8314 178.884 67.7007 178.082C68.57 177.281 69.2433 176.139 69.7206 174.656C70.1979 173.173 70.4365 171.409 70.4365 169.364C70.4365 167.301 70.1979 165.537 69.7206 164.071C69.2433 162.588 68.57 161.446 67.7007 160.645C66.8314 159.844 65.8001 159.443 64.607 159.443C63.3456 159.443 62.2632 159.844 61.3598 160.645C60.4564 161.446 59.7661 162.588 59.2888 164.071C58.8115 165.537 58.5729 167.301 58.5729 169.364C58.5729 171.409 58.8115 173.173 59.2888 174.656C59.7661 176.139 60.4564 177.281 61.3598 178.082C62.2632 178.884 63.3456 179.284 64.607 179.284ZM88.7842 189V149.727H102.898V163.739H105.352L113.739 149.727H129.898L117.318 169.568L130 189H113.637L106.068 176.83H102.898V189H88.7842ZM148.795 189.716C144.534 189.716 140.886 188.872 137.852 187.185C134.818 185.48 132.491 183.111 130.872 180.077C129.253 177.026 128.443 173.489 128.443 169.466C128.443 165.443 129.253 161.915 130.872 158.881C132.491 155.83 134.818 153.46 137.852 151.773C140.886 150.068 144.534 149.216 148.795 149.216C153.057 149.216 156.704 150.068 159.738 151.773C162.773 153.46 165.099 155.83 166.719 158.881C168.338 161.915 169.148 165.443 169.148 169.466C169.148 173.489 168.338 177.026 166.719 180.077C165.099 183.111 162.773 185.48 159.738 187.185C156.704 188.872 153.057 189.716 148.795 189.716ZM148.898 179.284C150.091 179.284 151.122 178.884 151.991 178.082C152.861 177.281 153.534 176.139 154.011 174.656C154.488 173.173 154.727 171.409 154.727 169.364C154.727 167.301 154.488 165.537 154.011 164.071C153.534 162.588 152.861 161.446 151.991 160.645C151.122 159.844 150.091 159.443 148.898 159.443C147.636 159.443 146.554 159.844 145.65 160.645C144.747 161.446 144.057 162.588 143.579 164.071C143.102 165.537 142.863 167.301 142.863 169.364C142.863 171.409 143.102 173.173 143.579 174.656C144.057 176.139 144.747 177.281 145.65 178.082C146.554 178.884 147.636 179.284 148.898 179.284ZM171.541 189L171.438 178.364H172.666C173.433 178.364 174.106 178.142 174.686 177.699C175.282 177.256 175.785 176.574 176.194 175.653C176.62 174.733 176.953 173.565 177.191 172.151C177.447 170.736 177.609 169.057 177.677 167.114L178.291 149.727H210.609V189H197.313V160.261H190.768L190.154 170.898C189.984 174.239 189.507 177.068 188.723 179.386C187.956 181.705 186.933 183.571 185.654 184.986C184.376 186.384 182.893 187.406 181.206 188.054C179.518 188.685 177.66 189 175.632 189H171.541ZM234.39 189.716C230.197 189.716 226.583 188.915 223.549 187.312C220.532 185.693 218.205 183.375 216.569 180.358C214.95 177.324 214.14 173.693 214.14 169.466C214.14 165.409 214.958 161.864 216.594 158.83C218.231 155.795 220.54 153.435 223.523 151.747C226.506 150.06 230.026 149.216 234.083 149.216C237.049 149.216 239.734 149.676 242.137 150.597C244.54 151.517 246.594 152.855 248.299 154.611C250.004 156.349 251.316 158.463 252.237 160.952C253.157 163.44 253.617 166.244 253.617 169.364V172.636H218.538V164.864H240.629C240.612 163.739 240.322 162.75 239.759 161.898C239.214 161.028 238.472 160.355 237.535 159.878C236.614 159.384 235.566 159.136 234.39 159.136C233.248 159.136 232.2 159.384 231.245 159.878C230.29 160.355 229.523 161.02 228.944 161.872C228.381 162.724 228.083 163.722 228.049 164.864V173.25C228.049 174.511 228.313 175.636 228.842 176.625C229.37 177.614 230.129 178.389 231.117 178.952C232.106 179.514 233.299 179.795 234.697 179.795C235.668 179.795 236.555 179.659 237.356 179.386C238.174 179.114 238.873 178.722 239.452 178.21C240.032 177.682 240.458 177.051 240.731 176.318H253.617C253.174 179.045 252.126 181.415 250.472 183.426C248.819 185.42 246.629 186.972 243.901 188.08C241.191 189.17 238.021 189.716 234.39 189.716ZM285.599 163.943V174.477H265.861V163.943H285.599ZM270.872 149.727V189H257.576V149.727H270.872ZM293.883 149.727V189H280.69V149.727H293.883ZM312.103 171L323.046 149.727H336.342V189H323.046V167.625L312.103 189H298.808V149.727H312.103V171ZM364.329 189V160.261H359.011C357.238 160.261 355.934 160.67 355.099 161.489C354.263 162.307 353.863 163.125 353.897 163.943C353.863 164.812 354.289 165.631 355.175 166.398C356.062 167.148 357.442 167.523 359.317 167.523H369.34V176.011H359.317C355.482 176.011 352.158 175.474 349.346 174.401C346.533 173.327 344.368 171.844 342.851 169.952C341.334 168.06 340.584 165.886 340.601 163.432C340.584 160.773 341.317 158.412 342.8 156.349C344.3 154.287 346.431 152.668 349.192 151.491C351.971 150.315 355.243 149.727 359.011 149.727H377.42V189H364.329ZM340.192 189L350.931 167.932H363.92L353.181 189H340.192Z" fill="#151515"/>
<path d="M312.627 98.9432V109.477H292.889V98.9432H312.627ZM297.9 84.7273V124H284.605V84.7273H297.9ZM320.911 84.7273V124H307.718V84.7273H320.911ZM344.756 124.716C340.495 124.716 336.847 123.872 333.813 122.185C330.779 120.48 328.452 118.111 326.833 115.077C325.214 112.026 324.404 108.489 324.404 104.466C324.404 100.443 325.214 96.9148 326.833 93.8807C328.452 90.8295 330.779 88.4602 333.813 86.7727C336.847 85.0682 340.495 84.2159 344.756 84.2159C349.018 84.2159 352.665 85.0682 355.699 86.7727C358.734 88.4602 361.06 90.8295 362.68 93.8807C364.299 96.9148 365.109 100.443 365.109 104.466C365.109 108.489 364.299 112.026 362.68 115.077C361.06 118.111 358.734 120.48 355.699 122.185C352.665 123.872 349.018 124.716 344.756 124.716ZM344.859 114.284C346.052 114.284 347.083 113.884 347.952 113.082C348.822 112.281 349.495 111.139 349.972 109.656C350.449 108.173 350.688 106.409 350.688 104.364C350.688 102.301 350.449 100.537 349.972 99.071C349.495 97.5881 348.822 96.446 347.952 95.6449C347.083 94.8437 346.052 94.4432 344.859 94.4432C343.597 94.4432 342.515 94.8437 341.611 95.6449C340.708 96.446 340.018 97.5881 339.54 99.071C339.063 100.537 338.824 102.301 338.824 104.364C338.824 106.409 339.063 108.173 339.54 109.656C340.018 111.139 340.708 112.281 341.611 113.082C342.515 113.884 343.597 114.284 344.859 114.284ZM369.036 124V84.7273H386.218C391.485 84.7273 395.627 85.6222 398.644 87.4119C401.678 89.2017 403.195 91.8864 403.195 95.4659C403.195 97.4091 402.343 99.1307 400.638 100.631C398.951 102.131 396.496 103.136 393.274 103.648C396.24 103.784 398.644 104.33 400.485 105.284C402.343 106.222 403.698 107.398 404.55 108.812C405.419 110.21 405.854 111.659 405.854 113.159C405.854 115.545 405.206 117.548 403.911 119.168C402.615 120.77 400.706 121.98 398.184 122.798C395.661 123.599 392.559 124 388.877 124H369.036ZM382.127 114.08H388.877C390.019 114.08 390.914 113.807 391.561 113.261C392.226 112.716 392.559 111.966 392.559 111.011C392.559 110.023 392.226 109.247 391.561 108.685C390.914 108.122 390.019 107.841 388.877 107.841H382.127V114.08ZM382.127 100.682H386.627C387.36 100.682 387.982 100.571 388.493 100.349C389.005 100.111 389.397 99.7784 389.669 99.3523C389.959 98.9261 390.104 98.4148 390.104 97.8182C390.104 96.9148 389.755 96.2159 389.056 95.7216C388.374 95.2102 387.428 94.9545 386.218 94.9545H382.127V100.682ZM428.414 124.716C424.153 124.716 420.505 123.872 417.471 122.185C414.437 120.48 412.11 118.111 410.491 115.077C408.871 112.026 408.062 108.489 408.062 104.466C408.062 100.443 408.871 96.9148 410.491 93.8807C412.11 90.8295 414.437 88.4602 417.471 86.7727C420.505 85.0682 424.153 84.2159 428.414 84.2159C432.675 84.2159 436.323 85.0682 439.357 86.7727C442.391 88.4602 444.718 90.8295 446.337 93.8807C447.957 96.9148 448.766 100.443 448.766 104.466C448.766 108.489 447.957 112.026 446.337 115.077C444.718 118.111 442.391 120.48 439.357 122.185C436.323 123.872 432.675 124.716 428.414 124.716ZM428.516 114.284C429.71 114.284 430.741 113.884 431.61 113.082C432.479 112.281 433.153 111.139 433.63 109.656C434.107 108.173 434.346 106.409 434.346 104.364C434.346 102.301 434.107 100.537 433.63 99.071C433.153 97.5881 432.479 96.446 431.61 95.6449C430.741 94.8437 429.71 94.4432 428.516 94.4432C427.255 94.4432 426.173 94.8437 425.269 95.6449C424.366 96.446 423.675 97.5881 423.198 99.071C422.721 100.537 422.482 102.301 422.482 104.364C422.482 106.409 422.721 108.173 423.198 109.656C423.675 111.139 424.366 112.281 425.269 113.082C426.173 113.884 427.255 114.284 428.516 114.284ZM481.33 84.7273V95.2614H466.296V124H452.694V84.7273H481.33ZM502.65 124.716C498.389 124.716 494.741 123.872 491.707 122.185C488.673 120.48 486.346 118.111 484.727 115.077C483.107 112.026 482.298 108.489 482.298 104.466C482.298 100.443 483.107 96.9148 484.727 93.8807C486.346 90.8295 488.673 88.4602 491.707 86.7727C494.741 85.0682 498.389 84.2159 502.65 84.2159C506.911 84.2159 510.559 85.0682 513.593 86.7727C516.627 88.4602 518.954 90.8295 520.573 93.8807C522.193 96.9148 523.002 100.443 523.002 104.466C523.002 108.489 522.193 112.026 520.573 115.077C518.954 118.111 516.627 120.48 513.593 122.185C510.559 123.872 506.911 124.716 502.65 124.716ZM502.752 114.284C503.945 114.284 504.977 113.884 505.846 113.082C506.715 112.281 507.389 111.139 507.866 109.656C508.343 108.173 508.582 106.409 508.582 104.364C508.582 102.301 508.343 100.537 507.866 99.071C507.389 97.5881 506.715 96.446 505.846 95.6449C504.977 94.8437 503.945 94.4432 502.752 94.4432C501.491 94.4432 500.409 94.8437 499.505 95.6449C498.602 96.446 497.911 97.5881 497.434 99.071C496.957 100.537 496.718 102.301 496.718 104.364C496.718 106.409 496.957 108.173 497.434 109.656C497.911 111.139 498.602 112.281 499.505 113.082C500.409 113.884 501.491 114.284 502.752 114.284Z" fill="#1EC6A7"/>
<path d="M7.056 243.162C5.808 243.162 4.74 242.898 3.852 242.37C2.964 241.842 2.28 241.092 1.8 240.12C1.332 239.148 1.098 237.99 1.098 236.646C1.098 235.314 1.332 234.162 1.8 233.19C2.28 232.218 2.964 231.468 3.852 230.94C4.74 230.412 5.808 230.148 7.056 230.148C7.932 230.148 8.736 230.286 9.468 230.562C10.212 230.838 10.842 231.24 11.358 231.768L10.782 232.974C10.23 232.458 9.654 232.086 9.054 231.858C8.466 231.618 7.812 231.498 7.092 231.498C5.664 231.498 4.572 231.948 3.816 232.848C3.06 233.748 2.682 235.014 2.682 236.646C2.682 238.29 3.06 239.562 3.816 240.462C4.572 241.362 5.664 241.812 7.092 241.812C7.812 241.812 8.466 241.698 9.054 241.47C9.654 241.23 10.23 240.852 10.782 240.336L11.358 241.542C10.842 242.058 10.212 242.46 9.468 242.748C8.736 243.024 7.932 243.162 7.056 243.162ZM17.0295 243.162C16.1775 243.162 15.4395 242.976 14.8155 242.604C14.1915 242.232 13.7055 241.71 13.3575 241.038C13.0215 240.354 12.8535 239.55 12.8535 238.626C12.8535 237.702 13.0215 236.904 13.3575 236.232C13.7055 235.548 14.1915 235.02 14.8155 234.648C15.4395 234.276 16.1775 234.09 17.0295 234.09C17.8695 234.09 18.6015 234.276 19.2255 234.648C19.8615 235.02 20.3475 235.548 20.6835 236.232C21.0315 236.904 21.2055 237.702 21.2055 238.626C21.2055 239.55 21.0315 240.354 20.6835 241.038C20.3475 241.71 19.8615 242.232 19.2255 242.604C18.6015 242.976 17.8695 243.162 17.0295 243.162ZM17.0295 241.992C17.8455 241.992 18.4995 241.704 18.9915 241.128C19.4835 240.54 19.7295 239.706 19.7295 238.626C19.7295 237.534 19.4835 236.7 18.9915 236.124C18.4995 235.548 17.8455 235.26 17.0295 235.26C16.2015 235.26 15.5415 235.548 15.0495 236.124C14.5695 236.7 14.3295 237.534 14.3295 238.626C14.3295 239.706 14.5695 240.54 15.0495 241.128C15.5415 241.704 16.2015 241.992 17.0295 241.992ZM23.5709 243V234.252H25.0289V237.906H26.6669L29.5289 234.252H31.1309L28.0889 238.194C28.4009 238.314 28.6829 238.512 28.9349 238.788C29.1869 239.064 29.4689 239.46 29.7809 239.976L31.5809 243H30.0149L28.4309 240.354C28.1309 239.838 27.8429 239.496 27.5669 239.328C27.2909 239.16 26.9009 239.076 26.3969 239.076H25.0289V243H23.5709ZM33.0635 246.24V234.252H34.4855V235.818C34.7495 235.278 35.1395 234.858 35.6555 234.558C36.1835 234.246 36.7955 234.09 37.4915 234.09C38.2715 234.09 38.9495 234.276 39.5255 234.648C40.1135 235.008 40.5635 235.53 40.8755 236.214C41.1995 236.886 41.3615 237.69 41.3615 238.626C41.3615 239.55 41.1995 240.354 40.8755 241.038C40.5635 241.71 40.1135 242.232 39.5255 242.604C38.9495 242.976 38.2715 243.162 37.4915 243.162C36.8195 243.162 36.2195 243.012 35.6915 242.712C35.1635 242.412 34.7735 241.998 34.5215 241.47V246.24H33.0635ZM37.1855 241.992C38.0015 241.992 38.6555 241.704 39.1475 241.128C39.6395 240.54 39.8855 239.706 39.8855 238.626C39.8855 237.534 39.6395 236.7 39.1475 236.124C38.6555 235.548 38.0015 235.26 37.1855 235.26C36.3695 235.26 35.7155 235.548 35.2235 236.124C34.7315 236.7 34.4855 237.534 34.4855 238.626C34.4855 239.706 34.7315 240.54 35.2235 241.128C35.7155 241.704 36.3695 241.992 37.1855 241.992ZM46.4874 243.162C45.8874 243.162 45.3474 243.048 44.8674 242.82C44.3994 242.58 44.0274 242.256 43.7514 241.848C43.4754 241.44 43.3374 240.984 43.3374 240.48C43.3374 239.844 43.4994 239.34 43.8234 238.968C44.1594 238.596 44.7054 238.332 45.4614 238.176C46.2294 238.008 47.2734 237.924 48.5934 237.924H49.1694V237.366C49.1694 236.622 49.0134 236.088 48.7014 235.764C48.4014 235.428 47.9154 235.26 47.2434 235.26C46.7154 235.26 46.2054 235.338 45.7134 235.494C45.2214 235.638 44.7174 235.878 44.2014 236.214L43.6974 235.152C44.1534 234.828 44.7054 234.57 45.3534 234.378C46.0134 234.186 46.6434 234.09 47.2434 234.09C48.3714 234.09 49.2054 234.366 49.7454 234.918C50.2974 235.47 50.5734 236.328 50.5734 237.492V243H49.2054V241.488C48.9774 242.004 48.6234 242.412 48.1434 242.712C47.6754 243.012 47.1234 243.162 46.4874 243.162ZM46.7214 242.064C47.4414 242.064 48.0294 241.818 48.4854 241.326C48.9414 240.822 49.1694 240.186 49.1694 239.418V238.878H48.6114C47.6394 238.878 46.8714 238.926 46.3074 239.022C45.7554 239.106 45.3654 239.262 45.1374 239.49C44.9214 239.706 44.8134 240.006 44.8134 240.39C44.8134 240.882 44.9814 241.284 45.3174 241.596C45.6654 241.908 46.1334 242.064 46.7214 242.064ZM55.2365 243V235.422H52.0685V234.252H59.8805V235.422H56.6945V243H55.2365ZM61.4166 243V234.252H62.7486V241.02L67.8066 234.252H69.0486V243H67.7166V236.232L62.6586 243H61.4166ZM73.7463 243V235.422H70.5783V234.252H78.3903V235.422H75.2043V243H73.7463ZM83.8512 243.162C82.4712 243.162 81.3792 242.76 80.5752 241.956C79.7712 241.14 79.3692 240.036 79.3692 238.644C79.3692 237.744 79.5492 236.952 79.9092 236.268C80.2692 235.572 80.7612 235.038 81.3852 234.666C82.0212 234.282 82.7532 234.09 83.5812 234.09C84.7692 234.09 85.6992 234.474 86.3712 235.242C87.0432 235.998 87.3792 237.042 87.3792 238.374V238.932H80.7912C80.8392 239.928 81.1272 240.69 81.6552 241.218C82.1832 241.734 82.9152 241.992 83.8512 241.992C84.3792 241.992 84.8832 241.914 85.3632 241.758C85.8432 241.59 86.2992 241.32 86.7312 240.948L87.2352 241.974C86.8392 242.346 86.3352 242.64 85.7232 242.856C85.1112 243.06 84.4872 243.162 83.8512 243.162ZM83.6172 235.17C82.7892 235.17 82.1352 235.428 81.6552 235.944C81.1752 236.46 80.8932 237.138 80.8092 237.978H86.1192C86.0832 237.09 85.8492 236.4 85.4172 235.908C84.9972 235.416 84.3972 235.17 83.6172 235.17ZM97.1681 243.162C96.4121 243.162 95.6981 243.066 95.0261 242.874C94.3661 242.67 93.8321 242.388 93.4241 242.028L93.8921 241.002C94.3121 241.338 94.8041 241.596 95.3681 241.776C95.9321 241.944 96.5201 242.028 97.1321 242.028C97.9961 242.028 98.6141 241.902 98.9861 241.65C99.3701 241.398 99.5621 241.026 99.5621 240.534C99.5621 239.586 98.9561 239.112 97.7441 239.112H95.6741V238.014H97.5641C98.0801 238.014 98.4881 237.894 98.7881 237.654C99.1001 237.414 99.2561 237.078 99.2561 236.646C99.2561 236.214 99.0881 235.872 98.7521 235.62C98.4161 235.356 97.8761 235.224 97.1321 235.224C95.9681 235.224 94.9361 235.542 94.0361 236.178L93.5681 235.152C94.5521 234.444 95.8001 234.09 97.3121 234.09C98.4281 234.09 99.2621 234.306 99.8141 234.738C100.366 235.17 100.642 235.776 100.642 236.556C100.642 237 100.51 237.396 100.246 237.744C99.9941 238.08 99.6461 238.326 99.2021 238.482C99.7421 238.614 100.168 238.866 100.48 239.238C100.792 239.598 100.948 240.048 100.948 240.588C100.948 241.368 100.63 241.992 99.9941 242.46C99.3581 242.928 98.4161 243.162 97.1681 243.162ZM105.989 243.162C105.389 243.162 104.849 243.048 104.369 242.82C103.901 242.58 103.529 242.256 103.253 241.848C102.977 241.44 102.839 240.984 102.839 240.48C102.839 239.844 103.001 239.34 103.325 238.968C103.661 238.596 104.207 238.332 104.963 238.176C105.731 238.008 106.775 237.924 108.095 237.924H108.671V237.366C108.671 236.622 108.515 236.088 108.203 235.764C107.903 235.428 107.417 235.26 106.745 235.26C106.217 235.26 105.707 235.338 105.215 235.494C104.723 235.638 104.219 235.878 103.703 236.214L103.199 235.152C103.655 234.828 104.207 234.57 104.855 234.378C105.515 234.186 106.145 234.09 106.745 234.09C107.873 234.09 108.707 234.366 109.247 234.918C109.799 235.47 110.075 236.328 110.075 237.492V243H108.707V241.488C108.479 242.004 108.125 242.412 107.645 242.712C107.177 243.012 106.625 243.162 105.989 243.162ZM106.223 242.064C106.943 242.064 107.531 241.818 107.987 241.326C108.443 240.822 108.671 240.186 108.671 239.418V238.878H108.113C107.141 238.878 106.373 238.926 105.809 239.022C105.257 239.106 104.867 239.262 104.639 239.49C104.423 239.706 104.315 240.006 104.315 240.39C104.315 240.882 104.483 241.284 104.819 241.596C105.167 241.908 105.635 242.064 106.223 242.064ZM114.738 243V235.422H111.57V234.252H119.382V235.422H116.196V243H114.738ZM120.937 246.24V234.252H122.359V235.818C122.623 235.278 123.013 234.858 123.529 234.558C124.057 234.246 124.669 234.09 125.365 234.09C126.145 234.09 126.823 234.276 127.399 234.648C127.987 235.008 128.437 235.53 128.749 236.214C129.073 236.886 129.235 237.69 129.235 238.626C129.235 239.55 129.073 240.354 128.749 241.038C128.437 241.71 127.987 242.232 127.399 242.604C126.823 242.976 126.145 243.162 125.365 243.162C124.693 243.162 124.093 243.012 123.565 242.712C123.037 242.412 122.647 241.998 122.395 241.47V246.24H120.937ZM125.059 241.992C125.875 241.992 126.529 241.704 127.021 241.128C127.513 240.54 127.759 239.706 127.759 238.626C127.759 237.534 127.513 236.7 127.021 236.124C126.529 235.548 125.875 235.26 125.059 235.26C124.243 235.26 123.589 235.548 123.097 236.124C122.605 236.7 122.359 237.534 122.359 238.626C122.359 239.706 122.605 240.54 123.097 241.128C123.589 241.704 124.243 241.992 125.059 241.992ZM134.36 243.162C133.76 243.162 133.22 243.048 132.74 242.82C132.272 242.58 131.9 242.256 131.624 241.848C131.348 241.44 131.21 240.984 131.21 240.48C131.21 239.844 131.372 239.34 131.696 238.968C132.032 238.596 132.578 238.332 133.334 238.176C134.102 238.008 135.146 237.924 136.466 237.924H137.042V237.366C137.042 236.622 136.886 236.088 136.574 235.764C136.274 235.428 135.788 235.26 135.116 235.26C134.588 235.26 134.078 235.338 133.586 235.494C133.094 235.638 132.59 235.878 132.074 236.214L131.57 235.152C132.026 234.828 132.578 234.57 133.226 234.378C133.886 234.186 134.516 234.09 135.116 234.09C136.244 234.09 137.078 234.366 137.618 234.918C138.17 235.47 138.446 236.328 138.446 237.492V243H137.078V241.488C136.85 242.004 136.496 242.412 136.016 242.712C135.548 243.012 134.996 243.162 134.36 243.162ZM134.594 242.064C135.314 242.064 135.902 241.818 136.358 241.326C136.814 240.822 137.042 240.186 137.042 239.418V238.878H136.484C135.512 238.878 134.744 238.926 134.18 239.022C133.628 239.106 133.238 239.262 133.01 239.49C132.794 239.706 132.686 240.006 132.686 240.39C132.686 240.882 132.854 241.284 133.19 241.596C133.538 241.908 134.006 242.064 134.594 242.064ZM143.11 243V235.422H139.942V234.252H147.754V235.422H144.568V243H143.11ZM149.29 243V234.252H150.748V237.366H153.394C154.51 237.366 155.356 237.612 155.932 238.104C156.508 238.584 156.796 239.268 156.796 240.156C156.796 241.032 156.496 241.728 155.896 242.244C155.308 242.748 154.474 243 153.394 243H149.29ZM158.092 243V234.252H159.55V243H158.092ZM150.748 241.956H153.25C153.922 241.956 154.444 241.812 154.816 241.524C155.2 241.236 155.392 240.786 155.392 240.174C155.392 239.574 155.206 239.13 154.834 238.842C154.462 238.554 153.934 238.41 153.25 238.41H150.748V241.956ZM167.061 243V234.252H168.519V237.888H173.289V234.252H174.747V243H173.289V239.076H168.519V243H167.061ZM180.398 243.162C179.798 243.162 179.258 243.048 178.778 242.82C178.31 242.58 177.938 242.256 177.662 241.848C177.386 241.44 177.248 240.984 177.248 240.48C177.248 239.844 177.41 239.34 177.734 238.968C178.07 238.596 178.616 238.332 179.372 238.176C180.14 238.008 181.184 237.924 182.504 237.924H183.08V237.366C183.08 236.622 182.924 236.088 182.612 235.764C182.312 235.428 181.826 235.26 181.154 235.26C180.626 235.26 180.116 235.338 179.624 235.494C179.132 235.638 178.628 235.878 178.112 236.214L177.608 235.152C178.064 234.828 178.616 234.57 179.264 234.378C179.924 234.186 180.554 234.09 181.154 234.09C182.282 234.09 183.116 234.366 183.656 234.918C184.208 235.47 184.484 236.328 184.484 237.492V243H183.116V241.488C182.888 242.004 182.534 242.412 182.054 242.712C181.586 243.012 181.034 243.162 180.398 243.162ZM180.632 242.064C181.352 242.064 181.94 241.818 182.396 241.326C182.852 240.822 183.08 240.186 183.08 239.418V238.878H182.522C181.55 238.878 180.782 238.926 180.218 239.022C179.666 239.106 179.276 239.262 179.048 239.49C178.832 239.706 178.724 240.006 178.724 240.39C178.724 240.882 178.892 241.284 179.228 241.596C179.576 241.908 180.044 242.064 180.632 242.064ZM195.606 243.162C194.754 243.162 194.016 242.976 193.392 242.604C192.768 242.232 192.282 241.71 191.934 241.038C191.598 240.354 191.43 239.55 191.43 238.626C191.43 237.702 191.598 236.904 191.934 236.232C192.282 235.548 192.768 235.02 193.392 234.648C194.016 234.276 194.754 234.09 195.606 234.09C196.446 234.09 197.178 234.276 197.802 234.648C198.438 235.02 198.924 235.548 199.26 236.232C199.608 236.904 199.782 237.702 199.782 238.626C199.782 239.55 199.608 240.354 199.26 241.038C198.924 241.71 198.438 242.232 197.802 242.604C197.178 242.976 196.446 243.162 195.606 243.162ZM195.606 241.992C196.422 241.992 197.076 241.704 197.568 241.128C198.06 240.54 198.306 239.706 198.306 238.626C198.306 237.534 198.06 236.7 197.568 236.124C197.076 235.548 196.422 235.26 195.606 235.26C194.778 235.26 194.118 235.548 193.626 236.124C193.146 236.7 192.906 237.534 192.906 238.626C192.906 239.706 193.146 240.54 193.626 241.128C194.118 241.704 194.778 241.992 195.606 241.992ZM205.837 243.162C204.541 243.162 203.515 242.736 202.759 241.884C202.003 241.032 201.625 239.796 201.625 238.176V236.826C201.625 235.086 201.973 233.766 202.669 232.866C203.365 231.954 204.421 231.306 205.837 230.922L208.951 230.04L209.437 231.246L205.945 232.182C204.973 232.446 204.241 232.92 203.749 233.604C203.269 234.276 203.029 235.104 203.029 236.088V236.124C203.305 235.536 203.713 235.074 204.253 234.738C204.793 234.39 205.429 234.216 206.161 234.216C206.917 234.216 207.583 234.396 208.159 234.756C208.735 235.116 209.179 235.632 209.491 236.304C209.815 236.964 209.977 237.744 209.977 238.644C209.977 239.556 209.803 240.354 209.455 241.038C209.119 241.71 208.639 242.232 208.015 242.604C207.403 242.976 206.677 243.162 205.837 243.162ZM205.783 241.992C206.635 241.992 207.301 241.71 207.781 241.146C208.261 240.57 208.501 239.748 208.501 238.68C208.501 237.636 208.261 236.826 207.781 236.25C207.301 235.674 206.641 235.386 205.801 235.386C204.961 235.386 204.301 235.668 203.821 236.232C203.341 236.796 203.101 237.57 203.101 238.554C203.101 239.682 203.335 240.54 203.803 241.128C204.271 241.704 204.931 241.992 205.783 241.992ZM216.302 243.162C214.922 243.162 213.83 242.76 213.026 241.956C212.222 241.14 211.82 240.036 211.82 238.644C211.82 237.744 212 236.952 212.36 236.268C212.72 235.572 213.212 235.038 213.836 234.666C214.472 234.282 215.204 234.09 216.032 234.09C217.22 234.09 218.15 234.474 218.822 235.242C219.494 235.998 219.83 237.042 219.83 238.374V238.932H213.242C213.29 239.928 213.578 240.69 214.106 241.218C214.634 241.734 215.366 241.992 216.302 241.992C216.83 241.992 217.334 241.914 217.814 241.758C218.294 241.59 218.75 241.32 219.182 240.948L219.686 241.974C219.29 242.346 218.786 242.64 218.174 242.856C217.562 243.06 216.938 243.162 216.302 243.162ZM216.068 235.17C215.24 235.17 214.586 235.428 214.106 235.944C213.626 236.46 213.344 237.138 213.26 237.978H218.57C218.534 237.09 218.3 236.4 217.868 235.908C217.448 235.416 216.848 235.17 216.068 235.17ZM225.824 243.162C224.948 243.162 224.192 242.976 223.556 242.604C222.92 242.22 222.428 241.686 222.08 241.002C221.744 240.306 221.576 239.496 221.576 238.572C221.576 237.18 221.954 236.088 222.71 235.296C223.466 234.492 224.504 234.09 225.824 234.09C226.364 234.09 226.898 234.186 227.426 234.378C227.954 234.57 228.392 234.84 228.74 235.188L228.236 236.25C227.888 235.914 227.504 235.668 227.084 235.512C226.676 235.356 226.286 235.278 225.914 235.278C225.002 235.278 224.3 235.566 223.808 236.142C223.316 236.706 223.07 237.522 223.07 238.59C223.07 239.634 223.316 240.462 223.808 241.074C224.3 241.674 225.002 241.974 225.914 241.974C226.286 241.974 226.676 241.896 227.084 241.74C227.504 241.584 227.888 241.332 228.236 240.984L228.74 242.046C228.392 242.394 227.948 242.67 227.408 242.874C226.88 243.066 226.352 243.162 225.824 243.162ZM230.606 243V234.252H238.238V243H236.78V235.422H232.064V243H230.606ZM245.078 243.162C243.698 243.162 242.606 242.76 241.802 241.956C240.998 241.14 240.596 240.036 240.596 238.644C240.596 237.744 240.776 236.952 241.136 236.268C241.496 235.572 241.988 235.038 242.612 234.666C243.248 234.282 243.98 234.09 244.808 234.09C245.996 234.09 246.926 234.474 247.598 235.242C248.27 235.998 248.606 237.042 248.606 238.374V238.932H242.018C242.066 239.928 242.354 240.69 242.882 241.218C243.41 241.734 244.142 241.992 245.078 241.992C245.606 241.992 246.11 241.914 246.59 241.758C247.07 241.59 247.526 241.32 247.958 240.948L248.462 241.974C248.066 242.346 247.562 242.64 246.95 242.856C246.338 243.06 245.714 243.162 245.078 243.162ZM244.844 235.17C244.016 235.17 243.362 235.428 242.882 235.944C242.402 236.46 242.12 237.138 242.036 237.978H247.346C247.31 237.09 247.076 236.4 246.644 235.908C246.224 235.416 245.624 235.17 244.844 235.17ZM256.49 243V239.454C255.818 239.862 255.044 240.066 254.168 240.066C252.92 240.066 251.996 239.772 251.396 239.184C250.796 238.584 250.496 237.678 250.496 236.466V234.252H251.954V236.358C251.954 237.222 252.14 237.852 252.512 238.248C252.896 238.644 253.508 238.842 254.348 238.842C254.78 238.842 255.158 238.794 255.482 238.698C255.818 238.602 256.148 238.446 256.472 238.23V234.252H257.93V243H256.49ZM264.765 243.162C263.385 243.162 262.293 242.76 261.489 241.956C260.685 241.14 260.283 240.036 260.283 238.644C260.283 237.744 260.463 236.952 260.823 236.268C261.183 235.572 261.675 235.038 262.299 234.666C262.935 234.282 263.667 234.09 264.495 234.09C265.683 234.09 266.613 234.474 267.285 235.242C267.957 235.998 268.293 237.042 268.293 238.374V238.932H261.705C261.753 239.928 262.041 240.69 262.569 241.218C263.097 241.734 263.829 241.992 264.765 241.992C265.293 241.992 265.797 241.914 266.277 241.758C266.757 241.59 267.213 241.32 267.645 240.948L268.149 241.974C267.753 242.346 267.249 242.64 266.637 242.856C266.025 243.06 265.401 243.162 264.765 243.162ZM264.531 235.17C263.703 235.17 263.049 235.428 262.569 235.944C262.089 236.46 261.807 237.138 261.723 237.978H267.033C266.997 237.09 266.763 236.4 266.331 235.908C265.911 235.416 265.311 235.17 264.531 235.17ZM270.561 243V234.252H272.019V237.888H276.789V234.252H278.247V243H276.789V239.076H272.019V243H270.561ZM281.126 243V234.252H282.458V241.02L287.516 234.252H288.758V243H287.426V236.232L282.368 243H281.126ZM295.597 243.162C294.217 243.162 293.125 242.76 292.321 241.956C291.517 241.14 291.115 240.036 291.115 238.644C291.115 237.744 291.295 236.952 291.655 236.268C292.015 235.572 292.507 235.038 293.131 234.666C293.767 234.282 294.499 234.09 295.327 234.09C296.515 234.09 297.445 234.474 298.117 235.242C298.789 235.998 299.125 237.042 299.125 238.374V238.932H292.537C292.585 239.928 292.873 240.69 293.401 241.218C293.929 241.734 294.661 241.992 295.597 241.992C296.125 241.992 296.629 241.914 297.109 241.758C297.589 241.59 298.045 241.32 298.477 240.948L298.981 241.974C298.585 242.346 298.081 242.64 297.469 242.856C296.857 243.06 296.233 243.162 295.597 243.162ZM295.363 235.17C294.535 235.17 293.881 235.428 293.401 235.944C292.921 236.46 292.639 237.138 292.555 237.978H297.865C297.829 237.09 297.595 236.4 297.163 235.908C296.743 235.416 296.143 235.17 295.363 235.17ZM306.016 243V234.252H307.348V241.02L312.406 234.252H313.648V243H312.316V236.232L307.258 243H306.016ZM316.528 243V234.252H317.986V237.888H322.756V234.252H324.214V243H322.756V239.076H317.986V243H316.528ZM332.078 246.24V241.578C331.862 242.082 331.556 242.472 331.16 242.748C330.764 243.024 330.29 243.162 329.738 243.162C329.102 243.162 328.544 242.976 328.064 242.604C327.596 242.232 327.23 241.71 326.966 241.038C326.702 240.354 326.57 239.55 326.57 238.626C326.57 237.234 326.858 236.13 327.434 235.314C328.01 234.498 328.778 234.09 329.738 234.09C330.29 234.09 330.764 234.228 331.16 234.504C331.556 234.78 331.862 235.17 332.078 235.674V230.31H333.536V235.656C333.752 235.152 334.058 234.768 334.454 234.504C334.85 234.228 335.324 234.09 335.876 234.09C336.824 234.09 337.586 234.498 338.162 235.314C338.75 236.13 339.044 237.234 339.044 238.626C339.044 240.006 338.756 241.11 338.18 241.938C337.604 242.754 336.836 243.162 335.876 243.162C335.324 243.162 334.85 243.024 334.454 242.748C334.058 242.472 333.752 242.088 333.536 241.596V246.24H332.078ZM330.062 242.01C330.698 242.01 331.196 241.722 331.556 241.146C331.916 240.57 332.096 239.73 332.096 238.626C332.096 237.522 331.91 236.682 331.538 236.106C331.178 235.53 330.686 235.242 330.062 235.242C329.438 235.242 328.94 235.53 328.568 236.106C328.208 236.682 328.028 237.522 328.028 238.626C328.028 239.73 328.208 240.57 328.568 241.146C328.94 241.722 329.438 242.01 330.062 242.01ZM335.534 242.01C336.158 242.01 336.656 241.722 337.028 241.146C337.4 240.57 337.586 239.73 337.586 238.626C337.586 237.522 337.4 236.682 337.028 236.106C336.656 235.53 336.158 235.242 335.534 235.242C334.91 235.242 334.418 235.53 334.058 236.106C333.698 236.682 333.518 237.522 333.518 238.626C333.518 239.73 333.692 240.57 334.04 241.146C334.4 241.722 334.898 242.01 335.534 242.01ZM345.055 243.162C344.203 243.162 343.465 242.976 342.841 242.604C342.217 242.232 341.731 241.71 341.383 241.038C341.047 240.354 340.879 239.55 340.879 238.626C340.879 237.702 341.047 236.904 341.383 236.232C341.731 235.548 342.217 235.02 342.841 234.648C343.465 234.276 344.203 234.09 345.055 234.09C345.895 234.09 346.627 234.276 347.251 234.648C347.887 235.02 348.373 235.548 348.709 236.232C349.057 236.904 349.231 237.702 349.231 238.626C349.231 239.55 349.057 240.354 348.709 241.038C348.373 241.71 347.887 242.232 347.251 242.604C346.627 242.976 345.895 243.162 345.055 243.162ZM345.055 241.992C345.871 241.992 346.525 241.704 347.017 241.128C347.509 240.54 347.755 239.706 347.755 238.626C347.755 237.534 347.509 236.7 347.017 236.124C346.525 235.548 345.871 235.26 345.055 235.26C344.227 235.26 343.567 235.548 343.075 236.124C342.595 236.7 342.355 237.534 342.355 238.626C342.355 239.706 342.595 240.54 343.075 241.128C343.567 241.704 344.227 241.992 345.055 241.992ZM351.614 246.24V234.252H353.036V235.818C353.3 235.278 353.69 234.858 354.206 234.558C354.734 234.246 355.346 234.09 356.042 234.09C356.822 234.09 357.5 234.276 358.076 234.648C358.664 235.008 359.114 235.53 359.426 236.214C359.75 236.886 359.912 237.69 359.912 238.626C359.912 239.55 359.75 240.354 359.426 241.038C359.114 241.71 358.664 242.232 358.076 242.604C357.5 242.976 356.822 243.162 356.042 243.162C355.37 243.162 354.77 243.012 354.242 242.712C353.714 242.412 353.324 241.998 353.072 241.47V246.24H351.614ZM355.736 241.992C356.552 241.992 357.206 241.704 357.698 241.128C358.19 240.54 358.436 239.706 358.436 238.626C358.436 237.534 358.19 236.7 357.698 236.124C357.206 235.548 356.552 235.26 355.736 235.26C354.92 235.26 354.266 235.548 353.774 236.124C353.282 236.7 353.036 237.534 353.036 238.626C353.036 239.706 353.282 240.54 353.774 241.128C354.266 241.704 354.92 241.992 355.736 241.992ZM362.266 243V234.252H363.472L366.766 240.102L370.06 234.252H371.248V243H369.952V236.628L367.126 241.596H366.388L363.562 236.628V243H362.266ZM376.903 243.162C376.303 243.162 375.763 243.048 375.283 242.82C374.815 242.58 374.443 242.256 374.167 241.848C373.891 241.44 373.753 240.984 373.753 240.48C373.753 239.844 373.915 239.34 374.239 238.968C374.575 238.596 375.121 238.332 375.877 238.176C376.645 238.008 377.689 237.924 379.009 237.924H379.585V237.366C379.585 236.622 379.429 236.088 379.117 235.764C378.817 235.428 378.331 235.26 377.659 235.26C377.131 235.26 376.621 235.338 376.129 235.494C375.637 235.638 375.133 235.878 374.617 236.214L374.113 235.152C374.569 234.828 375.121 234.57 375.769 234.378C376.429 234.186 377.059 234.09 377.659 234.09C378.787 234.09 379.621 234.366 380.161 234.918C380.713 235.47 380.989 236.328 380.989 237.492V243H379.621V241.488C379.393 242.004 379.039 242.412 378.559 242.712C378.091 243.012 377.539 243.162 376.903 243.162ZM377.137 242.064C377.857 242.064 378.445 241.818 378.901 241.326C379.357 240.822 379.585 240.186 379.585 239.418V238.878H379.027C378.055 238.878 377.287 238.926 376.723 239.022C376.171 239.106 375.781 239.262 375.553 239.49C375.337 239.706 375.229 240.006 375.229 240.39C375.229 240.882 375.397 241.284 375.733 241.596C376.081 241.908 376.549 242.064 377.137 242.064ZM391.395 245.34V243H383.835V234.252H385.293V241.83H389.811V234.252H391.269V241.83H392.655V245.34H391.395ZM394.592 243V234.252H395.924V241.02L400.982 234.252H402.224V243H400.892V236.232L395.834 243H394.592ZM408.758 243.162C407.906 243.162 407.168 242.976 406.544 242.604C405.92 242.232 405.434 241.71 405.086 241.038C404.75 240.354 404.582 239.55 404.582 238.626C404.582 237.702 404.75 236.904 405.086 236.232C405.434 235.548 405.92 235.02 406.544 234.648C407.168 234.276 407.906 234.09 408.758 234.09C409.598 234.09 410.33 234.276 410.954 234.648C411.59 235.02 412.076 235.548 412.412 236.232C412.76 236.904 412.934 237.702 412.934 238.626C412.934 239.55 412.76 240.354 412.412 241.038C412.076 241.71 411.59 242.232 410.954 242.604C410.33 242.976 409.598 243.162 408.758 243.162ZM408.758 241.992C409.574 241.992 410.228 241.704 410.72 241.128C411.212 240.54 411.458 239.706 411.458 238.626C411.458 237.534 411.212 236.7 410.72 236.124C410.228 235.548 409.574 235.26 408.758 235.26C407.93 235.26 407.27 235.548 406.778 236.124C406.298 236.7 406.058 237.534 406.058 238.626C406.058 239.706 406.298 240.54 406.778 241.128C407.27 241.704 407.93 241.992 408.758 241.992ZM415.299 243V234.252H416.757V237.888H421.527V234.252H422.985V243H421.527V239.076H416.757V243H415.299ZM425.864 243V234.252H427.322V237.888H432.092V234.252H433.55V243H432.092V239.076H427.322V243H425.864ZM440.082 243.162C439.23 243.162 438.492 242.976 437.868 242.604C437.244 242.232 436.758 241.71 436.41 241.038C436.074 240.354 435.906 239.55 435.906 238.626C435.906 237.702 436.074 236.904 436.41 236.232C436.758 235.548 437.244 235.02 437.868 234.648C438.492 234.276 439.23 234.09 440.082 234.09C440.922 234.09 441.654 234.276 442.278 234.648C442.914 235.02 443.4 235.548 443.736 236.232C444.084 236.904 444.258 237.702 444.258 238.626C444.258 239.55 444.084 240.354 443.736 241.038C443.4 241.71 442.914 242.232 442.278 242.604C441.654 242.976 440.922 243.162 440.082 243.162ZM440.082 241.992C440.898 241.992 441.552 241.704 442.044 241.128C442.536 240.54 442.782 239.706 442.782 238.626C442.782 237.534 442.536 236.7 442.044 236.124C441.552 235.548 440.898 235.26 440.082 235.26C439.254 235.26 438.594 235.548 438.102 236.124C437.622 236.7 437.382 237.534 437.382 238.626C437.382 239.706 437.622 240.54 438.102 241.128C438.594 241.704 439.254 241.992 440.082 241.992ZM446.624 243V234.252H447.956V241.02L453.014 234.252H454.256V243H452.924V236.232L447.866 243H446.624ZM450.44 233.118C449.72 233.118 449.084 232.926 448.532 232.542C447.98 232.146 447.59 231.552 447.362 230.76L448.208 230.436C448.424 231.048 448.712 231.498 449.072 231.786C449.444 232.062 449.9 232.2 450.44 232.2C450.992 232.2 451.442 232.068 451.79 231.804C452.15 231.54 452.474 231.09 452.762 230.454L453.59 230.76C453.266 231.612 452.828 232.218 452.276 232.578C451.724 232.938 451.112 233.118 450.44 233.118ZM5.13 268.162C3.834 268.162 2.808 267.736 2.052 266.884C1.296 266.032 0.918 264.796 0.918 263.176V261.826C0.918 260.086 1.266 258.766 1.962 257.866C2.658 256.954 3.714 256.306 5.13 255.922L8.244 255.04L8.73 256.246L5.238 257.182C4.266 257.446 3.534 257.92 3.042 258.604C2.562 259.276 2.322 260.104 2.322 261.088V261.124C2.598 260.536 3.006 260.074 3.546 259.738C4.086 259.39 4.722 259.216 5.454 259.216C6.21 259.216 6.876 259.396 7.452 259.756C8.028 260.116 8.472 260.632 8.784 261.304C9.108 261.964 9.27 262.744 9.27 263.644C9.27 264.556 9.096 265.354 8.748 266.038C8.412 266.71 7.932 267.232 7.308 267.604C6.696 267.976 5.97 268.162 5.13 268.162ZM5.076 266.992C5.928 266.992 6.594 266.71 7.074 266.146C7.554 265.57 7.794 264.748 7.794 263.68C7.794 262.636 7.554 261.826 7.074 261.25C6.594 260.674 5.934 260.386 5.094 260.386C4.254 260.386 3.594 260.668 3.114 261.232C2.634 261.796 2.394 262.57 2.394 263.554C2.394 264.682 2.628 265.54 3.096 266.128C3.564 266.704 4.224 266.992 5.076 266.992ZM15.5953 268.162C14.2153 268.162 13.1233 267.76 12.3193 266.956C11.5153 266.14 11.1133 265.036 11.1133 263.644C11.1133 262.744 11.2933 261.952 11.6533 261.268C12.0133 260.572 12.5053 260.038 13.1293 259.666C13.7653 259.282 14.4973 259.09 15.3253 259.09C16.5133 259.09 17.4433 259.474 18.1153 260.242C18.7873 260.998 19.1233 262.042 19.1233 263.374V263.932H12.5353C12.5833 264.928 12.8713 265.69 13.3993 266.218C13.9273 266.734 14.6593 266.992 15.5953 266.992C16.1233 266.992 16.6273 266.914 17.1073 266.758C17.5873 266.59 18.0433 266.32 18.4753 265.948L18.9793 266.974C18.5833 267.346 18.0793 267.64 17.4673 267.856C16.8553 268.06 16.2313 268.162 15.5953 268.162ZM15.3613 260.17C14.5333 260.17 13.8793 260.428 13.3993 260.944C12.9193 261.46 12.6373 262.138 12.5533 262.978H17.8633C17.8273 262.09 17.5933 261.4 17.1613 260.908C16.7413 260.416 16.1413 260.17 15.3613 260.17ZM24.2892 268.162C23.5332 268.162 22.8192 268.066 22.1472 267.874C21.4872 267.67 20.9532 267.388 20.5452 267.028L21.0132 266.002C21.4332 266.338 21.9252 266.596 22.4892 266.776C23.0532 266.944 23.6412 267.028 24.2532 267.028C25.1172 267.028 25.7352 266.902 26.1072 266.65C26.4912 266.398 26.6832 266.026 26.6832 265.534C26.6832 264.586 26.0772 264.112 24.8652 264.112H22.7952V263.014H24.6852C25.2012 263.014 25.6092 262.894 25.9092 262.654C26.2212 262.414 26.3772 262.078 26.3772 261.646C26.3772 261.214 26.2092 260.872 25.8732 260.62C25.5372 260.356 24.9972 260.224 24.2532 260.224C23.0892 260.224 22.0572 260.542 21.1572 261.178L20.6892 260.152C21.6732 259.444 22.9212 259.09 24.4332 259.09C25.5492 259.09 26.3832 259.306 26.9352 259.738C27.4872 260.17 27.7632 260.776 27.7632 261.556C27.7632 262 27.6312 262.396 27.3672 262.744C27.1152 263.08 26.7672 263.326 26.3232 263.482C26.8632 263.614 27.2892 263.866 27.6012 264.238C27.9132 264.598 28.0692 265.048 28.0692 265.588C28.0692 266.368 27.7512 266.992 27.1152 267.46C26.4792 267.928 25.5372 268.162 24.2892 268.162ZM33.9924 268.162C33.1404 268.162 32.4024 267.976 31.7784 267.604C31.1544 267.232 30.6684 266.71 30.3204 266.038C29.9844 265.354 29.8164 264.55 29.8164 263.626C29.8164 262.702 29.9844 261.904 30.3204 261.232C30.6684 260.548 31.1544 260.02 31.7784 259.648C32.4024 259.276 33.1404 259.09 33.9924 259.09C34.8324 259.09 35.5644 259.276 36.1884 259.648C36.8244 260.02 37.3104 260.548 37.6464 261.232C37.9944 261.904 38.1684 262.702 38.1684 263.626C38.1684 264.55 37.9944 265.354 37.6464 266.038C37.3104 266.71 36.8244 267.232 36.1884 267.604C35.5644 267.976 34.8324 268.162 33.9924 268.162ZM33.9924 266.992C34.8084 266.992 35.4624 266.704 35.9544 266.128C36.4464 265.54 36.6924 264.706 36.6924 263.626C36.6924 262.534 36.4464 261.7 35.9544 261.124C35.4624 260.548 34.8084 260.26 33.9924 260.26C33.1644 260.26 32.5044 260.548 32.0124 261.124C31.5324 261.7 31.2924 262.534 31.2924 263.626C31.2924 264.706 31.5324 265.54 32.0124 266.128C32.5044 266.704 33.1644 266.992 33.9924 266.992ZM40.5338 268V259.252H48.1658V268H46.7078V260.422H41.9918V268H40.5338ZM53.8175 268.162C53.2175 268.162 52.6775 268.048 52.1975 267.82C51.7295 267.58 51.3575 267.256 51.0815 266.848C50.8055 266.44 50.6675 265.984 50.6675 265.48C50.6675 264.844 50.8295 264.34 51.1535 263.968C51.4895 263.596 52.0355 263.332 52.7915 263.176C53.5595 263.008 54.6035 262.924 55.9235 262.924H56.4995V262.366C56.4995 261.622 56.3435 261.088 56.0315 260.764C55.7315 260.428 55.2455 260.26 54.5735 260.26C54.0455 260.26 53.5355 260.338 53.0435 260.494C52.5515 260.638 52.0475 260.878 51.5315 261.214L51.0275 260.152C51.4835 259.828 52.0355 259.57 52.6835 259.378C53.3435 259.186 53.9735 259.09 54.5735 259.09C55.7015 259.09 56.5355 259.366 57.0755 259.918C57.6275 260.47 57.9035 261.328 57.9035 262.492V268H56.5355V266.488C56.3075 267.004 55.9535 267.412 55.4735 267.712C55.0055 268.012 54.4535 268.162 53.8175 268.162ZM54.0515 267.064C54.7715 267.064 55.3595 266.818 55.8155 266.326C56.2715 265.822 56.4995 265.186 56.4995 264.418V263.878H55.9415C54.9695 263.878 54.2015 263.926 53.6375 264.022C53.0855 264.106 52.6955 264.262 52.4675 264.49C52.2515 264.706 52.1435 265.006 52.1435 265.39C52.1435 265.882 52.3115 266.284 52.6475 266.596C52.9955 266.908 53.4635 267.064 54.0515 267.064ZM64.4746 268.162C63.5986 268.162 62.8426 267.976 62.2066 267.604C61.5706 267.22 61.0786 266.686 60.7306 266.002C60.3946 265.306 60.2266 264.496 60.2266 263.572C60.2266 262.18 60.6046 261.088 61.3606 260.296C62.1166 259.492 63.1546 259.09 64.4746 259.09C65.0146 259.09 65.5486 259.186 66.0766 259.378C66.6046 259.57 67.0426 259.84 67.3906 260.188L66.8866 261.25C66.5386 260.914 66.1546 260.668 65.7346 260.512C65.3266 260.356 64.9366 260.278 64.5646 260.278C63.6526 260.278 62.9506 260.566 62.4586 261.142C61.9666 261.706 61.7206 262.522 61.7206 263.59C61.7206 264.634 61.9666 265.462 62.4586 266.074C62.9506 266.674 63.6526 266.974 64.5646 266.974C64.9366 266.974 65.3266 266.896 65.7346 266.74C66.1546 266.584 66.5386 266.332 66.8866 265.984L67.3906 267.046C67.0426 267.394 66.5986 267.67 66.0586 267.874C65.5306 268.066 65.0026 268.162 64.4746 268.162ZM69.2564 268V259.252H70.7144V262.888H75.4844V259.252H76.9424V268H75.4844V264.076H70.7144V268H69.2564ZM83.4749 268.162C82.6229 268.162 81.8849 267.976 81.2609 267.604C80.6369 267.232 80.1509 266.71 79.8029 266.038C79.4669 265.354 79.2989 264.55 79.2989 263.626C79.2989 262.702 79.4669 261.904 79.8029 261.232C80.1509 260.548 80.6369 260.02 81.2609 259.648C81.8849 259.276 82.6229 259.09 83.4749 259.09C84.3149 259.09 85.0469 259.276 85.6709 259.648C86.3069 260.02 86.7929 260.548 87.1289 261.232C87.4769 261.904 87.6509 262.702 87.6509 263.626C87.6509 264.55 87.4769 265.354 87.1289 266.038C86.7929 266.71 86.3069 267.232 85.6709 267.604C85.0469 267.976 84.3149 268.162 83.4749 268.162ZM83.4749 266.992C84.2909 266.992 84.9449 266.704 85.4369 266.128C85.9289 265.54 86.1749 264.706 86.1749 263.626C86.1749 262.534 85.9289 261.7 85.4369 261.124C84.9449 260.548 84.2909 260.26 83.4749 260.26C82.6469 260.26 81.9869 260.548 81.4949 261.124C81.0149 261.7 80.7749 262.534 80.7749 263.626C80.7749 264.706 81.0149 265.54 81.4949 266.128C81.9869 266.704 82.6469 266.992 83.4749 266.992ZM93.7422 268.162C92.8662 268.162 92.1102 267.976 91.4742 267.604C90.8382 267.22 90.3462 266.686 89.9982 266.002C89.6622 265.306 89.4942 264.496 89.4942 263.572C89.4942 262.18 89.8722 261.088 90.6282 260.296C91.3842 259.492 92.4222 259.09 93.7422 259.09C94.2822 259.09 94.8162 259.186 95.3442 259.378C95.8722 259.57 96.3102 259.84 96.6582 260.188L96.1542 261.25C95.8062 260.914 95.4222 260.668 95.0022 260.512C94.5942 260.356 94.2042 260.278 93.8322 260.278C92.9202 260.278 92.2182 260.566 91.7262 261.142C91.2342 261.706 90.9882 262.522 90.9882 263.59C90.9882 264.634 91.2342 265.462 91.7262 266.074C92.2182 266.674 92.9202 266.974 93.8322 266.974C94.2042 266.974 94.5942 266.896 95.0022 266.74C95.4222 266.584 95.8062 266.332 96.1542 265.984L96.6582 267.046C96.3102 267.394 95.8662 267.67 95.3262 267.874C94.7982 268.066 94.2702 268.162 93.7422 268.162ZM100.342 268V260.422H97.174V259.252H104.986V260.422H101.8V268H100.342ZM106.522 268V259.252H107.854V266.02L112.912 259.252H114.154V268H112.822V261.232L107.764 268H106.522ZM121.657 268V259.252H122.989V266.02L128.047 259.252H129.289V268H127.957V261.232L122.899 268H121.657ZM140.446 268.162C139.594 268.162 138.856 267.976 138.232 267.604C137.608 267.232 137.122 266.71 136.774 266.038C136.438 265.354 136.27 264.55 136.27 263.626C136.27 262.702 136.438 261.904 136.774 261.232C137.122 260.548 137.608 260.02 138.232 259.648C138.856 259.276 139.594 259.09 140.446 259.09C141.286 259.09 142.018 259.276 142.642 259.648C143.278 260.02 143.764 260.548 144.1 261.232C144.448 261.904 144.622 262.702 144.622 263.626C144.622 264.55 144.448 265.354 144.1 266.038C143.764 266.71 143.278 267.232 142.642 267.604C142.018 267.976 141.286 268.162 140.446 268.162ZM140.446 266.992C141.262 266.992 141.916 266.704 142.408 266.128C142.9 265.54 143.146 264.706 143.146 263.626C143.146 262.534 142.9 261.7 142.408 261.124C141.916 260.548 141.262 260.26 140.446 260.26C139.618 260.26 138.958 260.548 138.466 261.124C137.986 261.7 137.746 262.534 137.746 263.626C137.746 264.706 137.986 265.54 138.466 266.128C138.958 266.704 139.618 266.992 140.446 266.992ZM146.987 268V259.252H148.445V262.906H150.083L152.945 259.252H154.547L151.505 263.194C151.817 263.314 152.099 263.512 152.351 263.788C152.603 264.064 152.885 264.46 153.197 264.976L154.997 268H153.431L151.847 265.354C151.547 264.838 151.259 264.496 150.983 264.328C150.707 264.16 150.317 264.076 149.813 264.076H148.445V268H146.987ZM157.487 271.24L158.981 267.856L155.291 259.252H156.875L159.773 266.344L162.689 259.252H164.219L159.017 271.24H157.487ZM165.901 268V259.252H173.533V268H172.075V260.422H167.359V268H165.901ZM176.413 268V259.252H177.745V266.02L182.803 259.252H184.045V268H182.713V261.232L177.655 268H176.413ZM188.742 268V260.422H185.574V259.252H193.386V260.422H190.2V268H188.742ZM198.847 268.162C197.467 268.162 196.375 267.76 195.571 266.956C194.767 266.14 194.365 265.036 194.365 263.644C194.365 262.744 194.545 261.952 194.905 261.268C195.265 260.572 195.757 260.038 196.381 259.666C197.017 259.282 197.749 259.09 198.577 259.09C199.765 259.09 200.695 259.474 201.367 260.242C202.039 260.998 202.375 262.042 202.375 263.374V263.932H195.787C195.835 264.928 196.123 265.69 196.651 266.218C197.179 266.734 197.911 266.992 198.847 266.992C199.375 266.992 199.879 266.914 200.359 266.758C200.839 266.59 201.295 266.32 201.727 265.948L202.231 266.974C201.835 267.346 201.331 267.64 200.719 267.856C200.107 268.06 199.483 268.162 198.847 268.162ZM198.613 260.17C197.785 260.17 197.131 260.428 196.651 260.944C196.171 261.46 195.889 262.138 195.805 262.978H201.115C201.079 262.09 200.845 261.4 200.413 260.908C199.993 260.416 199.393 260.17 198.613 260.17ZM209.266 268V259.252H213.532C214.564 259.252 215.326 259.45 215.818 259.846C216.31 260.23 216.556 260.8 216.556 261.556C216.556 262.012 216.424 262.408 216.16 262.744C215.908 263.08 215.56 263.326 215.116 263.482C215.656 263.614 216.076 263.866 216.376 264.238C216.688 264.61 216.844 265.06 216.844 265.588C216.844 266.332 216.568 266.92 216.016 267.352C215.464 267.784 214.684 268 213.676 268H209.266ZM210.652 263.05H213.46C214.012 263.05 214.438 262.93 214.738 262.69C215.038 262.438 215.188 262.084 215.188 261.628C215.188 261.184 215.038 260.842 214.738 260.602C214.438 260.362 214.012 260.242 213.46 260.242H210.652V263.05ZM210.652 267.01H213.622C214.222 267.01 214.678 266.884 214.99 266.632C215.302 266.38 215.458 266.008 215.458 265.516C215.458 265.036 215.302 264.67 214.99 264.418C214.678 264.166 214.222 264.04 213.622 264.04H210.652V267.01ZM218.624 268.198L218.084 267.046C218.624 266.818 219.05 266.5 219.362 266.092C219.674 265.672 219.89 265.096 220.01 264.364C220.142 263.632 220.208 262.672 220.208 261.484V259.252H226.562V268H225.104V260.422H221.576V261.538C221.576 262.906 221.474 264.034 221.27 264.922C221.078 265.81 220.766 266.512 220.334 267.028C219.902 267.544 219.332 267.934 218.624 268.198ZM233.1 268.162C232.248 268.162 231.51 267.976 230.886 267.604C230.262 267.232 229.776 266.71 229.428 266.038C229.092 265.354 228.924 264.55 228.924 263.626C228.924 262.702 229.092 261.904 229.428 261.232C229.776 260.548 230.262 260.02 230.886 259.648C231.51 259.276 232.248 259.09 233.1 259.09C233.94 259.09 234.672 259.276 235.296 259.648C235.932 260.02 236.418 260.548 236.754 261.232C237.102 261.904 237.276 262.702 237.276 263.626C237.276 264.55 237.102 265.354 236.754 266.038C236.418 266.71 235.932 267.232 235.296 267.604C234.672 267.976 233.94 268.162 233.1 268.162ZM233.1 266.992C233.916 266.992 234.57 266.704 235.062 266.128C235.554 265.54 235.8 264.706 235.8 263.626C235.8 262.534 235.554 261.7 235.062 261.124C234.57 260.548 233.916 260.26 233.1 260.26C232.272 260.26 231.612 260.548 231.12 261.124C230.64 261.7 230.4 262.534 230.4 263.626C230.4 264.706 230.64 265.54 231.12 266.128C231.612 266.704 232.272 266.992 233.1 266.992ZM238.219 268L240.019 264.976C240.331 264.448 240.613 264.046 240.865 263.77C241.129 263.494 241.423 263.296 241.747 263.176L238.669 259.252H240.271L243.151 262.906H244.537V259.252H245.995V262.906H247.399L250.261 259.252H251.863L248.785 263.176C249.109 263.296 249.397 263.494 249.649 263.77C249.913 264.046 250.201 264.448 250.513 264.976L252.313 268H250.747L249.163 265.354C248.863 264.838 248.569 264.496 248.281 264.328C248.005 264.16 247.621 264.076 247.129 264.076H245.995V268H244.537V264.076H243.403C242.911 264.076 242.527 264.16 242.251 264.328C241.975 264.496 241.681 264.838 241.369 265.354L239.785 268H238.219ZM257.734 268.162C256.354 268.162 255.262 267.76 254.458 266.956C253.654 266.14 253.252 265.036 253.252 263.644C253.252 262.744 253.432 261.952 253.792 261.268C254.152 260.572 254.644 260.038 255.268 259.666C255.904 259.282 256.636 259.09 257.464 259.09C258.652 259.09 259.582 259.474 260.254 260.242C260.926 260.998 261.262 262.042 261.262 263.374V263.932H254.674C254.722 264.928 255.01 265.69 255.538 266.218C256.066 266.734 256.798 266.992 257.734 266.992C258.262 266.992 258.766 266.914 259.246 266.758C259.726 266.59 260.182 266.32 260.614 265.948L261.118 266.974C260.722 267.346 260.218 267.64 259.606 267.856C258.994 268.06 258.37 268.162 257.734 268.162ZM257.5 260.17C256.672 260.17 256.018 260.428 255.538 260.944C255.058 261.46 254.776 262.138 254.692 262.978H260.002C259.966 262.09 259.732 261.4 259.3 260.908C258.88 260.416 258.28 260.17 257.5 260.17ZM263.53 268V259.252H264.988V262.888H269.758V259.252H271.216V268H269.758V264.076H264.988V268H263.53ZM274.094 268V259.252H275.426V266.02L280.484 259.252H281.726V268H280.394V261.232L275.336 268H274.094ZM283.886 268L285.236 265.66C285.596 265.024 286.058 264.61 286.622 264.418C285.878 264.31 285.302 264.04 284.894 263.608C284.486 263.164 284.282 262.588 284.282 261.88C284.282 261.076 284.546 260.44 285.074 259.972C285.614 259.492 286.418 259.252 287.486 259.252H291.428V268H290.042V264.67H288.764C288.284 264.67 287.876 264.79 287.54 265.03C287.216 265.27 286.952 265.564 286.748 265.912L285.56 268H283.886ZM287.756 263.608H290.042V260.278H287.756C287.048 260.278 286.526 260.428 286.19 260.728C285.854 261.016 285.686 261.418 285.686 261.934C285.686 262.462 285.854 262.876 286.19 263.176C286.526 263.464 287.048 263.608 287.756 263.608ZM299.958 271.24L301.452 267.856L297.762 259.252H299.346L302.244 266.344L305.16 259.252H306.69L301.488 271.24H299.958ZM306.95 268L308.75 264.976C309.062 264.448 309.344 264.046 309.596 263.77C309.86 263.494 310.154 263.296 310.478 263.176L307.4 259.252H309.002L311.882 262.906H313.268V259.252H314.726V262.906H316.13L318.992 259.252H320.594L317.516 263.176C317.84 263.296 318.128 263.494 318.38 263.77C318.644 264.046 318.932 264.448 319.244 264.976L321.044 268H319.478L317.894 265.354C317.594 264.838 317.3 264.496 317.012 264.328C316.736 264.16 316.352 264.076 315.86 264.076H314.726V268H313.268V264.076H312.134C311.642 264.076 311.258 264.16 310.982 264.328C310.706 264.496 310.412 264.838 310.1 265.354L308.516 268H306.95ZM326.464 268.162C325.084 268.162 323.992 267.76 323.188 266.956C322.384 266.14 321.982 265.036 321.982 263.644C321.982 262.744 322.162 261.952 322.522 261.268C322.882 260.572 323.374 260.038 323.998 259.666C324.634 259.282 325.366 259.09 326.194 259.09C327.382 259.09 328.312 259.474 328.984 260.242C329.656 260.998 329.992 262.042 329.992 263.374V263.932H323.404C323.452 264.928 323.74 265.69 324.268 266.218C324.796 266.734 325.528 266.992 326.464 266.992C326.992 266.992 327.496 266.914 327.976 266.758C328.456 266.59 328.912 266.32 329.344 265.948L329.848 266.974C329.452 267.346 328.948 267.64 328.336 267.856C327.724 268.06 327.1 268.162 326.464 268.162ZM326.23 260.17C325.402 260.17 324.748 260.428 324.268 260.944C323.788 261.46 323.506 262.138 323.422 262.978H328.732C328.696 262.09 328.462 261.4 328.03 260.908C327.61 260.416 327.01 260.17 326.23 260.17ZM342.499 268V264.454C341.827 264.862 341.053 265.066 340.177 265.066C338.929 265.066 338.005 264.772 337.405 264.184C336.805 263.584 336.505 262.678 336.505 261.466V259.252H337.963V261.358C337.963 262.222 338.149 262.852 338.521 263.248C338.905 263.644 339.517 263.842 340.357 263.842C340.789 263.842 341.167 263.794 341.491 263.698C341.827 263.602 342.157 263.446 342.481 263.23V259.252H343.939V268H342.499ZM350.775 268.162C349.395 268.162 348.303 267.76 347.499 266.956C346.695 266.14 346.293 265.036 346.293 263.644C346.293 262.744 346.473 261.952 346.833 261.268C347.193 260.572 347.685 260.038 348.309 259.666C348.945 259.282 349.677 259.09 350.505 259.09C351.693 259.09 352.623 259.474 353.295 260.242C353.967 260.998 354.303 262.042 354.303 263.374V263.932H347.715C347.763 264.928 348.051 265.69 348.579 266.218C349.107 266.734 349.839 266.992 350.775 266.992C351.303 266.992 351.807 266.914 352.287 266.758C352.767 266.59 353.223 266.32 353.655 265.948L354.159 266.974C353.763 267.346 353.259 267.64 352.647 267.856C352.035 268.06 351.411 268.162 350.775 268.162ZM350.541 260.17C349.713 260.17 349.059 260.428 348.579 260.944C348.099 261.46 347.817 262.138 347.733 262.978H353.043C353.007 262.09 352.773 261.4 352.341 260.908C351.921 260.416 351.321 260.17 350.541 260.17ZM356.589 271.24V259.252H358.011V260.818C358.275 260.278 358.665 259.858 359.181 259.558C359.709 259.246 360.321 259.09 361.017 259.09C361.797 259.09 362.475 259.276 363.051 259.648C363.639 260.008 364.089 260.53 364.401 261.214C364.725 261.886 364.887 262.69 364.887 263.626C364.887 264.55 364.725 265.354 364.401 266.038C364.089 266.71 363.639 267.232 363.051 267.604C362.475 267.976 361.797 268.162 361.017 268.162C360.345 268.162 359.745 268.012 359.217 267.712C358.689 267.412 358.299 266.998 358.047 266.47V271.24H356.589ZM360.711 266.992C361.527 266.992 362.181 266.704 362.673 266.128C363.165 265.54 363.411 264.706 363.411 263.626C363.411 262.534 363.165 261.7 362.673 261.124C362.181 260.548 361.527 260.26 360.711 260.26C359.895 260.26 359.241 260.548 358.749 261.124C358.257 261.7 358.011 262.534 358.011 263.626C358.011 264.706 358.257 265.54 358.749 266.128C359.241 266.704 359.895 266.992 360.711 266.992ZM371.201 268.162C369.821 268.162 368.729 267.76 367.925 266.956C367.121 266.14 366.719 265.036 366.719 263.644C366.719 262.744 366.899 261.952 367.259 261.268C367.619 260.572 368.111 260.038 368.735 259.666C369.371 259.282 370.103 259.09 370.931 259.09C372.119 259.09 373.049 259.474 373.721 260.242C374.393 260.998 374.729 262.042 374.729 263.374V263.932H368.141C368.189 264.928 368.477 265.69 369.005 266.218C369.533 266.734 370.265 266.992 371.201 266.992C371.729 266.992 372.233 266.914 372.713 266.758C373.193 266.59 373.649 266.32 374.081 265.948L374.585 266.974C374.189 267.346 373.685 267.64 373.073 267.856C372.461 268.06 371.837 268.162 371.201 268.162ZM370.967 260.17C370.139 260.17 369.485 260.428 369.005 260.944C368.525 261.46 368.243 262.138 368.159 262.978H373.469C373.433 262.09 373.199 261.4 372.767 260.908C372.347 260.416 371.747 260.17 370.967 260.17ZM379.895 268.162C379.139 268.162 378.425 268.066 377.753 267.874C377.093 267.67 376.559 267.388 376.151 267.028L376.619 266.002C377.039 266.338 377.531 266.596 378.095 266.776C378.659 266.944 379.247 267.028 379.859 267.028C380.723 267.028 381.341 266.902 381.713 266.65C382.097 266.398 382.289 266.026 382.289 265.534C382.289 264.586 381.683 264.112 380.471 264.112H378.401V263.014H380.291C380.807 263.014 381.215 262.894 381.515 262.654C381.827 262.414 381.983 262.078 381.983 261.646C381.983 261.214 381.815 260.872 381.479 260.62C381.143 260.356 380.603 260.224 379.859 260.224C378.695 260.224 377.663 260.542 376.763 261.178L376.295 260.152C377.279 259.444 378.527 259.09 380.039 259.09C381.155 259.09 381.989 259.306 382.541 259.738C383.093 260.17 383.369 260.776 383.369 261.556C383.369 262 383.237 262.396 382.973 262.744C382.721 263.08 382.373 263.326 381.929 263.482C382.469 263.614 382.895 263.866 383.207 264.238C383.519 264.598 383.675 265.048 383.675 265.588C383.675 266.368 383.357 266.992 382.721 267.46C382.085 267.928 381.143 268.162 379.895 268.162ZM390.567 268V259.252H391.971V266.83H395.625V259.252H397.011V266.83H400.665V259.252H402.069V268H390.567ZM408.906 268.162C407.526 268.162 406.434 267.76 405.63 266.956C404.826 266.14 404.424 265.036 404.424 263.644C404.424 262.744 404.604 261.952 404.964 261.268C405.324 260.572 405.816 260.038 406.44 259.666C407.076 259.282 407.808 259.09 408.636 259.09C409.824 259.09 410.754 259.474 411.426 260.242C412.098 260.998 412.434 262.042 412.434 263.374V263.932H405.846C405.894 264.928 406.182 265.69 406.71 266.218C407.238 266.734 407.97 266.992 408.906 266.992C409.434 266.992 409.938 266.914 410.418 266.758C410.898 266.59 411.354 266.32 411.786 265.948L412.29 266.974C411.894 267.346 411.39 267.64 410.778 267.856C410.166 268.06 409.542 268.162 408.906 268.162ZM408.672 260.17C407.844 260.17 407.19 260.428 406.71 260.944C406.23 261.46 405.948 262.138 405.864 262.978H411.174C411.138 262.09 410.904 261.4 410.472 260.908C410.052 260.416 409.452 260.17 408.672 260.17ZM418.428 268.162C417.552 268.162 416.796 267.976 416.16 267.604C415.524 267.22 415.032 266.686 414.684 266.002C414.348 265.306 414.18 264.496 414.18 263.572C414.18 262.18 414.558 261.088 415.314 260.296C416.07 259.492 417.108 259.09 418.428 259.09C418.968 259.09 419.502 259.186 420.03 259.378C420.558 259.57 420.996 259.84 421.344 260.188L420.84 261.25C420.492 260.914 420.108 260.668 419.688 260.512C419.28 260.356 418.89 260.278 418.518 260.278C417.606 260.278 416.904 260.566 416.412 261.142C415.92 261.706 415.674 262.522 415.674 263.59C415.674 264.634 415.92 265.462 416.412 266.074C416.904 266.674 417.606 266.974 418.518 266.974C418.89 266.974 419.28 266.896 419.688 266.74C420.108 266.584 420.492 266.332 420.84 265.984L421.344 267.046C420.996 267.394 420.552 267.67 420.012 267.874C419.484 268.066 418.956 268.162 418.428 268.162ZM425.028 268V260.422H421.86V259.252H429.672V260.422H426.486V268H425.028ZM431.208 268V259.252H432.666V262.366H435.312C436.428 262.366 437.274 262.612 437.85 263.104C438.426 263.584 438.714 264.268 438.714 265.156C438.714 266.032 438.414 266.728 437.814 267.244C437.226 267.748 436.392 268 435.312 268H431.208ZM432.666 266.956H435.168C435.84 266.956 436.362 266.812 436.734 266.524C437.118 266.236 437.31 265.786 437.31 265.174C437.31 264.574 437.124 264.13 436.752 263.842C436.38 263.554 435.852 263.41 435.168 263.41H432.666V266.956ZM445.499 268V259.252H446.705L449.999 265.102L453.293 259.252H454.481V268H453.185V261.628L450.359 266.596H449.621L446.795 261.628V268H445.499ZM461.324 268.162C459.944 268.162 458.852 267.76 458.048 266.956C457.244 266.14 456.842 265.036 456.842 263.644C456.842 262.744 457.022 261.952 457.382 261.268C457.742 260.572 458.234 260.038 458.858 259.666C459.494 259.282 460.226 259.09 461.054 259.09C462.242 259.09 463.172 259.474 463.844 260.242C464.516 260.998 464.852 262.042 464.852 263.374V263.932H458.264C458.312 264.928 458.6 265.69 459.128 266.218C459.656 266.734 460.388 266.992 461.324 266.992C461.852 266.992 462.356 266.914 462.836 266.758C463.316 266.59 463.772 266.32 464.204 265.948L464.708 266.974C464.312 267.346 463.808 267.64 463.196 267.856C462.584 268.06 461.96 268.162 461.324 268.162ZM461.09 260.17C460.262 260.17 459.608 260.428 459.128 260.944C458.648 261.46 458.366 262.138 458.282 262.978H463.592C463.556 262.09 463.322 261.4 462.89 260.908C462.47 260.416 461.87 260.17 461.09 260.17ZM470.846 268.162C469.97 268.162 469.214 267.976 468.578 267.604C467.942 267.22 467.45 266.686 467.102 266.002C466.766 265.306 466.598 264.496 466.598 263.572C466.598 262.18 466.976 261.088 467.732 260.296C468.488 259.492 469.526 259.09 470.846 259.09C471.386 259.09 471.92 259.186 472.448 259.378C472.976 259.57 473.414 259.84 473.762 260.188L473.258 261.25C472.91 260.914 472.526 260.668 472.106 260.512C471.698 260.356 471.308 260.278 470.936 260.278C470.024 260.278 469.322 260.566 468.83 261.142C468.338 261.706 468.092 262.522 468.092 263.59C468.092 264.634 468.338 265.462 468.83 266.074C469.322 266.674 470.024 266.974 470.936 266.974C471.308 266.974 471.698 266.896 472.106 266.74C472.526 266.584 472.91 266.332 473.258 265.984L473.762 267.046C473.414 267.394 472.97 267.67 472.43 267.874C471.902 268.066 471.374 268.162 470.846 268.162ZM474.908 268L476.258 265.66C476.618 265.024 477.08 264.61 477.644 264.418C476.9 264.31 476.324 264.04 475.916 263.608C475.508 263.164 475.304 262.588 475.304 261.88C475.304 261.076 475.568 260.44 476.096 259.972C476.636 259.492 477.44 259.252 478.508 259.252H482.45V268H481.064V264.67H479.786C479.306 264.67 478.898 264.79 478.562 265.03C478.238 265.27 477.974 265.564 477.77 265.912L476.582 268H474.908ZM478.778 263.608H481.064V260.278H478.778C478.07 260.278 477.548 260.428 477.212 260.728C476.876 261.016 476.708 261.418 476.708 261.934C476.708 262.462 476.876 262.876 477.212 263.176C477.548 263.464 478.07 263.608 478.778 263.608ZM492.891 270.34V268H485.331V259.252H486.789V266.83H491.307V259.252H492.765V266.83H494.151V270.34H492.891ZM500.048 268.162C498.668 268.162 497.576 267.76 496.772 266.956C495.968 266.14 495.566 265.036 495.566 263.644C495.566 262.744 495.746 261.952 496.106 261.268C496.466 260.572 496.958 260.038 497.582 259.666C498.218 259.282 498.95 259.09 499.778 259.09C500.966 259.09 501.896 259.474 502.568 260.242C503.24 260.998 503.576 262.042 503.576 263.374V263.932H496.988C497.036 264.928 497.324 265.69 497.852 266.218C498.38 266.734 499.112 266.992 500.048 266.992C500.576 266.992 501.08 266.914 501.56 266.758C502.04 266.59 502.496 266.32 502.928 265.948L503.432 266.974C503.036 267.346 502.532 267.64 501.92 267.856C501.308 268.06 500.684 268.162 500.048 268.162ZM499.814 260.17C498.986 260.17 498.332 260.428 497.852 260.944C497.372 261.46 497.09 262.138 497.006 262.978H502.316C502.28 262.09 502.046 261.4 501.614 260.908C501.194 260.416 500.594 260.17 499.814 260.17ZM505.844 268V259.252H510.11C511.142 259.252 511.904 259.45 512.396 259.846C512.888 260.23 513.134 260.8 513.134 261.556C513.134 262.012 513.002 262.408 512.738 262.744C512.486 263.08 512.138 263.326 511.694 263.482C512.234 263.614 512.654 263.866 512.954 264.238C513.266 264.61 513.422 265.06 513.422 265.588C513.422 266.332 513.146 266.92 512.594 267.352C512.042 267.784 511.262 268 510.254 268H505.844ZM507.23 263.05H510.038C510.59 263.05 511.016 262.93 511.316 262.69C511.616 262.438 511.766 262.084 511.766 261.628C511.766 261.184 511.616 260.842 511.316 260.602C511.016 260.362 510.59 260.242 510.038 260.242H507.23V263.05ZM507.23 267.01H510.2C510.8 267.01 511.256 266.884 511.568 266.632C511.88 266.38 512.036 266.008 512.036 265.516C512.036 265.036 511.88 264.67 511.568 264.418C511.256 264.166 510.8 264.04 510.2 264.04H507.23V267.01Z" fill="#151515"/>
<rect y="305" width="159" height="45" rx="5" fill="#1EC6A7"/>
<path d="M19.108 333V327.636C18.868 327.78 18.574 327.9 18.226 327.996C17.89 328.092 17.53 328.164 17.146 328.212C16.762 328.26 16.378 328.284 15.994 328.284C14.398 328.284 13.174 327.852 12.322 326.988C11.47 326.112 11.044 324.81 11.044 323.082V320.31H12.52V322.974C12.52 324.342 12.82 325.35 13.42 325.998C14.032 326.646 14.932 326.97 16.12 326.97C16.648 326.97 17.164 326.916 17.668 326.808C18.184 326.688 18.664 326.502 19.108 326.25V320.31H20.602V333H19.108ZM23.6041 333V324.252H24.9361V331.614H24.4861L29.9941 324.252H31.2361V333H29.9041V325.62H30.3541L24.8461 333H23.6041ZM35.9338 333V325.422H32.7658V324.252H40.5778V325.422H37.3918V333H35.9338ZM44.8858 333.162C44.2858 333.162 43.7458 333.048 43.2658 332.82C42.7978 332.58 42.4258 332.256 42.1498 331.848C41.8738 331.44 41.7358 330.984 41.7358 330.48C41.7358 329.832 41.8978 329.322 42.2218 328.95C42.5578 328.578 43.1038 328.314 43.8598 328.158C44.6278 328.002 45.6718 327.924 46.9918 327.924H47.8018V328.878H47.0098C46.2778 328.878 45.6658 328.902 45.1738 328.95C44.6818 328.998 44.2918 329.082 44.0038 329.202C43.7158 329.322 43.5118 329.478 43.3918 329.67C43.2718 329.862 43.2118 330.102 43.2118 330.39C43.2118 330.882 43.3798 331.284 43.7158 331.596C44.0638 331.908 44.5318 332.064 45.1198 332.064C45.5998 332.064 46.0198 331.95 46.3798 331.722C46.7518 331.494 47.0398 331.182 47.2438 330.786C47.4598 330.39 47.5678 329.934 47.5678 329.418V327.366C47.5678 326.622 47.4178 326.088 47.1178 325.764C46.8178 325.428 46.3258 325.26 45.6418 325.26C45.1138 325.26 44.6038 325.338 44.1118 325.494C43.6198 325.638 43.1158 325.878 42.5998 326.214L42.0958 325.152C42.4078 324.936 42.7618 324.75 43.1578 324.594C43.5538 324.426 43.9678 324.3 44.3998 324.216C44.8318 324.132 45.2458 324.09 45.6418 324.09C46.3978 324.09 47.0218 324.216 47.5138 324.468C48.0058 324.708 48.3718 325.08 48.6118 325.584C48.8518 326.076 48.9718 326.712 48.9718 327.492V333H47.6038V330.966H47.7658C47.6698 331.422 47.4838 331.812 47.2078 332.136C46.9438 332.46 46.6138 332.712 46.2178 332.892C45.8218 333.072 45.3778 333.162 44.8858 333.162ZM53.635 333V325.422H50.467V324.252H58.279V325.422H55.093V333H53.635ZM59.815 333V324.252H61.273V327.366H63.919C65.035 327.366 65.881 327.612 66.457 328.104C67.033 328.584 67.321 329.268 67.321 330.156C67.321 330.744 67.183 331.254 66.907 331.686C66.643 332.106 66.259 332.43 65.755 332.658C65.263 332.886 64.651 333 63.919 333H59.815ZM61.273 331.956H63.775C64.459 331.956 64.987 331.812 65.359 331.524C65.731 331.224 65.917 330.774 65.917 330.174C65.917 329.562 65.731 329.118 65.359 328.842C64.987 328.554 64.459 328.41 63.775 328.41H61.273V331.956ZM77.832 333.162C76.956 333.162 76.2 332.97 75.564 332.586C74.928 332.202 74.436 331.668 74.088 330.984C73.752 330.288 73.584 329.484 73.584 328.572C73.584 327.648 73.752 326.85 74.088 326.178C74.436 325.506 74.928 324.99 75.564 324.63C76.2 324.27 76.956 324.09 77.832 324.09C78.372 324.09 78.906 324.186 79.434 324.378C79.962 324.57 80.4 324.84 80.748 325.188L80.244 326.25C79.896 325.914 79.512 325.668 79.092 325.512C78.684 325.356 78.294 325.278 77.922 325.278C77.01 325.278 76.308 325.566 75.816 326.142C75.324 326.706 75.078 327.522 75.078 328.59C75.078 329.634 75.324 330.462 75.816 331.074C76.308 331.674 77.01 331.974 77.922 331.974C78.294 331.974 78.684 331.896 79.092 331.74C79.512 331.584 79.896 331.332 80.244 330.984L80.748 332.046C80.4 332.394 79.956 332.67 79.416 332.874C78.888 333.066 78.36 333.162 77.832 333.162ZM84.4318 333V325.422H81.2638V324.252H89.0758V325.422H85.8898V333H84.4318ZM93.3839 333.162C92.7839 333.162 92.2439 333.048 91.7639 332.82C91.2959 332.58 90.9239 332.256 90.6479 331.848C90.3719 331.44 90.2339 330.984 90.2339 330.48C90.2339 329.832 90.3959 329.322 90.7199 328.95C91.0559 328.578 91.6019 328.314 92.3579 328.158C93.1259 328.002 94.1699 327.924 95.4899 327.924H96.2999V328.878H95.5079C94.7759 328.878 94.1639 328.902 93.6719 328.95C93.1799 328.998 92.7899 329.082 92.5019 329.202C92.2139 329.322 92.0099 329.478 91.8899 329.67C91.7699 329.862 91.7099 330.102 91.7099 330.39C91.7099 330.882 91.8779 331.284 92.2139 331.596C92.5619 331.908 93.0299 332.064 93.6179 332.064C94.0979 332.064 94.5179 331.95 94.8779 331.722C95.2499 331.494 95.5379 331.182 95.7419 330.786C95.9579 330.39 96.0659 329.934 96.0659 329.418V327.366C96.0659 326.622 95.9159 326.088 95.6159 325.764C95.3159 325.428 94.8239 325.26 94.1399 325.26C93.6119 325.26 93.1019 325.338 92.6099 325.494C92.1179 325.638 91.6139 325.878 91.0979 326.214L90.5939 325.152C90.9059 324.936 91.2599 324.75 91.6559 324.594C92.0519 324.426 92.4659 324.3 92.8979 324.216C93.3299 324.132 93.7439 324.09 94.1399 324.09C94.8959 324.09 95.5199 324.216 96.0119 324.468C96.5039 324.708 96.8699 325.08 97.1099 325.584C97.3499 326.076 97.4699 326.712 97.4699 327.492V333H96.1019V330.966H96.2639C96.1679 331.422 95.9819 331.812 95.7059 332.136C95.4419 332.46 95.1119 332.712 94.7159 332.892C94.3199 333.072 93.8759 333.162 93.3839 333.162ZM102.133 333V325.422H98.965V324.252H106.777V325.422H103.591V333H102.133ZM108.313 333V324.252H109.771V327.366H112.417C113.533 327.366 114.379 327.612 114.955 328.104C115.531 328.584 115.819 329.268 115.819 330.156C115.819 330.744 115.681 331.254 115.405 331.686C115.141 332.106 114.757 332.43 114.253 332.658C113.761 332.886 113.149 333 112.417 333H108.313ZM109.771 331.956H112.273C112.957 331.956 113.485 331.812 113.857 331.524C114.229 331.224 114.415 330.774 114.415 330.174C114.415 329.562 114.229 329.118 113.857 328.842C113.485 328.554 112.957 328.41 112.273 328.41H109.771V331.956ZM125.289 333.162C124.497 333.162 123.801 333 123.201 332.676C122.601 332.34 122.127 331.866 121.779 331.254C121.431 330.63 121.221 329.904 121.149 329.076H119.403V333H117.981V324.252H119.403V327.888H121.167C121.311 326.712 121.743 325.788 122.463 325.116C123.195 324.432 124.137 324.09 125.289 324.09C126.141 324.09 126.879 324.276 127.503 324.648C128.127 325.02 128.607 325.548 128.943 326.232C129.291 326.904 129.465 327.702 129.465 328.626C129.465 329.55 129.291 330.354 128.943 331.038C128.607 331.71 128.127 332.232 127.503 332.604C126.879 332.976 126.141 333.162 125.289 333.162ZM125.289 331.992C126.117 331.992 126.771 331.704 127.251 331.128C127.743 330.54 127.989 329.706 127.989 328.626C127.989 327.534 127.743 326.7 127.251 326.124C126.771 325.548 126.117 325.26 125.289 325.26C124.473 325.26 123.819 325.548 123.327 326.124C122.835 326.7 122.589 327.534 122.589 328.626C122.589 329.706 122.835 330.54 123.327 331.128C123.819 331.704 124.473 331.992 125.289 331.992Z" fill="white"/>
<path d="M139.75 330.75L143.25 327.25L139.75 323.75" stroke="white" stroke-width="1.5"/>
</svg>
